G04 #@! TF.GenerationSoftware,KiCad,Pcbnew,8.0.7-8.0.7-0~ubuntu24.04.1*
G04 #@! TF.CreationDate,2025-01-01T20:03:56-05:00*
G04 #@! TF.ProjectId,promicro_rp2040_pcbholder_wiredver,70726f6d-6963-4726-9f5f-727032303430,rev?*
G04 #@! TF.SameCoordinates,Original*
G04 #@! TF.FileFunction,Copper,L2,Bot*
G04 #@! TF.FilePolarity,Positive*
%FSLAX46Y46*%
G04 Gerber Fmt 4.6, Leading zero omitted, Abs format (unit mm)*
G04 Created by KiCad (PCBNEW 8.0.7-8.0.7-0~ubuntu24.04.1) date 2025-01-01 20:03:56*
%MOMM*%
%LPD*%
G01*
G04 APERTURE LIST*
G04 #@! TA.AperFunction,ComponentPad*
%ADD10C,1.430000*%
G04 #@! TD*
G04 #@! TA.AperFunction,ComponentPad*
%ADD11C,1.400000*%
G04 #@! TD*
G04 #@! TA.AperFunction,ComponentPad*
%ADD12O,1.600000X2.000000*%
G04 #@! TD*
G04 #@! TA.AperFunction,ComponentPad*
%ADD13C,1.524000*%
G04 #@! TD*
G04 #@! TA.AperFunction,Conductor*
%ADD14C,0.200000*%
G04 #@! TD*
G04 APERTURE END LIST*
D10*
G04 #@! TO.P,,*
G04 #@! TO.N,*
X169452501Y-75642080D03*
G04 #@! TD*
G04 #@! TO.P,,*
G04 #@! TO.N,*
X90003826Y-74785830D03*
G04 #@! TD*
D11*
G04 #@! TO.P,J4,8,Pin_8*
G04 #@! TO.N,LRow8*
X199852501Y-110086250D03*
G04 #@! TO.P,J4,7,Pin_7*
G04 #@! TO.N,LRow7*
X199852501Y-107546250D03*
G04 #@! TO.P,J4,6,Pin_6*
G04 #@! TO.N,LRow6*
X199852501Y-105006250D03*
G04 #@! TO.P,J4,5,Pin_5*
G04 #@! TO.N,LRow5*
X199852501Y-102466250D03*
G04 #@! TO.P,J4,4,Pin_4*
G04 #@! TO.N,LRow4*
X199852501Y-99926250D03*
G04 #@! TO.P,J4,3,Pin_3*
G04 #@! TO.N,LRow3*
X199852501Y-97386250D03*
G04 #@! TO.P,J4,2,Pin_2*
G04 #@! TO.N,LRow2*
X199852501Y-94846250D03*
G04 #@! TO.P,J4,1,Pin_1*
G04 #@! TO.N,LRow1*
X199852501Y-92306250D03*
G04 #@! TD*
G04 #@! TO.P,J3,8,Pin_8*
G04 #@! TO.N,LCol8*
X173602501Y-109256250D03*
G04 #@! TO.P,J3,7,Pin_7*
G04 #@! TO.N,LCol7*
X173602501Y-106716250D03*
G04 #@! TO.P,J3,6,Pin_6*
G04 #@! TO.N,LCol6*
X173602501Y-104176250D03*
G04 #@! TO.P,J3,5,Pin_5*
G04 #@! TO.N,LCol5*
X173602501Y-101636250D03*
G04 #@! TO.P,J3,4,Pin_4*
G04 #@! TO.N,LCol4*
X173602501Y-99096250D03*
G04 #@! TO.P,J3,3,Pin_3*
G04 #@! TO.N,LCol3*
X173602501Y-96556250D03*
G04 #@! TO.P,J3,2,Pin_2*
G04 #@! TO.N,LCol2*
X173602501Y-94016250D03*
G04 #@! TO.P,J3,1,Pin_1*
G04 #@! TO.N,LCol1*
X173602501Y-91476250D03*
G04 #@! TD*
G04 #@! TO.P,J2,8,Pin_8*
G04 #@! TO.N,RRow8*
X113602501Y-108280000D03*
G04 #@! TO.P,J2,7,Pin_7*
G04 #@! TO.N,RRow7*
X113602501Y-105740000D03*
G04 #@! TO.P,J2,6,Pin_6*
G04 #@! TO.N,RRow6*
X113602501Y-103200000D03*
G04 #@! TO.P,J2,5,Pin_5*
G04 #@! TO.N,RRow5*
X113602501Y-100660000D03*
G04 #@! TO.P,J2,4,Pin_4*
G04 #@! TO.N,RRow4*
X113602501Y-98120000D03*
G04 #@! TO.P,J2,3,Pin_3*
G04 #@! TO.N,RRow3*
X113602501Y-95580000D03*
G04 #@! TO.P,J2,2,Pin_2*
G04 #@! TO.N,RRow2*
X113602501Y-93040000D03*
G04 #@! TO.P,J2,1,Pin_1*
G04 #@! TO.N,RRow1*
X113602501Y-90500000D03*
G04 #@! TD*
G04 #@! TO.P,J1,8,Pin_8*
G04 #@! TO.N,RCol8*
X87102501Y-109336250D03*
G04 #@! TO.P,J1,7,Pin_7*
G04 #@! TO.N,RCol7*
X87102501Y-106796250D03*
G04 #@! TO.P,J1,6,Pin_6*
G04 #@! TO.N,RCol6*
X87102501Y-104256250D03*
G04 #@! TO.P,J1,5,Pin_5*
G04 #@! TO.N,RCol5*
X87102501Y-101716250D03*
G04 #@! TO.P,J1,4,Pin_4*
G04 #@! TO.N,RCol4*
X87102501Y-99176250D03*
G04 #@! TO.P,J1,3,Pin_3*
G04 #@! TO.N,RCol3*
X87102501Y-96636250D03*
G04 #@! TO.P,J1,2,Pin_2*
G04 #@! TO.N,RCol2*
X87102501Y-94096250D03*
G04 #@! TO.P,J1,1,Pin_1*
G04 #@! TO.N,RCol1*
X87102501Y-91556250D03*
G04 #@! TD*
D12*
G04 #@! TO.P,U4,1,SLEEVE*
G04 #@! TO.N,LGND*
X175702501Y-85956250D03*
G04 #@! TO.P,U4,2,TIP*
G04 #@! TO.N,LVCC*
X171102501Y-84856250D03*
G04 #@! TO.P,U4,3,RING1*
G04 #@! TO.N,unconnected-(U4-RING1-Pad3)*
X171102501Y-80856250D03*
G04 #@! TO.P,U4,4,RING2*
G04 #@! TO.N,LData*
X171102501Y-77856250D03*
G04 #@! TD*
G04 #@! TO.P,U2,4,RING2*
G04 #@! TO.N,RData*
X111302501Y-77006250D03*
G04 #@! TO.P,U2,3,RING1*
G04 #@! TO.N,unconnected-(U2-RING1-Pad3)*
X111302501Y-80006250D03*
G04 #@! TO.P,U2,2,TIP*
G04 #@! TO.N,RVCC*
X111302501Y-84006250D03*
G04 #@! TO.P,U2,1,SLEEVE*
G04 #@! TO.N,RGND*
X115902501Y-85106250D03*
G04 #@! TD*
D13*
G04 #@! TO.P,U1,31,GP11*
G04 #@! TO.N,unconnected-(U1-GP11-Pad31)*
X92760000Y-74460000D03*
G04 #@! TO.P,U1,30,5v*
G04 #@! TO.N,unconnected-(U1-5v-Pad30)*
X92760000Y-77000000D03*
G04 #@! TO.P,U1,29,GND*
G04 #@! TO.N,unconnected-(U1-GND-Pad29)*
X92760000Y-79540000D03*
G04 #@! TO.P,U1,28,RST*
G04 #@! TO.N,unconnected-(U1-RST-Pad28)*
X92760000Y-82080000D03*
G04 #@! TO.P,U1,27,3.3v*
G04 #@! TO.N,RVCC*
X92760000Y-84620000D03*
G04 #@! TO.P,U1,26,GP29*
G04 #@! TO.N,RRow1*
X92760000Y-87160000D03*
G04 #@! TO.P,U1,25,GP28*
G04 #@! TO.N,RRow2*
X92760000Y-89700000D03*
G04 #@! TO.P,U1,24,GP27*
G04 #@! TO.N,RRow3*
X92760000Y-92240000D03*
G04 #@! TO.P,U1,23,GP26*
G04 #@! TO.N,RRow4*
X92760000Y-94780000D03*
G04 #@! TO.P,U1,22,GP22*
G04 #@! TO.N,RRow5*
X92760000Y-97320000D03*
G04 #@! TO.P,U1,21,GP20*
G04 #@! TO.N,RRow6*
X92760000Y-99860000D03*
G04 #@! TO.P,U1,20,GP23*
G04 #@! TO.N,RRow7*
X92760000Y-102400000D03*
G04 #@! TO.P,U1,19,GP21*
G04 #@! TO.N,RRow8*
X92760000Y-104940000D03*
G04 #@! TO.P,U1,18,GP16*
G04 #@! TO.N,unconnected-(U1-GP16-Pad18)*
X95300000Y-104940000D03*
G04 #@! TO.P,U1,17,GP15*
G04 #@! TO.N,unconnected-(U1-GP15-Pad17)*
X97840000Y-104940000D03*
G04 #@! TO.P,U1,16,GP14*
G04 #@! TO.N,unconnected-(U1-GP14-Pad16)*
X100380000Y-104940000D03*
G04 #@! TO.P,U1,15,GP13*
G04 #@! TO.N,unconnected-(U1-GP13-Pad15)*
X102920000Y-104940000D03*
G04 #@! TO.P,U1,14,GP12*
G04 #@! TO.N,unconnected-(U1-GP12-Pad14)*
X105460000Y-104940000D03*
G04 #@! TO.P,U1,13,GP9*
G04 #@! TO.N,RCol8*
X108000000Y-104940000D03*
G04 #@! TO.P,U1,12,GP8*
G04 #@! TO.N,RCol7*
X108000000Y-102400000D03*
G04 #@! TO.P,U1,11,GP7*
G04 #@! TO.N,RCol6*
X108000000Y-99860000D03*
G04 #@! TO.P,U1,10,GP6*
G04 #@! TO.N,RCol5*
X108000000Y-97320000D03*
G04 #@! TO.P,U1,9,GP5*
G04 #@! TO.N,RCol4*
X108000000Y-94780000D03*
G04 #@! TO.P,U1,8,GP4*
G04 #@! TO.N,RCol3*
X108000000Y-92240000D03*
G04 #@! TO.P,U1,7,GP3*
G04 #@! TO.N,RCol2*
X108000000Y-89700000D03*
G04 #@! TO.P,U1,6,GP2*
G04 #@! TO.N,RCol1*
X108000000Y-87160000D03*
G04 #@! TO.P,U1,5,GND*
G04 #@! TO.N,RGND*
X108000000Y-84620000D03*
G04 #@! TO.P,U1,4,GND*
G04 #@! TO.N,unconnected-(U1-GND-Pad4)*
X108000000Y-82080000D03*
G04 #@! TO.P,U1,3,GP1*
G04 #@! TO.N,unconnected-(U1-GP1-Pad3)*
X108000000Y-79540000D03*
G04 #@! TO.P,U1,2,GP0*
G04 #@! TO.N,RData*
X108000000Y-77000000D03*
G04 #@! TO.P,U1,1,GP10*
G04 #@! TO.N,unconnected-(U1-GP10-Pad1)*
X108000000Y-74460000D03*
G04 #@! TD*
G04 #@! TO.P,U3,1,GP10*
G04 #@! TO.N,unconnected-(U3-GP10-Pad1)*
X194402501Y-75256250D03*
G04 #@! TO.P,U3,2,GP0*
G04 #@! TO.N,LData*
X194402501Y-77796250D03*
G04 #@! TO.P,U3,3,GP1*
G04 #@! TO.N,unconnected-(U3-GP1-Pad3)*
X194402501Y-80336250D03*
G04 #@! TO.P,U3,4,GND*
G04 #@! TO.N,unconnected-(U3-GND-Pad4)*
X194402501Y-82876250D03*
G04 #@! TO.P,U3,5,GND*
G04 #@! TO.N,unconnected-(U3-GND-Pad5)*
X194402501Y-85416250D03*
G04 #@! TO.P,U3,6,GP2*
G04 #@! TO.N,LCol1*
X194402501Y-87956250D03*
G04 #@! TO.P,U3,7,GP3*
G04 #@! TO.N,LCol2*
X194402501Y-90496250D03*
G04 #@! TO.P,U3,8,GP4*
G04 #@! TO.N,LCol3*
X194402501Y-93036250D03*
G04 #@! TO.P,U3,9,GP5*
G04 #@! TO.N,LCol4*
X194402501Y-95576250D03*
G04 #@! TO.P,U3,10,GP6*
G04 #@! TO.N,LCol5*
X194402501Y-98116250D03*
G04 #@! TO.P,U3,11,GP7*
G04 #@! TO.N,LCol6*
X194402501Y-100656250D03*
G04 #@! TO.P,U3,12,GP8*
G04 #@! TO.N,LCol7*
X194402501Y-103196250D03*
G04 #@! TO.P,U3,13,GP9*
G04 #@! TO.N,LCol8*
X194402501Y-105736250D03*
G04 #@! TO.P,U3,14,GP12*
G04 #@! TO.N,unconnected-(U3-GP12-Pad14)*
X191862501Y-105736250D03*
G04 #@! TO.P,U3,15,GP13*
G04 #@! TO.N,unconnected-(U3-GP13-Pad15)*
X189322501Y-105736250D03*
G04 #@! TO.P,U3,16,GP14*
G04 #@! TO.N,unconnected-(U3-GP14-Pad16)*
X186782501Y-105736250D03*
G04 #@! TO.P,U3,17,GP15*
G04 #@! TO.N,unconnected-(U3-GP15-Pad17)*
X184242501Y-105736250D03*
G04 #@! TO.P,U3,18,GP16*
G04 #@! TO.N,unconnected-(U3-GP16-Pad18)*
X181702501Y-105736250D03*
G04 #@! TO.P,U3,19,GP21*
G04 #@! TO.N,LRow8*
X179162501Y-105736250D03*
G04 #@! TO.P,U3,20,GP23*
G04 #@! TO.N,LRow7*
X179162501Y-103196250D03*
G04 #@! TO.P,U3,21,GP20*
G04 #@! TO.N,LRow6*
X179162501Y-100656250D03*
G04 #@! TO.P,U3,22,GP22*
G04 #@! TO.N,LRow5*
X179162501Y-98116250D03*
G04 #@! TO.P,U3,23,GP26*
G04 #@! TO.N,LRow4*
X179162501Y-95576250D03*
G04 #@! TO.P,U3,24,GP27*
G04 #@! TO.N,LRow3*
X179162501Y-93036250D03*
G04 #@! TO.P,U3,25,GP28*
G04 #@! TO.N,LRow2*
X179162501Y-90496250D03*
G04 #@! TO.P,U3,26,GP29*
G04 #@! TO.N,LRow1*
X179162501Y-87956250D03*
G04 #@! TO.P,U3,27,3.3v*
G04 #@! TO.N,LVCC*
X179162501Y-85416250D03*
G04 #@! TO.P,U3,28,RST*
G04 #@! TO.N,unconnected-(U3-RST-Pad28)*
X179162501Y-82876250D03*
G04 #@! TO.P,U3,29,GND*
G04 #@! TO.N,LGND*
X179162501Y-80336250D03*
G04 #@! TO.P,U3,30,5v*
G04 #@! TO.N,unconnected-(U3-5v-Pad30)*
X179162501Y-77796250D03*
G04 #@! TO.P,U3,31,GP11*
G04 #@! TO.N,unconnected-(U3-GP11-Pad31)*
X179162501Y-75256250D03*
G04 #@! TD*
D10*
G04 #@! TO.P,,*
G04 #@! TO.N,*
X103216326Y-74785830D03*
G04 #@! TD*
G04 #@! TO.P,,*
G04 #@! TO.N,*
X182665001Y-75642080D03*
G04 #@! TD*
G04 #@! TO.P,,*
G04 #@! TO.N,*
X196952501Y-75642080D03*
G04 #@! TD*
G04 #@! TO.P,,*
G04 #@! TO.N,*
X117503826Y-74785830D03*
G04 #@! TD*
D14*
G04 #@! TO.N,LRow6*
X199852501Y-105006250D02*
X199302501Y-104456250D01*
X199302501Y-104456250D02*
X182962501Y-104456250D01*
X182962501Y-104456250D02*
X179162501Y-100656250D01*
G04 #@! TO.N,LRow5*
X199852501Y-102466250D02*
X199342501Y-101956250D01*
X199342501Y-101956250D02*
X183002501Y-101956250D01*
X183002501Y-101956250D02*
X179162501Y-98116250D01*
G04 #@! TO.N,LRow4*
X199852501Y-99926250D02*
X199332501Y-99406250D01*
X199332501Y-99406250D02*
X182992501Y-99406250D01*
X182992501Y-99406250D02*
X179162501Y-95576250D01*
G04 #@! TO.N,LRow3*
X199852501Y-97386250D02*
X199322501Y-96856250D01*
X199322501Y-96856250D02*
X182982501Y-96856250D01*
X182982501Y-96856250D02*
X179162501Y-93036250D01*
G04 #@! TO.N,LRow2*
X199852501Y-94846250D02*
X199312501Y-94306250D01*
X199312501Y-94306250D02*
X182972501Y-94306250D01*
X182972501Y-94306250D02*
X179162501Y-90496250D01*
G04 #@! TO.N,LRow1*
X199852501Y-92306250D02*
X199302501Y-91756250D01*
X199302501Y-91756250D02*
X182962501Y-91756250D01*
X182962501Y-91756250D02*
X179162501Y-87956250D01*
G04 #@! TO.N,LRow7*
X199852501Y-107546250D02*
X181594606Y-107546250D01*
X181594606Y-107546250D02*
X180402501Y-106354145D01*
X180402501Y-106354145D02*
X180402501Y-104436250D01*
X180402501Y-104436250D02*
X179162501Y-103196250D01*
G04 #@! TO.N,LRow8*
X199852501Y-110086250D02*
X181882501Y-110086250D01*
X181882501Y-110086250D02*
X179162501Y-107366250D01*
X179162501Y-107366250D02*
X179162501Y-105736250D01*
G04 #@! TO.N,LVCC*
X171102501Y-84856250D02*
X174352501Y-88106250D01*
X174352501Y-88106250D02*
X176472501Y-88106250D01*
X176472501Y-88106250D02*
X179162501Y-85416250D01*
G04 #@! TO.N,RRow7*
X113602501Y-105740000D02*
X111518751Y-103656250D01*
X111518751Y-103656250D02*
X94016250Y-103656250D01*
X94016250Y-103656250D02*
X92760000Y-102400000D01*
G04 #@! TO.N,RRow6*
X113602501Y-103200000D02*
X111558751Y-101156250D01*
X111558751Y-101156250D02*
X94056250Y-101156250D01*
X94056250Y-101156250D02*
X92760000Y-99860000D01*
G04 #@! TO.N,RRow5*
X113602501Y-100660000D02*
X111498751Y-98556250D01*
X111498751Y-98556250D02*
X93996250Y-98556250D01*
X93996250Y-98556250D02*
X92760000Y-97320000D01*
G04 #@! TO.N,RRow3*
X113602501Y-95580000D02*
X111528751Y-93506250D01*
X111528751Y-93506250D02*
X94026250Y-93506250D01*
X94026250Y-93506250D02*
X92760000Y-92240000D01*
G04 #@! TO.N,RRow2*
X113602501Y-93040000D02*
X111568751Y-91006250D01*
X111568751Y-91006250D02*
X94066250Y-91006250D01*
X94066250Y-91006250D02*
X92760000Y-89700000D01*
G04 #@! TO.N,RRow1*
X113602501Y-90500000D02*
X113000000Y-90500000D01*
X113000000Y-90500000D02*
X110856250Y-88356250D01*
X110856250Y-88356250D02*
X93956250Y-88356250D01*
X93956250Y-88356250D02*
X92760000Y-87160000D01*
G04 #@! TO.N,RVCC*
X111302501Y-84006250D02*
X109452501Y-85856250D01*
X109452501Y-85856250D02*
X93996250Y-85856250D01*
X93996250Y-85856250D02*
X92760000Y-84620000D01*
G04 #@! TO.N,RRow8*
X113602501Y-108280000D02*
X96100000Y-108280000D01*
X96100000Y-108280000D02*
X92760000Y-104940000D01*
G04 #@! TO.N,RRow4*
X111324501Y-95842000D02*
X93822000Y-95842000D01*
X93822000Y-95842000D02*
X92760000Y-94780000D01*
X113602501Y-98120000D02*
X111324501Y-95842000D01*
G04 #@! TD*
M02*
