M48
; DRILL file {KiCad 8.0.7-8.0.7-0~ubuntu24.04.1} date 2025-01-01T20:03:56-0500
; FORMAT={-:-/ absolute / metric / decimal}
; #@! TF.CreationDate,2025-01-01T20:03:56-05:00
; #@! TF.GenerationSoftware,Kicad,Pcbnew,8.0.7-8.0.7-0~ubuntu24.04.1
; #@! TF.FileFunction,Plated,1,2,PTH
FMAT,2
METRIC
; #@! TA.AperFunction,Plated,PTH,ComponentDrill
T1C0.750
; #@! TA.AperFunction,Plated,PTH,ComponentDrill
T2C0.762
; #@! TA.AperFunction,Plated,PTH,ComponentDrill
T3C0.900
; #@! TA.AperFunction,Plated,PTH,ComponentDrill
T4C1.280
%
G90
G05
T1
X87.103Y-91.556
X87.103Y-94.096
X87.103Y-96.636
X87.103Y-99.176
X87.103Y-101.716
X87.103Y-104.256
X87.103Y-106.796
X87.103Y-109.336
X113.603Y-90.5
X113.603Y-93.04
X113.603Y-95.58
X113.603Y-98.12
X113.603Y-100.66
X113.603Y-103.2
X113.603Y-105.74
X113.603Y-108.28
X173.603Y-91.476
X173.603Y-94.016
X173.603Y-96.556
X173.603Y-99.096
X173.603Y-101.636
X173.603Y-104.176
X173.603Y-106.716
X173.603Y-109.256
X199.853Y-92.306
X199.853Y-94.846
X199.853Y-97.386
X199.853Y-99.926
X199.853Y-102.466
X199.853Y-105.006
X199.853Y-107.546
X199.853Y-110.086
T2
X92.76Y-74.46
X92.76Y-77.0
X92.76Y-79.54
X92.76Y-82.08
X92.76Y-84.62
X92.76Y-87.16
X92.76Y-89.7
X92.76Y-92.24
X92.76Y-94.78
X92.76Y-97.32
X92.76Y-99.86
X92.76Y-102.4
X92.76Y-104.94
X95.3Y-104.94
X97.84Y-104.94
X100.38Y-104.94
X102.92Y-104.94
X105.46Y-104.94
X108.0Y-74.46
X108.0Y-77.0
X108.0Y-79.54
X108.0Y-82.08
X108.0Y-84.62
X108.0Y-87.16
X108.0Y-89.7
X108.0Y-92.24
X108.0Y-94.78
X108.0Y-97.32
X108.0Y-99.86
X108.0Y-102.4
X108.0Y-104.94
X179.163Y-75.256
X179.163Y-77.796
X179.163Y-80.336
X179.163Y-82.876
X179.163Y-85.416
X179.163Y-87.956
X179.163Y-90.496
X179.163Y-93.036
X179.163Y-95.576
X179.163Y-98.116
X179.163Y-100.656
X179.163Y-103.196
X179.163Y-105.736
X181.703Y-105.736
X184.243Y-105.736
X186.783Y-105.736
X189.323Y-105.736
X191.863Y-105.736
X194.403Y-75.256
X194.403Y-77.796
X194.403Y-80.336
X194.403Y-82.876
X194.403Y-85.416
X194.403Y-87.956
X194.403Y-90.496
X194.403Y-93.036
X194.403Y-95.576
X194.403Y-98.116
X194.403Y-100.656
X194.403Y-103.196
X194.403Y-105.736
T4
X90.004Y-74.786
X103.216Y-74.786
X117.504Y-74.786
X169.453Y-75.642
X182.665Y-75.642
X196.953Y-75.642
T3
G00X111.303Y-77.206
M15
G01X111.303Y-76.806
M16
G05
G00X111.303Y-80.206
M15
G01X111.303Y-79.806
M16
G05
G00X111.303Y-84.206
M15
G01X111.303Y-83.806
M16
G05
G00X115.903Y-85.306
M15
G01X115.903Y-84.906
M16
G05
G00X171.103Y-78.056
M15
G01X171.103Y-77.656
M16
G05
G00X171.103Y-81.056
M15
G01X171.103Y-80.656
M16
G05
G00X171.103Y-85.056
M15
G01X171.103Y-84.656
M16
G05
G00X175.703Y-86.156
M15
G01X175.703Y-85.756
M16
G05
M30
