G04 #@! TF.GenerationSoftware,KiCad,Pcbnew,8.0.7-8.0.7-0~ubuntu24.04.1*
G04 #@! TF.CreationDate,2025-01-01T20:03:56-05:00*
G04 #@! TF.ProjectId,promicro_rp2040_pcbholder_wiredver,70726f6d-6963-4726-9f5f-727032303430,rev?*
G04 #@! TF.SameCoordinates,Original*
G04 #@! TF.FileFunction,Legend,Top*
G04 #@! TF.FilePolarity,Positive*
%FSLAX46Y46*%
G04 Gerber Fmt 4.6, Leading zero omitted, Abs format (unit mm)*
G04 Created by KiCad (PCBNEW 8.0.7-8.0.7-0~ubuntu24.04.1) date 2025-01-01 20:03:56*
%MOMM*%
%LPD*%
G01*
G04 APERTURE LIST*
%ADD10C,0.100000*%
%ADD11C,0.200000*%
%ADD12C,0.150000*%
%ADD13C,1.430000*%
%ADD14C,1.400000*%
%ADD15C,0.800000*%
%ADD16O,1.600000X2.000000*%
%ADD17C,1.524000*%
G04 APERTURE END LIST*
D10*
X196358766Y-97023907D02*
X196406385Y-96976288D01*
X196406385Y-96976288D02*
X196501623Y-96928669D01*
X196501623Y-96928669D02*
X196739718Y-96928669D01*
X196739718Y-96928669D02*
X196834956Y-96976288D01*
X196834956Y-96976288D02*
X196882575Y-97023907D01*
X196882575Y-97023907D02*
X196930194Y-97119145D01*
X196930194Y-97119145D02*
X196930194Y-97214383D01*
X196930194Y-97214383D02*
X196882575Y-97357240D01*
X196882575Y-97357240D02*
X196311147Y-97928669D01*
X196311147Y-97928669D02*
X196930194Y-97928669D01*
X197263528Y-96928669D02*
X197930194Y-96928669D01*
X197930194Y-96928669D02*
X197501623Y-97928669D01*
X196358766Y-109773907D02*
X196406385Y-109726288D01*
X196406385Y-109726288D02*
X196501623Y-109678669D01*
X196501623Y-109678669D02*
X196739718Y-109678669D01*
X196739718Y-109678669D02*
X196834956Y-109726288D01*
X196834956Y-109726288D02*
X196882575Y-109773907D01*
X196882575Y-109773907D02*
X196930194Y-109869145D01*
X196930194Y-109869145D02*
X196930194Y-109964383D01*
X196930194Y-109964383D02*
X196882575Y-110107240D01*
X196882575Y-110107240D02*
X196311147Y-110678669D01*
X196311147Y-110678669D02*
X196930194Y-110678669D01*
X197882575Y-110678669D02*
X197311147Y-110678669D01*
X197596861Y-110678669D02*
X197596861Y-109678669D01*
X197596861Y-109678669D02*
X197501623Y-109821526D01*
X197501623Y-109821526D02*
X197406385Y-109916764D01*
X197406385Y-109916764D02*
X197311147Y-109964383D01*
X196358766Y-107523907D02*
X196406385Y-107476288D01*
X196406385Y-107476288D02*
X196501623Y-107428669D01*
X196501623Y-107428669D02*
X196739718Y-107428669D01*
X196739718Y-107428669D02*
X196834956Y-107476288D01*
X196834956Y-107476288D02*
X196882575Y-107523907D01*
X196882575Y-107523907D02*
X196930194Y-107619145D01*
X196930194Y-107619145D02*
X196930194Y-107714383D01*
X196930194Y-107714383D02*
X196882575Y-107857240D01*
X196882575Y-107857240D02*
X196311147Y-108428669D01*
X196311147Y-108428669D02*
X196930194Y-108428669D01*
X197263528Y-107428669D02*
X197882575Y-107428669D01*
X197882575Y-107428669D02*
X197549242Y-107809621D01*
X197549242Y-107809621D02*
X197692099Y-107809621D01*
X197692099Y-107809621D02*
X197787337Y-107857240D01*
X197787337Y-107857240D02*
X197834956Y-107904859D01*
X197834956Y-107904859D02*
X197882575Y-108000097D01*
X197882575Y-108000097D02*
X197882575Y-108238192D01*
X197882575Y-108238192D02*
X197834956Y-108333430D01*
X197834956Y-108333430D02*
X197787337Y-108381050D01*
X197787337Y-108381050D02*
X197692099Y-108428669D01*
X197692099Y-108428669D02*
X197406385Y-108428669D01*
X197406385Y-108428669D02*
X197311147Y-108381050D01*
X197311147Y-108381050D02*
X197263528Y-108333430D01*
X196358766Y-99773907D02*
X196406385Y-99726288D01*
X196406385Y-99726288D02*
X196501623Y-99678669D01*
X196501623Y-99678669D02*
X196739718Y-99678669D01*
X196739718Y-99678669D02*
X196834956Y-99726288D01*
X196834956Y-99726288D02*
X196882575Y-99773907D01*
X196882575Y-99773907D02*
X196930194Y-99869145D01*
X196930194Y-99869145D02*
X196930194Y-99964383D01*
X196930194Y-99964383D02*
X196882575Y-100107240D01*
X196882575Y-100107240D02*
X196311147Y-100678669D01*
X196311147Y-100678669D02*
X196930194Y-100678669D01*
X197787337Y-99678669D02*
X197596861Y-99678669D01*
X197596861Y-99678669D02*
X197501623Y-99726288D01*
X197501623Y-99726288D02*
X197454004Y-99773907D01*
X197454004Y-99773907D02*
X197358766Y-99916764D01*
X197358766Y-99916764D02*
X197311147Y-100107240D01*
X197311147Y-100107240D02*
X197311147Y-100488192D01*
X197311147Y-100488192D02*
X197358766Y-100583430D01*
X197358766Y-100583430D02*
X197406385Y-100631050D01*
X197406385Y-100631050D02*
X197501623Y-100678669D01*
X197501623Y-100678669D02*
X197692099Y-100678669D01*
X197692099Y-100678669D02*
X197787337Y-100631050D01*
X197787337Y-100631050D02*
X197834956Y-100583430D01*
X197834956Y-100583430D02*
X197882575Y-100488192D01*
X197882575Y-100488192D02*
X197882575Y-100250097D01*
X197882575Y-100250097D02*
X197834956Y-100154859D01*
X197834956Y-100154859D02*
X197787337Y-100107240D01*
X197787337Y-100107240D02*
X197692099Y-100059621D01*
X197692099Y-100059621D02*
X197501623Y-100059621D01*
X197501623Y-100059621D02*
X197406385Y-100107240D01*
X197406385Y-100107240D02*
X197358766Y-100154859D01*
X197358766Y-100154859D02*
X197311147Y-100250097D01*
X196358766Y-92023907D02*
X196406385Y-91976288D01*
X196406385Y-91976288D02*
X196501623Y-91928669D01*
X196501623Y-91928669D02*
X196739718Y-91928669D01*
X196739718Y-91928669D02*
X196834956Y-91976288D01*
X196834956Y-91976288D02*
X196882575Y-92023907D01*
X196882575Y-92023907D02*
X196930194Y-92119145D01*
X196930194Y-92119145D02*
X196930194Y-92214383D01*
X196930194Y-92214383D02*
X196882575Y-92357240D01*
X196882575Y-92357240D02*
X196311147Y-92928669D01*
X196311147Y-92928669D02*
X196930194Y-92928669D01*
X197406385Y-92928669D02*
X197596861Y-92928669D01*
X197596861Y-92928669D02*
X197692099Y-92881050D01*
X197692099Y-92881050D02*
X197739718Y-92833430D01*
X197739718Y-92833430D02*
X197834956Y-92690573D01*
X197834956Y-92690573D02*
X197882575Y-92500097D01*
X197882575Y-92500097D02*
X197882575Y-92119145D01*
X197882575Y-92119145D02*
X197834956Y-92023907D01*
X197834956Y-92023907D02*
X197787337Y-91976288D01*
X197787337Y-91976288D02*
X197692099Y-91928669D01*
X197692099Y-91928669D02*
X197501623Y-91928669D01*
X197501623Y-91928669D02*
X197406385Y-91976288D01*
X197406385Y-91976288D02*
X197358766Y-92023907D01*
X197358766Y-92023907D02*
X197311147Y-92119145D01*
X197311147Y-92119145D02*
X197311147Y-92357240D01*
X197311147Y-92357240D02*
X197358766Y-92452478D01*
X197358766Y-92452478D02*
X197406385Y-92500097D01*
X197406385Y-92500097D02*
X197501623Y-92547716D01*
X197501623Y-92547716D02*
X197692099Y-92547716D01*
X197692099Y-92547716D02*
X197787337Y-92500097D01*
X197787337Y-92500097D02*
X197834956Y-92452478D01*
X197834956Y-92452478D02*
X197882575Y-92357240D01*
X196358766Y-94523907D02*
X196406385Y-94476288D01*
X196406385Y-94476288D02*
X196501623Y-94428669D01*
X196501623Y-94428669D02*
X196739718Y-94428669D01*
X196739718Y-94428669D02*
X196834956Y-94476288D01*
X196834956Y-94476288D02*
X196882575Y-94523907D01*
X196882575Y-94523907D02*
X196930194Y-94619145D01*
X196930194Y-94619145D02*
X196930194Y-94714383D01*
X196930194Y-94714383D02*
X196882575Y-94857240D01*
X196882575Y-94857240D02*
X196311147Y-95428669D01*
X196311147Y-95428669D02*
X196930194Y-95428669D01*
X197501623Y-94857240D02*
X197406385Y-94809621D01*
X197406385Y-94809621D02*
X197358766Y-94762002D01*
X197358766Y-94762002D02*
X197311147Y-94666764D01*
X197311147Y-94666764D02*
X197311147Y-94619145D01*
X197311147Y-94619145D02*
X197358766Y-94523907D01*
X197358766Y-94523907D02*
X197406385Y-94476288D01*
X197406385Y-94476288D02*
X197501623Y-94428669D01*
X197501623Y-94428669D02*
X197692099Y-94428669D01*
X197692099Y-94428669D02*
X197787337Y-94476288D01*
X197787337Y-94476288D02*
X197834956Y-94523907D01*
X197834956Y-94523907D02*
X197882575Y-94619145D01*
X197882575Y-94619145D02*
X197882575Y-94666764D01*
X197882575Y-94666764D02*
X197834956Y-94762002D01*
X197834956Y-94762002D02*
X197787337Y-94809621D01*
X197787337Y-94809621D02*
X197692099Y-94857240D01*
X197692099Y-94857240D02*
X197501623Y-94857240D01*
X197501623Y-94857240D02*
X197406385Y-94904859D01*
X197406385Y-94904859D02*
X197358766Y-94952478D01*
X197358766Y-94952478D02*
X197311147Y-95047716D01*
X197311147Y-95047716D02*
X197311147Y-95238192D01*
X197311147Y-95238192D02*
X197358766Y-95333430D01*
X197358766Y-95333430D02*
X197406385Y-95381050D01*
X197406385Y-95381050D02*
X197501623Y-95428669D01*
X197501623Y-95428669D02*
X197692099Y-95428669D01*
X197692099Y-95428669D02*
X197787337Y-95381050D01*
X197787337Y-95381050D02*
X197834956Y-95333430D01*
X197834956Y-95333430D02*
X197882575Y-95238192D01*
X197882575Y-95238192D02*
X197882575Y-95047716D01*
X197882575Y-95047716D02*
X197834956Y-94952478D01*
X197834956Y-94952478D02*
X197787337Y-94904859D01*
X197787337Y-94904859D02*
X197692099Y-94857240D01*
X196358766Y-102023907D02*
X196406385Y-101976288D01*
X196406385Y-101976288D02*
X196501623Y-101928669D01*
X196501623Y-101928669D02*
X196739718Y-101928669D01*
X196739718Y-101928669D02*
X196834956Y-101976288D01*
X196834956Y-101976288D02*
X196882575Y-102023907D01*
X196882575Y-102023907D02*
X196930194Y-102119145D01*
X196930194Y-102119145D02*
X196930194Y-102214383D01*
X196930194Y-102214383D02*
X196882575Y-102357240D01*
X196882575Y-102357240D02*
X196311147Y-102928669D01*
X196311147Y-102928669D02*
X196930194Y-102928669D01*
X197311147Y-102023907D02*
X197358766Y-101976288D01*
X197358766Y-101976288D02*
X197454004Y-101928669D01*
X197454004Y-101928669D02*
X197692099Y-101928669D01*
X197692099Y-101928669D02*
X197787337Y-101976288D01*
X197787337Y-101976288D02*
X197834956Y-102023907D01*
X197834956Y-102023907D02*
X197882575Y-102119145D01*
X197882575Y-102119145D02*
X197882575Y-102214383D01*
X197882575Y-102214383D02*
X197834956Y-102357240D01*
X197834956Y-102357240D02*
X197263528Y-102928669D01*
X197263528Y-102928669D02*
X197882575Y-102928669D01*
X196358766Y-104523907D02*
X196406385Y-104476288D01*
X196406385Y-104476288D02*
X196501623Y-104428669D01*
X196501623Y-104428669D02*
X196739718Y-104428669D01*
X196739718Y-104428669D02*
X196834956Y-104476288D01*
X196834956Y-104476288D02*
X196882575Y-104523907D01*
X196882575Y-104523907D02*
X196930194Y-104619145D01*
X196930194Y-104619145D02*
X196930194Y-104714383D01*
X196930194Y-104714383D02*
X196882575Y-104857240D01*
X196882575Y-104857240D02*
X196311147Y-105428669D01*
X196311147Y-105428669D02*
X196930194Y-105428669D01*
X197549242Y-104428669D02*
X197644480Y-104428669D01*
X197644480Y-104428669D02*
X197739718Y-104476288D01*
X197739718Y-104476288D02*
X197787337Y-104523907D01*
X197787337Y-104523907D02*
X197834956Y-104619145D01*
X197834956Y-104619145D02*
X197882575Y-104809621D01*
X197882575Y-104809621D02*
X197882575Y-105047716D01*
X197882575Y-105047716D02*
X197834956Y-105238192D01*
X197834956Y-105238192D02*
X197787337Y-105333430D01*
X197787337Y-105333430D02*
X197739718Y-105381050D01*
X197739718Y-105381050D02*
X197644480Y-105428669D01*
X197644480Y-105428669D02*
X197549242Y-105428669D01*
X197549242Y-105428669D02*
X197454004Y-105381050D01*
X197454004Y-105381050D02*
X197406385Y-105333430D01*
X197406385Y-105333430D02*
X197358766Y-105238192D01*
X197358766Y-105238192D02*
X197311147Y-105047716D01*
X197311147Y-105047716D02*
X197311147Y-104809621D01*
X197311147Y-104809621D02*
X197358766Y-104619145D01*
X197358766Y-104619145D02*
X197406385Y-104523907D01*
X197406385Y-104523907D02*
X197454004Y-104476288D01*
X197454004Y-104476288D02*
X197549242Y-104428669D01*
X176084956Y-96262002D02*
X176084956Y-96928669D01*
X175846861Y-95881050D02*
X175608766Y-96595335D01*
X175608766Y-96595335D02*
X176227813Y-96595335D01*
X175608766Y-91023907D02*
X175656385Y-90976288D01*
X175656385Y-90976288D02*
X175751623Y-90928669D01*
X175751623Y-90928669D02*
X175989718Y-90928669D01*
X175989718Y-90928669D02*
X176084956Y-90976288D01*
X176084956Y-90976288D02*
X176132575Y-91023907D01*
X176132575Y-91023907D02*
X176180194Y-91119145D01*
X176180194Y-91119145D02*
X176180194Y-91214383D01*
X176180194Y-91214383D02*
X176132575Y-91357240D01*
X176132575Y-91357240D02*
X175561147Y-91928669D01*
X175561147Y-91928669D02*
X176180194Y-91928669D01*
X175704004Y-109928669D02*
X175894480Y-109928669D01*
X175894480Y-109928669D02*
X175989718Y-109881050D01*
X175989718Y-109881050D02*
X176037337Y-109833430D01*
X176037337Y-109833430D02*
X176132575Y-109690573D01*
X176132575Y-109690573D02*
X176180194Y-109500097D01*
X176180194Y-109500097D02*
X176180194Y-109119145D01*
X176180194Y-109119145D02*
X176132575Y-109023907D01*
X176132575Y-109023907D02*
X176084956Y-108976288D01*
X176084956Y-108976288D02*
X175989718Y-108928669D01*
X175989718Y-108928669D02*
X175799242Y-108928669D01*
X175799242Y-108928669D02*
X175704004Y-108976288D01*
X175704004Y-108976288D02*
X175656385Y-109023907D01*
X175656385Y-109023907D02*
X175608766Y-109119145D01*
X175608766Y-109119145D02*
X175608766Y-109357240D01*
X175608766Y-109357240D02*
X175656385Y-109452478D01*
X175656385Y-109452478D02*
X175704004Y-109500097D01*
X175704004Y-109500097D02*
X175799242Y-109547716D01*
X175799242Y-109547716D02*
X175989718Y-109547716D01*
X175989718Y-109547716D02*
X176084956Y-109500097D01*
X176084956Y-109500097D02*
X176132575Y-109452478D01*
X176132575Y-109452478D02*
X176180194Y-109357240D01*
X176132575Y-98678669D02*
X175656385Y-98678669D01*
X175656385Y-98678669D02*
X175608766Y-99154859D01*
X175608766Y-99154859D02*
X175656385Y-99107240D01*
X175656385Y-99107240D02*
X175751623Y-99059621D01*
X175751623Y-99059621D02*
X175989718Y-99059621D01*
X175989718Y-99059621D02*
X176084956Y-99107240D01*
X176084956Y-99107240D02*
X176132575Y-99154859D01*
X176132575Y-99154859D02*
X176180194Y-99250097D01*
X176180194Y-99250097D02*
X176180194Y-99488192D01*
X176180194Y-99488192D02*
X176132575Y-99583430D01*
X176132575Y-99583430D02*
X176084956Y-99631050D01*
X176084956Y-99631050D02*
X175989718Y-99678669D01*
X175989718Y-99678669D02*
X175751623Y-99678669D01*
X175751623Y-99678669D02*
X175656385Y-99631050D01*
X175656385Y-99631050D02*
X175608766Y-99583430D01*
X176084956Y-101178669D02*
X175894480Y-101178669D01*
X175894480Y-101178669D02*
X175799242Y-101226288D01*
X175799242Y-101226288D02*
X175751623Y-101273907D01*
X175751623Y-101273907D02*
X175656385Y-101416764D01*
X175656385Y-101416764D02*
X175608766Y-101607240D01*
X175608766Y-101607240D02*
X175608766Y-101988192D01*
X175608766Y-101988192D02*
X175656385Y-102083430D01*
X175656385Y-102083430D02*
X175704004Y-102131050D01*
X175704004Y-102131050D02*
X175799242Y-102178669D01*
X175799242Y-102178669D02*
X175989718Y-102178669D01*
X175989718Y-102178669D02*
X176084956Y-102131050D01*
X176084956Y-102131050D02*
X176132575Y-102083430D01*
X176132575Y-102083430D02*
X176180194Y-101988192D01*
X176180194Y-101988192D02*
X176180194Y-101750097D01*
X176180194Y-101750097D02*
X176132575Y-101654859D01*
X176132575Y-101654859D02*
X176084956Y-101607240D01*
X176084956Y-101607240D02*
X175989718Y-101559621D01*
X175989718Y-101559621D02*
X175799242Y-101559621D01*
X175799242Y-101559621D02*
X175704004Y-101607240D01*
X175704004Y-101607240D02*
X175656385Y-101654859D01*
X175656385Y-101654859D02*
X175608766Y-101750097D01*
X175561147Y-103428669D02*
X176227813Y-103428669D01*
X176227813Y-103428669D02*
X175799242Y-104428669D01*
X175561147Y-93428669D02*
X176180194Y-93428669D01*
X176180194Y-93428669D02*
X175846861Y-93809621D01*
X175846861Y-93809621D02*
X175989718Y-93809621D01*
X175989718Y-93809621D02*
X176084956Y-93857240D01*
X176084956Y-93857240D02*
X176132575Y-93904859D01*
X176132575Y-93904859D02*
X176180194Y-94000097D01*
X176180194Y-94000097D02*
X176180194Y-94238192D01*
X176180194Y-94238192D02*
X176132575Y-94333430D01*
X176132575Y-94333430D02*
X176084956Y-94381050D01*
X176084956Y-94381050D02*
X175989718Y-94428669D01*
X175989718Y-94428669D02*
X175704004Y-94428669D01*
X175704004Y-94428669D02*
X175608766Y-94381050D01*
X175608766Y-94381050D02*
X175561147Y-94333430D01*
X175799242Y-106607240D02*
X175704004Y-106559621D01*
X175704004Y-106559621D02*
X175656385Y-106512002D01*
X175656385Y-106512002D02*
X175608766Y-106416764D01*
X175608766Y-106416764D02*
X175608766Y-106369145D01*
X175608766Y-106369145D02*
X175656385Y-106273907D01*
X175656385Y-106273907D02*
X175704004Y-106226288D01*
X175704004Y-106226288D02*
X175799242Y-106178669D01*
X175799242Y-106178669D02*
X175989718Y-106178669D01*
X175989718Y-106178669D02*
X176084956Y-106226288D01*
X176084956Y-106226288D02*
X176132575Y-106273907D01*
X176132575Y-106273907D02*
X176180194Y-106369145D01*
X176180194Y-106369145D02*
X176180194Y-106416764D01*
X176180194Y-106416764D02*
X176132575Y-106512002D01*
X176132575Y-106512002D02*
X176084956Y-106559621D01*
X176084956Y-106559621D02*
X175989718Y-106607240D01*
X175989718Y-106607240D02*
X175799242Y-106607240D01*
X175799242Y-106607240D02*
X175704004Y-106654859D01*
X175704004Y-106654859D02*
X175656385Y-106702478D01*
X175656385Y-106702478D02*
X175608766Y-106797716D01*
X175608766Y-106797716D02*
X175608766Y-106988192D01*
X175608766Y-106988192D02*
X175656385Y-107083430D01*
X175656385Y-107083430D02*
X175704004Y-107131050D01*
X175704004Y-107131050D02*
X175799242Y-107178669D01*
X175799242Y-107178669D02*
X175989718Y-107178669D01*
X175989718Y-107178669D02*
X176084956Y-107131050D01*
X176084956Y-107131050D02*
X176132575Y-107083430D01*
X176132575Y-107083430D02*
X176180194Y-106988192D01*
X176180194Y-106988192D02*
X176180194Y-106797716D01*
X176180194Y-106797716D02*
X176132575Y-106702478D01*
X176132575Y-106702478D02*
X176084956Y-106654859D01*
X176084956Y-106654859D02*
X175989718Y-106607240D01*
X173477813Y-89583430D02*
X173430194Y-89631050D01*
X173430194Y-89631050D02*
X173287337Y-89678669D01*
X173287337Y-89678669D02*
X173192099Y-89678669D01*
X173192099Y-89678669D02*
X173049242Y-89631050D01*
X173049242Y-89631050D02*
X172954004Y-89535811D01*
X172954004Y-89535811D02*
X172906385Y-89440573D01*
X172906385Y-89440573D02*
X172858766Y-89250097D01*
X172858766Y-89250097D02*
X172858766Y-89107240D01*
X172858766Y-89107240D02*
X172906385Y-88916764D01*
X172906385Y-88916764D02*
X172954004Y-88821526D01*
X172954004Y-88821526D02*
X173049242Y-88726288D01*
X173049242Y-88726288D02*
X173192099Y-88678669D01*
X173192099Y-88678669D02*
X173287337Y-88678669D01*
X173287337Y-88678669D02*
X173430194Y-88726288D01*
X173430194Y-88726288D02*
X173477813Y-88773907D01*
X174049242Y-89678669D02*
X173954004Y-89631050D01*
X173954004Y-89631050D02*
X173906385Y-89583430D01*
X173906385Y-89583430D02*
X173858766Y-89488192D01*
X173858766Y-89488192D02*
X173858766Y-89202478D01*
X173858766Y-89202478D02*
X173906385Y-89107240D01*
X173906385Y-89107240D02*
X173954004Y-89059621D01*
X173954004Y-89059621D02*
X174049242Y-89012002D01*
X174049242Y-89012002D02*
X174192099Y-89012002D01*
X174192099Y-89012002D02*
X174287337Y-89059621D01*
X174287337Y-89059621D02*
X174334956Y-89107240D01*
X174334956Y-89107240D02*
X174382575Y-89202478D01*
X174382575Y-89202478D02*
X174382575Y-89488192D01*
X174382575Y-89488192D02*
X174334956Y-89583430D01*
X174334956Y-89583430D02*
X174287337Y-89631050D01*
X174287337Y-89631050D02*
X174192099Y-89678669D01*
X174192099Y-89678669D02*
X174049242Y-89678669D01*
X174954004Y-89678669D02*
X174858766Y-89631050D01*
X174858766Y-89631050D02*
X174811147Y-89535811D01*
X174811147Y-89535811D02*
X174811147Y-88678669D01*
X175287338Y-89631050D02*
X175382576Y-89678669D01*
X175382576Y-89678669D02*
X175573052Y-89678669D01*
X175573052Y-89678669D02*
X175668290Y-89631050D01*
X175668290Y-89631050D02*
X175715909Y-89535811D01*
X175715909Y-89535811D02*
X175715909Y-89488192D01*
X175715909Y-89488192D02*
X175668290Y-89392954D01*
X175668290Y-89392954D02*
X175573052Y-89345335D01*
X175573052Y-89345335D02*
X175430195Y-89345335D01*
X175430195Y-89345335D02*
X175334957Y-89297716D01*
X175334957Y-89297716D02*
X175287338Y-89202478D01*
X175287338Y-89202478D02*
X175287338Y-89154859D01*
X175287338Y-89154859D02*
X175334957Y-89059621D01*
X175334957Y-89059621D02*
X175430195Y-89012002D01*
X175430195Y-89012002D02*
X175573052Y-89012002D01*
X175573052Y-89012002D02*
X175668290Y-89059621D01*
X86477813Y-89583430D02*
X86430194Y-89631050D01*
X86430194Y-89631050D02*
X86287337Y-89678669D01*
X86287337Y-89678669D02*
X86192099Y-89678669D01*
X86192099Y-89678669D02*
X86049242Y-89631050D01*
X86049242Y-89631050D02*
X85954004Y-89535811D01*
X85954004Y-89535811D02*
X85906385Y-89440573D01*
X85906385Y-89440573D02*
X85858766Y-89250097D01*
X85858766Y-89250097D02*
X85858766Y-89107240D01*
X85858766Y-89107240D02*
X85906385Y-88916764D01*
X85906385Y-88916764D02*
X85954004Y-88821526D01*
X85954004Y-88821526D02*
X86049242Y-88726288D01*
X86049242Y-88726288D02*
X86192099Y-88678669D01*
X86192099Y-88678669D02*
X86287337Y-88678669D01*
X86287337Y-88678669D02*
X86430194Y-88726288D01*
X86430194Y-88726288D02*
X86477813Y-88773907D01*
X87049242Y-89678669D02*
X86954004Y-89631050D01*
X86954004Y-89631050D02*
X86906385Y-89583430D01*
X86906385Y-89583430D02*
X86858766Y-89488192D01*
X86858766Y-89488192D02*
X86858766Y-89202478D01*
X86858766Y-89202478D02*
X86906385Y-89107240D01*
X86906385Y-89107240D02*
X86954004Y-89059621D01*
X86954004Y-89059621D02*
X87049242Y-89012002D01*
X87049242Y-89012002D02*
X87192099Y-89012002D01*
X87192099Y-89012002D02*
X87287337Y-89059621D01*
X87287337Y-89059621D02*
X87334956Y-89107240D01*
X87334956Y-89107240D02*
X87382575Y-89202478D01*
X87382575Y-89202478D02*
X87382575Y-89488192D01*
X87382575Y-89488192D02*
X87334956Y-89583430D01*
X87334956Y-89583430D02*
X87287337Y-89631050D01*
X87287337Y-89631050D02*
X87192099Y-89678669D01*
X87192099Y-89678669D02*
X87049242Y-89678669D01*
X87954004Y-89678669D02*
X87858766Y-89631050D01*
X87858766Y-89631050D02*
X87811147Y-89535811D01*
X87811147Y-89535811D02*
X87811147Y-88678669D01*
X88287338Y-89631050D02*
X88382576Y-89678669D01*
X88382576Y-89678669D02*
X88573052Y-89678669D01*
X88573052Y-89678669D02*
X88668290Y-89631050D01*
X88668290Y-89631050D02*
X88715909Y-89535811D01*
X88715909Y-89535811D02*
X88715909Y-89488192D01*
X88715909Y-89488192D02*
X88668290Y-89392954D01*
X88668290Y-89392954D02*
X88573052Y-89345335D01*
X88573052Y-89345335D02*
X88430195Y-89345335D01*
X88430195Y-89345335D02*
X88334957Y-89297716D01*
X88334957Y-89297716D02*
X88287338Y-89202478D01*
X88287338Y-89202478D02*
X88287338Y-89154859D01*
X88287338Y-89154859D02*
X88334957Y-89059621D01*
X88334957Y-89059621D02*
X88430195Y-89012002D01*
X88430195Y-89012002D02*
X88573052Y-89012002D01*
X88573052Y-89012002D02*
X88668290Y-89059621D01*
X110108766Y-102773907D02*
X110156385Y-102726288D01*
X110156385Y-102726288D02*
X110251623Y-102678669D01*
X110251623Y-102678669D02*
X110489718Y-102678669D01*
X110489718Y-102678669D02*
X110584956Y-102726288D01*
X110584956Y-102726288D02*
X110632575Y-102773907D01*
X110632575Y-102773907D02*
X110680194Y-102869145D01*
X110680194Y-102869145D02*
X110680194Y-102964383D01*
X110680194Y-102964383D02*
X110632575Y-103107240D01*
X110632575Y-103107240D02*
X110061147Y-103678669D01*
X110061147Y-103678669D02*
X110680194Y-103678669D01*
X111299242Y-102678669D02*
X111394480Y-102678669D01*
X111394480Y-102678669D02*
X111489718Y-102726288D01*
X111489718Y-102726288D02*
X111537337Y-102773907D01*
X111537337Y-102773907D02*
X111584956Y-102869145D01*
X111584956Y-102869145D02*
X111632575Y-103059621D01*
X111632575Y-103059621D02*
X111632575Y-103297716D01*
X111632575Y-103297716D02*
X111584956Y-103488192D01*
X111584956Y-103488192D02*
X111537337Y-103583430D01*
X111537337Y-103583430D02*
X111489718Y-103631050D01*
X111489718Y-103631050D02*
X111394480Y-103678669D01*
X111394480Y-103678669D02*
X111299242Y-103678669D01*
X111299242Y-103678669D02*
X111204004Y-103631050D01*
X111204004Y-103631050D02*
X111156385Y-103583430D01*
X111156385Y-103583430D02*
X111108766Y-103488192D01*
X111108766Y-103488192D02*
X111061147Y-103297716D01*
X111061147Y-103297716D02*
X111061147Y-103059621D01*
X111061147Y-103059621D02*
X111108766Y-102869145D01*
X111108766Y-102869145D02*
X111156385Y-102773907D01*
X111156385Y-102773907D02*
X111204004Y-102726288D01*
X111204004Y-102726288D02*
X111299242Y-102678669D01*
X110108766Y-100273907D02*
X110156385Y-100226288D01*
X110156385Y-100226288D02*
X110251623Y-100178669D01*
X110251623Y-100178669D02*
X110489718Y-100178669D01*
X110489718Y-100178669D02*
X110584956Y-100226288D01*
X110584956Y-100226288D02*
X110632575Y-100273907D01*
X110632575Y-100273907D02*
X110680194Y-100369145D01*
X110680194Y-100369145D02*
X110680194Y-100464383D01*
X110680194Y-100464383D02*
X110632575Y-100607240D01*
X110632575Y-100607240D02*
X110061147Y-101178669D01*
X110061147Y-101178669D02*
X110680194Y-101178669D01*
X111061147Y-100273907D02*
X111108766Y-100226288D01*
X111108766Y-100226288D02*
X111204004Y-100178669D01*
X111204004Y-100178669D02*
X111442099Y-100178669D01*
X111442099Y-100178669D02*
X111537337Y-100226288D01*
X111537337Y-100226288D02*
X111584956Y-100273907D01*
X111584956Y-100273907D02*
X111632575Y-100369145D01*
X111632575Y-100369145D02*
X111632575Y-100464383D01*
X111632575Y-100464383D02*
X111584956Y-100607240D01*
X111584956Y-100607240D02*
X111013528Y-101178669D01*
X111013528Y-101178669D02*
X111632575Y-101178669D01*
X89799242Y-105107240D02*
X89704004Y-105059621D01*
X89704004Y-105059621D02*
X89656385Y-105012002D01*
X89656385Y-105012002D02*
X89608766Y-104916764D01*
X89608766Y-104916764D02*
X89608766Y-104869145D01*
X89608766Y-104869145D02*
X89656385Y-104773907D01*
X89656385Y-104773907D02*
X89704004Y-104726288D01*
X89704004Y-104726288D02*
X89799242Y-104678669D01*
X89799242Y-104678669D02*
X89989718Y-104678669D01*
X89989718Y-104678669D02*
X90084956Y-104726288D01*
X90084956Y-104726288D02*
X90132575Y-104773907D01*
X90132575Y-104773907D02*
X90180194Y-104869145D01*
X90180194Y-104869145D02*
X90180194Y-104916764D01*
X90180194Y-104916764D02*
X90132575Y-105012002D01*
X90132575Y-105012002D02*
X90084956Y-105059621D01*
X90084956Y-105059621D02*
X89989718Y-105107240D01*
X89989718Y-105107240D02*
X89799242Y-105107240D01*
X89799242Y-105107240D02*
X89704004Y-105154859D01*
X89704004Y-105154859D02*
X89656385Y-105202478D01*
X89656385Y-105202478D02*
X89608766Y-105297716D01*
X89608766Y-105297716D02*
X89608766Y-105488192D01*
X89608766Y-105488192D02*
X89656385Y-105583430D01*
X89656385Y-105583430D02*
X89704004Y-105631050D01*
X89704004Y-105631050D02*
X89799242Y-105678669D01*
X89799242Y-105678669D02*
X89989718Y-105678669D01*
X89989718Y-105678669D02*
X90084956Y-105631050D01*
X90084956Y-105631050D02*
X90132575Y-105583430D01*
X90132575Y-105583430D02*
X90180194Y-105488192D01*
X90180194Y-105488192D02*
X90180194Y-105297716D01*
X90180194Y-105297716D02*
X90132575Y-105202478D01*
X90132575Y-105202478D02*
X90084956Y-105154859D01*
X90084956Y-105154859D02*
X89989718Y-105107240D01*
X89561147Y-91928669D02*
X90180194Y-91928669D01*
X90180194Y-91928669D02*
X89846861Y-92309621D01*
X89846861Y-92309621D02*
X89989718Y-92309621D01*
X89989718Y-92309621D02*
X90084956Y-92357240D01*
X90084956Y-92357240D02*
X90132575Y-92404859D01*
X90132575Y-92404859D02*
X90180194Y-92500097D01*
X90180194Y-92500097D02*
X90180194Y-92738192D01*
X90180194Y-92738192D02*
X90132575Y-92833430D01*
X90132575Y-92833430D02*
X90084956Y-92881050D01*
X90084956Y-92881050D02*
X89989718Y-92928669D01*
X89989718Y-92928669D02*
X89704004Y-92928669D01*
X89704004Y-92928669D02*
X89608766Y-92881050D01*
X89608766Y-92881050D02*
X89561147Y-92833430D01*
D11*
X118293602Y-88423469D02*
X117960269Y-87947278D01*
X117722174Y-88423469D02*
X117722174Y-87423469D01*
X117722174Y-87423469D02*
X118103126Y-87423469D01*
X118103126Y-87423469D02*
X118198364Y-87471088D01*
X118198364Y-87471088D02*
X118245983Y-87518707D01*
X118245983Y-87518707D02*
X118293602Y-87613945D01*
X118293602Y-87613945D02*
X118293602Y-87756802D01*
X118293602Y-87756802D02*
X118245983Y-87852040D01*
X118245983Y-87852040D02*
X118198364Y-87899659D01*
X118198364Y-87899659D02*
X118103126Y-87947278D01*
X118103126Y-87947278D02*
X117722174Y-87947278D01*
D10*
X110108766Y-92773907D02*
X110156385Y-92726288D01*
X110156385Y-92726288D02*
X110251623Y-92678669D01*
X110251623Y-92678669D02*
X110489718Y-92678669D01*
X110489718Y-92678669D02*
X110584956Y-92726288D01*
X110584956Y-92726288D02*
X110632575Y-92773907D01*
X110632575Y-92773907D02*
X110680194Y-92869145D01*
X110680194Y-92869145D02*
X110680194Y-92964383D01*
X110680194Y-92964383D02*
X110632575Y-93107240D01*
X110632575Y-93107240D02*
X110061147Y-93678669D01*
X110061147Y-93678669D02*
X110680194Y-93678669D01*
X111251623Y-93107240D02*
X111156385Y-93059621D01*
X111156385Y-93059621D02*
X111108766Y-93012002D01*
X111108766Y-93012002D02*
X111061147Y-92916764D01*
X111061147Y-92916764D02*
X111061147Y-92869145D01*
X111061147Y-92869145D02*
X111108766Y-92773907D01*
X111108766Y-92773907D02*
X111156385Y-92726288D01*
X111156385Y-92726288D02*
X111251623Y-92678669D01*
X111251623Y-92678669D02*
X111442099Y-92678669D01*
X111442099Y-92678669D02*
X111537337Y-92726288D01*
X111537337Y-92726288D02*
X111584956Y-92773907D01*
X111584956Y-92773907D02*
X111632575Y-92869145D01*
X111632575Y-92869145D02*
X111632575Y-92916764D01*
X111632575Y-92916764D02*
X111584956Y-93012002D01*
X111584956Y-93012002D02*
X111537337Y-93059621D01*
X111537337Y-93059621D02*
X111442099Y-93107240D01*
X111442099Y-93107240D02*
X111251623Y-93107240D01*
X111251623Y-93107240D02*
X111156385Y-93154859D01*
X111156385Y-93154859D02*
X111108766Y-93202478D01*
X111108766Y-93202478D02*
X111061147Y-93297716D01*
X111061147Y-93297716D02*
X111061147Y-93488192D01*
X111061147Y-93488192D02*
X111108766Y-93583430D01*
X111108766Y-93583430D02*
X111156385Y-93631050D01*
X111156385Y-93631050D02*
X111251623Y-93678669D01*
X111251623Y-93678669D02*
X111442099Y-93678669D01*
X111442099Y-93678669D02*
X111537337Y-93631050D01*
X111537337Y-93631050D02*
X111584956Y-93583430D01*
X111584956Y-93583430D02*
X111632575Y-93488192D01*
X111632575Y-93488192D02*
X111632575Y-93297716D01*
X111632575Y-93297716D02*
X111584956Y-93202478D01*
X111584956Y-93202478D02*
X111537337Y-93154859D01*
X111537337Y-93154859D02*
X111442099Y-93107240D01*
D12*
X169208872Y-81262076D02*
X169256491Y-81214457D01*
X169256491Y-81214457D02*
X169304110Y-81119219D01*
X169304110Y-81119219D02*
X169304110Y-81023981D01*
X169304110Y-81023981D02*
X169256491Y-80928743D01*
X169256491Y-80928743D02*
X169208872Y-80881124D01*
X169208872Y-80881124D02*
X169113634Y-80833505D01*
X169113634Y-80833505D02*
X169018396Y-80833505D01*
X169018396Y-80833505D02*
X168923158Y-80881124D01*
X168923158Y-80881124D02*
X168875539Y-80928743D01*
X168875539Y-80928743D02*
X168827920Y-81023981D01*
X168827920Y-81023981D02*
X168827920Y-81119219D01*
X168827920Y-81119219D02*
X168875539Y-81214457D01*
X168875539Y-81214457D02*
X168923158Y-81262076D01*
X169304110Y-81262076D02*
X168923158Y-81262076D01*
X168923158Y-81262076D02*
X168875539Y-81309695D01*
X168875539Y-81309695D02*
X168875539Y-81357314D01*
X168875539Y-81357314D02*
X168923158Y-81452553D01*
X168923158Y-81452553D02*
X169018396Y-81500172D01*
X169018396Y-81500172D02*
X169256491Y-81500172D01*
X169256491Y-81500172D02*
X169399348Y-81404934D01*
X169399348Y-81404934D02*
X169494586Y-81262076D01*
X169494586Y-81262076D02*
X169542205Y-81071600D01*
X169542205Y-81071600D02*
X169494586Y-80881124D01*
X169494586Y-80881124D02*
X169399348Y-80738267D01*
X169399348Y-80738267D02*
X169256491Y-80643029D01*
X169256491Y-80643029D02*
X169066015Y-80595410D01*
X169066015Y-80595410D02*
X168875539Y-80643029D01*
X168875539Y-80643029D02*
X168732681Y-80738267D01*
X168732681Y-80738267D02*
X168637443Y-80881124D01*
X168637443Y-80881124D02*
X168589824Y-81071600D01*
X168589824Y-81071600D02*
X168637443Y-81262076D01*
X168637443Y-81262076D02*
X168732681Y-81404934D01*
X168780301Y-82309695D02*
X168732681Y-82214457D01*
X168732681Y-82214457D02*
X168732681Y-82023981D01*
X168732681Y-82023981D02*
X168780301Y-81928743D01*
X168780301Y-81928743D02*
X168875539Y-81881124D01*
X168875539Y-81881124D02*
X169256491Y-81881124D01*
X169256491Y-81881124D02*
X169351729Y-81928743D01*
X169351729Y-81928743D02*
X169399348Y-82023981D01*
X169399348Y-82023981D02*
X169399348Y-82214457D01*
X169399348Y-82214457D02*
X169351729Y-82309695D01*
X169351729Y-82309695D02*
X169256491Y-82357314D01*
X169256491Y-82357314D02*
X169161253Y-82357314D01*
X169161253Y-82357314D02*
X169066015Y-81881124D01*
X168780301Y-82738267D02*
X168732681Y-82833505D01*
X168732681Y-82833505D02*
X168732681Y-83023981D01*
X168732681Y-83023981D02*
X168780301Y-83119219D01*
X168780301Y-83119219D02*
X168875539Y-83166838D01*
X168875539Y-83166838D02*
X168923158Y-83166838D01*
X168923158Y-83166838D02*
X169018396Y-83119219D01*
X169018396Y-83119219D02*
X169066015Y-83023981D01*
X169066015Y-83023981D02*
X169066015Y-82881124D01*
X169066015Y-82881124D02*
X169113634Y-82785886D01*
X169113634Y-82785886D02*
X169208872Y-82738267D01*
X169208872Y-82738267D02*
X169256491Y-82738267D01*
X169256491Y-82738267D02*
X169351729Y-82785886D01*
X169351729Y-82785886D02*
X169399348Y-82881124D01*
X169399348Y-82881124D02*
X169399348Y-83023981D01*
X169399348Y-83023981D02*
X169351729Y-83119219D01*
X169399348Y-83452553D02*
X169399348Y-83833505D01*
X169732681Y-83595410D02*
X168875539Y-83595410D01*
X168875539Y-83595410D02*
X168780301Y-83643029D01*
X168780301Y-83643029D02*
X168732681Y-83738267D01*
X168732681Y-83738267D02*
X168732681Y-83833505D01*
X168732681Y-84071601D02*
X169399348Y-84595410D01*
X169399348Y-84071601D02*
X168732681Y-84595410D01*
X169399348Y-85404934D02*
X168732681Y-85404934D01*
X169399348Y-84976363D02*
X168875539Y-84976363D01*
X168875539Y-84976363D02*
X168780301Y-85023982D01*
X168780301Y-85023982D02*
X168732681Y-85119220D01*
X168732681Y-85119220D02*
X168732681Y-85262077D01*
X168732681Y-85262077D02*
X168780301Y-85357315D01*
X168780301Y-85357315D02*
X168827920Y-85404934D01*
X168780301Y-85833506D02*
X168732681Y-85928744D01*
X168732681Y-85928744D02*
X168732681Y-86119220D01*
X168732681Y-86119220D02*
X168780301Y-86214458D01*
X168780301Y-86214458D02*
X168875539Y-86262077D01*
X168875539Y-86262077D02*
X168923158Y-86262077D01*
X168923158Y-86262077D02*
X169018396Y-86214458D01*
X169018396Y-86214458D02*
X169066015Y-86119220D01*
X169066015Y-86119220D02*
X169066015Y-85976363D01*
X169066015Y-85976363D02*
X169113634Y-85881125D01*
X169113634Y-85881125D02*
X169208872Y-85833506D01*
X169208872Y-85833506D02*
X169256491Y-85833506D01*
X169256491Y-85833506D02*
X169351729Y-85881125D01*
X169351729Y-85881125D02*
X169399348Y-85976363D01*
X169399348Y-85976363D02*
X169399348Y-86119220D01*
X169399348Y-86119220D02*
X169351729Y-86214458D01*
X168780301Y-86643030D02*
X168732681Y-86738268D01*
X168732681Y-86738268D02*
X168732681Y-86928744D01*
X168732681Y-86928744D02*
X168780301Y-87023982D01*
X168780301Y-87023982D02*
X168875539Y-87071601D01*
X168875539Y-87071601D02*
X168923158Y-87071601D01*
X168923158Y-87071601D02*
X169018396Y-87023982D01*
X169018396Y-87023982D02*
X169066015Y-86928744D01*
X169066015Y-86928744D02*
X169066015Y-86785887D01*
X169066015Y-86785887D02*
X169113634Y-86690649D01*
X169113634Y-86690649D02*
X169208872Y-86643030D01*
X169208872Y-86643030D02*
X169256491Y-86643030D01*
X169256491Y-86643030D02*
X169351729Y-86690649D01*
X169351729Y-86690649D02*
X169399348Y-86785887D01*
X169399348Y-86785887D02*
X169399348Y-86928744D01*
X169399348Y-86928744D02*
X169351729Y-87023982D01*
D10*
X110108766Y-90273907D02*
X110156385Y-90226288D01*
X110156385Y-90226288D02*
X110251623Y-90178669D01*
X110251623Y-90178669D02*
X110489718Y-90178669D01*
X110489718Y-90178669D02*
X110584956Y-90226288D01*
X110584956Y-90226288D02*
X110632575Y-90273907D01*
X110632575Y-90273907D02*
X110680194Y-90369145D01*
X110680194Y-90369145D02*
X110680194Y-90464383D01*
X110680194Y-90464383D02*
X110632575Y-90607240D01*
X110632575Y-90607240D02*
X110061147Y-91178669D01*
X110061147Y-91178669D02*
X110680194Y-91178669D01*
X111156385Y-91178669D02*
X111346861Y-91178669D01*
X111346861Y-91178669D02*
X111442099Y-91131050D01*
X111442099Y-91131050D02*
X111489718Y-91083430D01*
X111489718Y-91083430D02*
X111584956Y-90940573D01*
X111584956Y-90940573D02*
X111632575Y-90750097D01*
X111632575Y-90750097D02*
X111632575Y-90369145D01*
X111632575Y-90369145D02*
X111584956Y-90273907D01*
X111584956Y-90273907D02*
X111537337Y-90226288D01*
X111537337Y-90226288D02*
X111442099Y-90178669D01*
X111442099Y-90178669D02*
X111251623Y-90178669D01*
X111251623Y-90178669D02*
X111156385Y-90226288D01*
X111156385Y-90226288D02*
X111108766Y-90273907D01*
X111108766Y-90273907D02*
X111061147Y-90369145D01*
X111061147Y-90369145D02*
X111061147Y-90607240D01*
X111061147Y-90607240D02*
X111108766Y-90702478D01*
X111108766Y-90702478D02*
X111156385Y-90750097D01*
X111156385Y-90750097D02*
X111251623Y-90797716D01*
X111251623Y-90797716D02*
X111442099Y-90797716D01*
X111442099Y-90797716D02*
X111537337Y-90750097D01*
X111537337Y-90750097D02*
X111584956Y-90702478D01*
X111584956Y-90702478D02*
X111632575Y-90607240D01*
D11*
X94495983Y-74221088D02*
X94400745Y-74173469D01*
X94400745Y-74173469D02*
X94257888Y-74173469D01*
X94257888Y-74173469D02*
X94115031Y-74221088D01*
X94115031Y-74221088D02*
X94019793Y-74316326D01*
X94019793Y-74316326D02*
X93972174Y-74411564D01*
X93972174Y-74411564D02*
X93924555Y-74602040D01*
X93924555Y-74602040D02*
X93924555Y-74744897D01*
X93924555Y-74744897D02*
X93972174Y-74935373D01*
X93972174Y-74935373D02*
X94019793Y-75030611D01*
X94019793Y-75030611D02*
X94115031Y-75125850D01*
X94115031Y-75125850D02*
X94257888Y-75173469D01*
X94257888Y-75173469D02*
X94353126Y-75173469D01*
X94353126Y-75173469D02*
X94495983Y-75125850D01*
X94495983Y-75125850D02*
X94543602Y-75078230D01*
X94543602Y-75078230D02*
X94543602Y-74744897D01*
X94543602Y-74744897D02*
X94353126Y-74744897D01*
X94972174Y-75173469D02*
X94972174Y-74173469D01*
X94972174Y-74173469D02*
X95353126Y-74173469D01*
X95353126Y-74173469D02*
X95448364Y-74221088D01*
X95448364Y-74221088D02*
X95495983Y-74268707D01*
X95495983Y-74268707D02*
X95543602Y-74363945D01*
X95543602Y-74363945D02*
X95543602Y-74506802D01*
X95543602Y-74506802D02*
X95495983Y-74602040D01*
X95495983Y-74602040D02*
X95448364Y-74649659D01*
X95448364Y-74649659D02*
X95353126Y-74697278D01*
X95353126Y-74697278D02*
X94972174Y-74697278D01*
X96495983Y-75173469D02*
X95924555Y-75173469D01*
X96210269Y-75173469D02*
X96210269Y-74173469D01*
X96210269Y-74173469D02*
X96115031Y-74316326D01*
X96115031Y-74316326D02*
X96019793Y-74411564D01*
X96019793Y-74411564D02*
X95924555Y-74459183D01*
X97448364Y-75173469D02*
X96876936Y-75173469D01*
X97162650Y-75173469D02*
X97162650Y-74173469D01*
X97162650Y-74173469D02*
X97067412Y-74316326D01*
X97067412Y-74316326D02*
X96972174Y-74411564D01*
X96972174Y-74411564D02*
X96876936Y-74459183D01*
D10*
X89561147Y-101928669D02*
X90227813Y-101928669D01*
X90227813Y-101928669D02*
X89799242Y-102928669D01*
D12*
X117996129Y-85850423D02*
X117948510Y-85898042D01*
X117948510Y-85898042D02*
X117900891Y-85993280D01*
X117900891Y-85993280D02*
X117900891Y-86088518D01*
X117900891Y-86088518D02*
X117948510Y-86183756D01*
X117948510Y-86183756D02*
X117996129Y-86231375D01*
X117996129Y-86231375D02*
X118091367Y-86278994D01*
X118091367Y-86278994D02*
X118186605Y-86278994D01*
X118186605Y-86278994D02*
X118281843Y-86231375D01*
X118281843Y-86231375D02*
X118329462Y-86183756D01*
X118329462Y-86183756D02*
X118377081Y-86088518D01*
X118377081Y-86088518D02*
X118377081Y-85993280D01*
X118377081Y-85993280D02*
X118329462Y-85898042D01*
X118329462Y-85898042D02*
X118281843Y-85850423D01*
X117900891Y-85850423D02*
X118281843Y-85850423D01*
X118281843Y-85850423D02*
X118329462Y-85802804D01*
X118329462Y-85802804D02*
X118329462Y-85755185D01*
X118329462Y-85755185D02*
X118281843Y-85659946D01*
X118281843Y-85659946D02*
X118186605Y-85612327D01*
X118186605Y-85612327D02*
X117948510Y-85612327D01*
X117948510Y-85612327D02*
X117805653Y-85707566D01*
X117805653Y-85707566D02*
X117710415Y-85850423D01*
X117710415Y-85850423D02*
X117662796Y-86040899D01*
X117662796Y-86040899D02*
X117710415Y-86231375D01*
X117710415Y-86231375D02*
X117805653Y-86374232D01*
X117805653Y-86374232D02*
X117948510Y-86469470D01*
X117948510Y-86469470D02*
X118138986Y-86517089D01*
X118138986Y-86517089D02*
X118329462Y-86469470D01*
X118329462Y-86469470D02*
X118472320Y-86374232D01*
X118472320Y-86374232D02*
X118567558Y-86231375D01*
X118567558Y-86231375D02*
X118615177Y-86040899D01*
X118615177Y-86040899D02*
X118567558Y-85850423D01*
X118567558Y-85850423D02*
X118472320Y-85707566D01*
X118424701Y-84802804D02*
X118472320Y-84898042D01*
X118472320Y-84898042D02*
X118472320Y-85088518D01*
X118472320Y-85088518D02*
X118424701Y-85183756D01*
X118424701Y-85183756D02*
X118329462Y-85231375D01*
X118329462Y-85231375D02*
X117948510Y-85231375D01*
X117948510Y-85231375D02*
X117853272Y-85183756D01*
X117853272Y-85183756D02*
X117805653Y-85088518D01*
X117805653Y-85088518D02*
X117805653Y-84898042D01*
X117805653Y-84898042D02*
X117853272Y-84802804D01*
X117853272Y-84802804D02*
X117948510Y-84755185D01*
X117948510Y-84755185D02*
X118043748Y-84755185D01*
X118043748Y-84755185D02*
X118138986Y-85231375D01*
X118424701Y-84374232D02*
X118472320Y-84278994D01*
X118472320Y-84278994D02*
X118472320Y-84088518D01*
X118472320Y-84088518D02*
X118424701Y-83993280D01*
X118424701Y-83993280D02*
X118329462Y-83945661D01*
X118329462Y-83945661D02*
X118281843Y-83945661D01*
X118281843Y-83945661D02*
X118186605Y-83993280D01*
X118186605Y-83993280D02*
X118138986Y-84088518D01*
X118138986Y-84088518D02*
X118138986Y-84231375D01*
X118138986Y-84231375D02*
X118091367Y-84326613D01*
X118091367Y-84326613D02*
X117996129Y-84374232D01*
X117996129Y-84374232D02*
X117948510Y-84374232D01*
X117948510Y-84374232D02*
X117853272Y-84326613D01*
X117853272Y-84326613D02*
X117805653Y-84231375D01*
X117805653Y-84231375D02*
X117805653Y-84088518D01*
X117805653Y-84088518D02*
X117853272Y-83993280D01*
X117805653Y-83659946D02*
X117805653Y-83278994D01*
X117472320Y-83517089D02*
X118329462Y-83517089D01*
X118329462Y-83517089D02*
X118424701Y-83469470D01*
X118424701Y-83469470D02*
X118472320Y-83374232D01*
X118472320Y-83374232D02*
X118472320Y-83278994D01*
X118472320Y-83040898D02*
X117805653Y-82517089D01*
X117805653Y-83040898D02*
X118472320Y-82517089D01*
X117805653Y-81707565D02*
X118472320Y-81707565D01*
X117805653Y-82136136D02*
X118329462Y-82136136D01*
X118329462Y-82136136D02*
X118424701Y-82088517D01*
X118424701Y-82088517D02*
X118472320Y-81993279D01*
X118472320Y-81993279D02*
X118472320Y-81850422D01*
X118472320Y-81850422D02*
X118424701Y-81755184D01*
X118424701Y-81755184D02*
X118377081Y-81707565D01*
X118424701Y-81278993D02*
X118472320Y-81183755D01*
X118472320Y-81183755D02*
X118472320Y-80993279D01*
X118472320Y-80993279D02*
X118424701Y-80898041D01*
X118424701Y-80898041D02*
X118329462Y-80850422D01*
X118329462Y-80850422D02*
X118281843Y-80850422D01*
X118281843Y-80850422D02*
X118186605Y-80898041D01*
X118186605Y-80898041D02*
X118138986Y-80993279D01*
X118138986Y-80993279D02*
X118138986Y-81136136D01*
X118138986Y-81136136D02*
X118091367Y-81231374D01*
X118091367Y-81231374D02*
X117996129Y-81278993D01*
X117996129Y-81278993D02*
X117948510Y-81278993D01*
X117948510Y-81278993D02*
X117853272Y-81231374D01*
X117853272Y-81231374D02*
X117805653Y-81136136D01*
X117805653Y-81136136D02*
X117805653Y-80993279D01*
X117805653Y-80993279D02*
X117853272Y-80898041D01*
X118424701Y-80469469D02*
X118472320Y-80374231D01*
X118472320Y-80374231D02*
X118472320Y-80183755D01*
X118472320Y-80183755D02*
X118424701Y-80088517D01*
X118424701Y-80088517D02*
X118329462Y-80040898D01*
X118329462Y-80040898D02*
X118281843Y-80040898D01*
X118281843Y-80040898D02*
X118186605Y-80088517D01*
X118186605Y-80088517D02*
X118138986Y-80183755D01*
X118138986Y-80183755D02*
X118138986Y-80326612D01*
X118138986Y-80326612D02*
X118091367Y-80421850D01*
X118091367Y-80421850D02*
X117996129Y-80469469D01*
X117996129Y-80469469D02*
X117948510Y-80469469D01*
X117948510Y-80469469D02*
X117853272Y-80421850D01*
X117853272Y-80421850D02*
X117805653Y-80326612D01*
X117805653Y-80326612D02*
X117805653Y-80183755D01*
X117805653Y-80183755D02*
X117853272Y-80088517D01*
D10*
X198727813Y-90428669D02*
X198394480Y-89952478D01*
X198156385Y-90428669D02*
X198156385Y-89428669D01*
X198156385Y-89428669D02*
X198537337Y-89428669D01*
X198537337Y-89428669D02*
X198632575Y-89476288D01*
X198632575Y-89476288D02*
X198680194Y-89523907D01*
X198680194Y-89523907D02*
X198727813Y-89619145D01*
X198727813Y-89619145D02*
X198727813Y-89762002D01*
X198727813Y-89762002D02*
X198680194Y-89857240D01*
X198680194Y-89857240D02*
X198632575Y-89904859D01*
X198632575Y-89904859D02*
X198537337Y-89952478D01*
X198537337Y-89952478D02*
X198156385Y-89952478D01*
X199299242Y-90428669D02*
X199204004Y-90381050D01*
X199204004Y-90381050D02*
X199156385Y-90333430D01*
X199156385Y-90333430D02*
X199108766Y-90238192D01*
X199108766Y-90238192D02*
X199108766Y-89952478D01*
X199108766Y-89952478D02*
X199156385Y-89857240D01*
X199156385Y-89857240D02*
X199204004Y-89809621D01*
X199204004Y-89809621D02*
X199299242Y-89762002D01*
X199299242Y-89762002D02*
X199442099Y-89762002D01*
X199442099Y-89762002D02*
X199537337Y-89809621D01*
X199537337Y-89809621D02*
X199584956Y-89857240D01*
X199584956Y-89857240D02*
X199632575Y-89952478D01*
X199632575Y-89952478D02*
X199632575Y-90238192D01*
X199632575Y-90238192D02*
X199584956Y-90333430D01*
X199584956Y-90333430D02*
X199537337Y-90381050D01*
X199537337Y-90381050D02*
X199442099Y-90428669D01*
X199442099Y-90428669D02*
X199299242Y-90428669D01*
X199965909Y-89762002D02*
X200156385Y-90428669D01*
X200156385Y-90428669D02*
X200346861Y-89952478D01*
X200346861Y-89952478D02*
X200537337Y-90428669D01*
X200537337Y-90428669D02*
X200727813Y-89762002D01*
X201061147Y-90381050D02*
X201156385Y-90428669D01*
X201156385Y-90428669D02*
X201346861Y-90428669D01*
X201346861Y-90428669D02*
X201442099Y-90381050D01*
X201442099Y-90381050D02*
X201489718Y-90285811D01*
X201489718Y-90285811D02*
X201489718Y-90238192D01*
X201489718Y-90238192D02*
X201442099Y-90142954D01*
X201442099Y-90142954D02*
X201346861Y-90095335D01*
X201346861Y-90095335D02*
X201204004Y-90095335D01*
X201204004Y-90095335D02*
X201108766Y-90047716D01*
X201108766Y-90047716D02*
X201061147Y-89952478D01*
X201061147Y-89952478D02*
X201061147Y-89904859D01*
X201061147Y-89904859D02*
X201108766Y-89809621D01*
X201108766Y-89809621D02*
X201204004Y-89762002D01*
X201204004Y-89762002D02*
X201346861Y-89762002D01*
X201346861Y-89762002D02*
X201442099Y-89809621D01*
X110108766Y-98023907D02*
X110156385Y-97976288D01*
X110156385Y-97976288D02*
X110251623Y-97928669D01*
X110251623Y-97928669D02*
X110489718Y-97928669D01*
X110489718Y-97928669D02*
X110584956Y-97976288D01*
X110584956Y-97976288D02*
X110632575Y-98023907D01*
X110632575Y-98023907D02*
X110680194Y-98119145D01*
X110680194Y-98119145D02*
X110680194Y-98214383D01*
X110680194Y-98214383D02*
X110632575Y-98357240D01*
X110632575Y-98357240D02*
X110061147Y-98928669D01*
X110061147Y-98928669D02*
X110680194Y-98928669D01*
X111537337Y-97928669D02*
X111346861Y-97928669D01*
X111346861Y-97928669D02*
X111251623Y-97976288D01*
X111251623Y-97976288D02*
X111204004Y-98023907D01*
X111204004Y-98023907D02*
X111108766Y-98166764D01*
X111108766Y-98166764D02*
X111061147Y-98357240D01*
X111061147Y-98357240D02*
X111061147Y-98738192D01*
X111061147Y-98738192D02*
X111108766Y-98833430D01*
X111108766Y-98833430D02*
X111156385Y-98881050D01*
X111156385Y-98881050D02*
X111251623Y-98928669D01*
X111251623Y-98928669D02*
X111442099Y-98928669D01*
X111442099Y-98928669D02*
X111537337Y-98881050D01*
X111537337Y-98881050D02*
X111584956Y-98833430D01*
X111584956Y-98833430D02*
X111632575Y-98738192D01*
X111632575Y-98738192D02*
X111632575Y-98500097D01*
X111632575Y-98500097D02*
X111584956Y-98404859D01*
X111584956Y-98404859D02*
X111537337Y-98357240D01*
X111537337Y-98357240D02*
X111442099Y-98309621D01*
X111442099Y-98309621D02*
X111251623Y-98309621D01*
X111251623Y-98309621D02*
X111156385Y-98357240D01*
X111156385Y-98357240D02*
X111108766Y-98404859D01*
X111108766Y-98404859D02*
X111061147Y-98500097D01*
X90084956Y-99678669D02*
X89894480Y-99678669D01*
X89894480Y-99678669D02*
X89799242Y-99726288D01*
X89799242Y-99726288D02*
X89751623Y-99773907D01*
X89751623Y-99773907D02*
X89656385Y-99916764D01*
X89656385Y-99916764D02*
X89608766Y-100107240D01*
X89608766Y-100107240D02*
X89608766Y-100488192D01*
X89608766Y-100488192D02*
X89656385Y-100583430D01*
X89656385Y-100583430D02*
X89704004Y-100631050D01*
X89704004Y-100631050D02*
X89799242Y-100678669D01*
X89799242Y-100678669D02*
X89989718Y-100678669D01*
X89989718Y-100678669D02*
X90084956Y-100631050D01*
X90084956Y-100631050D02*
X90132575Y-100583430D01*
X90132575Y-100583430D02*
X90180194Y-100488192D01*
X90180194Y-100488192D02*
X90180194Y-100250097D01*
X90180194Y-100250097D02*
X90132575Y-100154859D01*
X90132575Y-100154859D02*
X90084956Y-100107240D01*
X90084956Y-100107240D02*
X89989718Y-100059621D01*
X89989718Y-100059621D02*
X89799242Y-100059621D01*
X89799242Y-100059621D02*
X89704004Y-100107240D01*
X89704004Y-100107240D02*
X89656385Y-100154859D01*
X89656385Y-100154859D02*
X89608766Y-100250097D01*
X90132575Y-97178669D02*
X89656385Y-97178669D01*
X89656385Y-97178669D02*
X89608766Y-97654859D01*
X89608766Y-97654859D02*
X89656385Y-97607240D01*
X89656385Y-97607240D02*
X89751623Y-97559621D01*
X89751623Y-97559621D02*
X89989718Y-97559621D01*
X89989718Y-97559621D02*
X90084956Y-97607240D01*
X90084956Y-97607240D02*
X90132575Y-97654859D01*
X90132575Y-97654859D02*
X90180194Y-97750097D01*
X90180194Y-97750097D02*
X90180194Y-97988192D01*
X90180194Y-97988192D02*
X90132575Y-98083430D01*
X90132575Y-98083430D02*
X90084956Y-98131050D01*
X90084956Y-98131050D02*
X89989718Y-98178669D01*
X89989718Y-98178669D02*
X89751623Y-98178669D01*
X89751623Y-98178669D02*
X89656385Y-98131050D01*
X89656385Y-98131050D02*
X89608766Y-98083430D01*
X110108766Y-105773907D02*
X110156385Y-105726288D01*
X110156385Y-105726288D02*
X110251623Y-105678669D01*
X110251623Y-105678669D02*
X110489718Y-105678669D01*
X110489718Y-105678669D02*
X110584956Y-105726288D01*
X110584956Y-105726288D02*
X110632575Y-105773907D01*
X110632575Y-105773907D02*
X110680194Y-105869145D01*
X110680194Y-105869145D02*
X110680194Y-105964383D01*
X110680194Y-105964383D02*
X110632575Y-106107240D01*
X110632575Y-106107240D02*
X110061147Y-106678669D01*
X110061147Y-106678669D02*
X110680194Y-106678669D01*
X111013528Y-105678669D02*
X111632575Y-105678669D01*
X111632575Y-105678669D02*
X111299242Y-106059621D01*
X111299242Y-106059621D02*
X111442099Y-106059621D01*
X111442099Y-106059621D02*
X111537337Y-106107240D01*
X111537337Y-106107240D02*
X111584956Y-106154859D01*
X111584956Y-106154859D02*
X111632575Y-106250097D01*
X111632575Y-106250097D02*
X111632575Y-106488192D01*
X111632575Y-106488192D02*
X111584956Y-106583430D01*
X111584956Y-106583430D02*
X111537337Y-106631050D01*
X111537337Y-106631050D02*
X111442099Y-106678669D01*
X111442099Y-106678669D02*
X111156385Y-106678669D01*
X111156385Y-106678669D02*
X111061147Y-106631050D01*
X111061147Y-106631050D02*
X111013528Y-106583430D01*
X110108766Y-108023907D02*
X110156385Y-107976288D01*
X110156385Y-107976288D02*
X110251623Y-107928669D01*
X110251623Y-107928669D02*
X110489718Y-107928669D01*
X110489718Y-107928669D02*
X110584956Y-107976288D01*
X110584956Y-107976288D02*
X110632575Y-108023907D01*
X110632575Y-108023907D02*
X110680194Y-108119145D01*
X110680194Y-108119145D02*
X110680194Y-108214383D01*
X110680194Y-108214383D02*
X110632575Y-108357240D01*
X110632575Y-108357240D02*
X110061147Y-108928669D01*
X110061147Y-108928669D02*
X110680194Y-108928669D01*
X111632575Y-108928669D02*
X111061147Y-108928669D01*
X111346861Y-108928669D02*
X111346861Y-107928669D01*
X111346861Y-107928669D02*
X111251623Y-108071526D01*
X111251623Y-108071526D02*
X111156385Y-108166764D01*
X111156385Y-108166764D02*
X111061147Y-108214383D01*
X89704004Y-108428669D02*
X89894480Y-108428669D01*
X89894480Y-108428669D02*
X89989718Y-108381050D01*
X89989718Y-108381050D02*
X90037337Y-108333430D01*
X90037337Y-108333430D02*
X90132575Y-108190573D01*
X90132575Y-108190573D02*
X90180194Y-108000097D01*
X90180194Y-108000097D02*
X90180194Y-107619145D01*
X90180194Y-107619145D02*
X90132575Y-107523907D01*
X90132575Y-107523907D02*
X90084956Y-107476288D01*
X90084956Y-107476288D02*
X89989718Y-107428669D01*
X89989718Y-107428669D02*
X89799242Y-107428669D01*
X89799242Y-107428669D02*
X89704004Y-107476288D01*
X89704004Y-107476288D02*
X89656385Y-107523907D01*
X89656385Y-107523907D02*
X89608766Y-107619145D01*
X89608766Y-107619145D02*
X89608766Y-107857240D01*
X89608766Y-107857240D02*
X89656385Y-107952478D01*
X89656385Y-107952478D02*
X89704004Y-108000097D01*
X89704004Y-108000097D02*
X89799242Y-108047716D01*
X89799242Y-108047716D02*
X89989718Y-108047716D01*
X89989718Y-108047716D02*
X90084956Y-108000097D01*
X90084956Y-108000097D02*
X90132575Y-107952478D01*
X90132575Y-107952478D02*
X90180194Y-107857240D01*
X89608766Y-89523907D02*
X89656385Y-89476288D01*
X89656385Y-89476288D02*
X89751623Y-89428669D01*
X89751623Y-89428669D02*
X89989718Y-89428669D01*
X89989718Y-89428669D02*
X90084956Y-89476288D01*
X90084956Y-89476288D02*
X90132575Y-89523907D01*
X90132575Y-89523907D02*
X90180194Y-89619145D01*
X90180194Y-89619145D02*
X90180194Y-89714383D01*
X90180194Y-89714383D02*
X90132575Y-89857240D01*
X90132575Y-89857240D02*
X89561147Y-90428669D01*
X89561147Y-90428669D02*
X90180194Y-90428669D01*
X112477813Y-88428669D02*
X112144480Y-87952478D01*
X111906385Y-88428669D02*
X111906385Y-87428669D01*
X111906385Y-87428669D02*
X112287337Y-87428669D01*
X112287337Y-87428669D02*
X112382575Y-87476288D01*
X112382575Y-87476288D02*
X112430194Y-87523907D01*
X112430194Y-87523907D02*
X112477813Y-87619145D01*
X112477813Y-87619145D02*
X112477813Y-87762002D01*
X112477813Y-87762002D02*
X112430194Y-87857240D01*
X112430194Y-87857240D02*
X112382575Y-87904859D01*
X112382575Y-87904859D02*
X112287337Y-87952478D01*
X112287337Y-87952478D02*
X111906385Y-87952478D01*
X113049242Y-88428669D02*
X112954004Y-88381050D01*
X112954004Y-88381050D02*
X112906385Y-88333430D01*
X112906385Y-88333430D02*
X112858766Y-88238192D01*
X112858766Y-88238192D02*
X112858766Y-87952478D01*
X112858766Y-87952478D02*
X112906385Y-87857240D01*
X112906385Y-87857240D02*
X112954004Y-87809621D01*
X112954004Y-87809621D02*
X113049242Y-87762002D01*
X113049242Y-87762002D02*
X113192099Y-87762002D01*
X113192099Y-87762002D02*
X113287337Y-87809621D01*
X113287337Y-87809621D02*
X113334956Y-87857240D01*
X113334956Y-87857240D02*
X113382575Y-87952478D01*
X113382575Y-87952478D02*
X113382575Y-88238192D01*
X113382575Y-88238192D02*
X113334956Y-88333430D01*
X113334956Y-88333430D02*
X113287337Y-88381050D01*
X113287337Y-88381050D02*
X113192099Y-88428669D01*
X113192099Y-88428669D02*
X113049242Y-88428669D01*
X113715909Y-87762002D02*
X113906385Y-88428669D01*
X113906385Y-88428669D02*
X114096861Y-87952478D01*
X114096861Y-87952478D02*
X114287337Y-88428669D01*
X114287337Y-88428669D02*
X114477813Y-87762002D01*
X114811147Y-88381050D02*
X114906385Y-88428669D01*
X114906385Y-88428669D02*
X115096861Y-88428669D01*
X115096861Y-88428669D02*
X115192099Y-88381050D01*
X115192099Y-88381050D02*
X115239718Y-88285811D01*
X115239718Y-88285811D02*
X115239718Y-88238192D01*
X115239718Y-88238192D02*
X115192099Y-88142954D01*
X115192099Y-88142954D02*
X115096861Y-88095335D01*
X115096861Y-88095335D02*
X114954004Y-88095335D01*
X114954004Y-88095335D02*
X114858766Y-88047716D01*
X114858766Y-88047716D02*
X114811147Y-87952478D01*
X114811147Y-87952478D02*
X114811147Y-87904859D01*
X114811147Y-87904859D02*
X114858766Y-87809621D01*
X114858766Y-87809621D02*
X114954004Y-87762002D01*
X114954004Y-87762002D02*
X115096861Y-87762002D01*
X115096861Y-87762002D02*
X115192099Y-87809621D01*
X110108766Y-95273907D02*
X110156385Y-95226288D01*
X110156385Y-95226288D02*
X110251623Y-95178669D01*
X110251623Y-95178669D02*
X110489718Y-95178669D01*
X110489718Y-95178669D02*
X110584956Y-95226288D01*
X110584956Y-95226288D02*
X110632575Y-95273907D01*
X110632575Y-95273907D02*
X110680194Y-95369145D01*
X110680194Y-95369145D02*
X110680194Y-95464383D01*
X110680194Y-95464383D02*
X110632575Y-95607240D01*
X110632575Y-95607240D02*
X110061147Y-96178669D01*
X110061147Y-96178669D02*
X110680194Y-96178669D01*
X111013528Y-95178669D02*
X111680194Y-95178669D01*
X111680194Y-95178669D02*
X111251623Y-96178669D01*
X90084956Y-94762002D02*
X90084956Y-95428669D01*
X89846861Y-94381050D02*
X89608766Y-95095335D01*
X89608766Y-95095335D02*
X90227813Y-95095335D01*
D11*
X169698364Y-88923469D02*
X169222174Y-88923469D01*
X169222174Y-88923469D02*
X169222174Y-87923469D01*
X94470922Y-76558469D02*
X93994732Y-76558469D01*
X93994732Y-76558469D02*
X93947113Y-77034659D01*
X93947113Y-77034659D02*
X93994732Y-76987040D01*
X93994732Y-76987040D02*
X94089970Y-76939421D01*
X94089970Y-76939421D02*
X94328065Y-76939421D01*
X94328065Y-76939421D02*
X94423303Y-76987040D01*
X94423303Y-76987040D02*
X94470922Y-77034659D01*
X94470922Y-77034659D02*
X94518541Y-77129897D01*
X94518541Y-77129897D02*
X94518541Y-77367992D01*
X94518541Y-77367992D02*
X94470922Y-77463230D01*
X94470922Y-77463230D02*
X94423303Y-77510850D01*
X94423303Y-77510850D02*
X94328065Y-77558469D01*
X94328065Y-77558469D02*
X94089970Y-77558469D01*
X94089970Y-77558469D02*
X93994732Y-77510850D01*
X93994732Y-77510850D02*
X93947113Y-77463230D01*
X94851875Y-76891802D02*
X95089970Y-77558469D01*
X95089970Y-77558469D02*
X95328065Y-76891802D01*
X104995983Y-89306088D02*
X104900745Y-89258469D01*
X104900745Y-89258469D02*
X104757888Y-89258469D01*
X104757888Y-89258469D02*
X104615031Y-89306088D01*
X104615031Y-89306088D02*
X104519793Y-89401326D01*
X104519793Y-89401326D02*
X104472174Y-89496564D01*
X104472174Y-89496564D02*
X104424555Y-89687040D01*
X104424555Y-89687040D02*
X104424555Y-89829897D01*
X104424555Y-89829897D02*
X104472174Y-90020373D01*
X104472174Y-90020373D02*
X104519793Y-90115611D01*
X104519793Y-90115611D02*
X104615031Y-90210850D01*
X104615031Y-90210850D02*
X104757888Y-90258469D01*
X104757888Y-90258469D02*
X104853126Y-90258469D01*
X104853126Y-90258469D02*
X104995983Y-90210850D01*
X104995983Y-90210850D02*
X105043602Y-90163230D01*
X105043602Y-90163230D02*
X105043602Y-89829897D01*
X105043602Y-89829897D02*
X104853126Y-89829897D01*
X105472174Y-90258469D02*
X105472174Y-89258469D01*
X105472174Y-89258469D02*
X105853126Y-89258469D01*
X105853126Y-89258469D02*
X105948364Y-89306088D01*
X105948364Y-89306088D02*
X105995983Y-89353707D01*
X105995983Y-89353707D02*
X106043602Y-89448945D01*
X106043602Y-89448945D02*
X106043602Y-89591802D01*
X106043602Y-89591802D02*
X105995983Y-89687040D01*
X105995983Y-89687040D02*
X105948364Y-89734659D01*
X105948364Y-89734659D02*
X105853126Y-89782278D01*
X105853126Y-89782278D02*
X105472174Y-89782278D01*
X106376936Y-89258469D02*
X106995983Y-89258469D01*
X106995983Y-89258469D02*
X106662650Y-89639421D01*
X106662650Y-89639421D02*
X106805507Y-89639421D01*
X106805507Y-89639421D02*
X106900745Y-89687040D01*
X106900745Y-89687040D02*
X106948364Y-89734659D01*
X106948364Y-89734659D02*
X106995983Y-89829897D01*
X106995983Y-89829897D02*
X106995983Y-90067992D01*
X106995983Y-90067992D02*
X106948364Y-90163230D01*
X106948364Y-90163230D02*
X106900745Y-90210850D01*
X106900745Y-90210850D02*
X106805507Y-90258469D01*
X106805507Y-90258469D02*
X106519793Y-90258469D01*
X106519793Y-90258469D02*
X106424555Y-90210850D01*
X106424555Y-90210850D02*
X106376936Y-90163230D01*
X94328065Y-86766088D02*
X94232827Y-86718469D01*
X94232827Y-86718469D02*
X94089970Y-86718469D01*
X94089970Y-86718469D02*
X93947113Y-86766088D01*
X93947113Y-86766088D02*
X93851875Y-86861326D01*
X93851875Y-86861326D02*
X93804256Y-86956564D01*
X93804256Y-86956564D02*
X93756637Y-87147040D01*
X93756637Y-87147040D02*
X93756637Y-87289897D01*
X93756637Y-87289897D02*
X93804256Y-87480373D01*
X93804256Y-87480373D02*
X93851875Y-87575611D01*
X93851875Y-87575611D02*
X93947113Y-87670850D01*
X93947113Y-87670850D02*
X94089970Y-87718469D01*
X94089970Y-87718469D02*
X94185208Y-87718469D01*
X94185208Y-87718469D02*
X94328065Y-87670850D01*
X94328065Y-87670850D02*
X94375684Y-87623230D01*
X94375684Y-87623230D02*
X94375684Y-87289897D01*
X94375684Y-87289897D02*
X94185208Y-87289897D01*
X94804256Y-87718469D02*
X94804256Y-86718469D01*
X94804256Y-86718469D02*
X95185208Y-86718469D01*
X95185208Y-86718469D02*
X95280446Y-86766088D01*
X95280446Y-86766088D02*
X95328065Y-86813707D01*
X95328065Y-86813707D02*
X95375684Y-86908945D01*
X95375684Y-86908945D02*
X95375684Y-87051802D01*
X95375684Y-87051802D02*
X95328065Y-87147040D01*
X95328065Y-87147040D02*
X95280446Y-87194659D01*
X95280446Y-87194659D02*
X95185208Y-87242278D01*
X95185208Y-87242278D02*
X94804256Y-87242278D01*
X95756637Y-86813707D02*
X95804256Y-86766088D01*
X95804256Y-86766088D02*
X95899494Y-86718469D01*
X95899494Y-86718469D02*
X96137589Y-86718469D01*
X96137589Y-86718469D02*
X96232827Y-86766088D01*
X96232827Y-86766088D02*
X96280446Y-86813707D01*
X96280446Y-86813707D02*
X96328065Y-86908945D01*
X96328065Y-86908945D02*
X96328065Y-87004183D01*
X96328065Y-87004183D02*
X96280446Y-87147040D01*
X96280446Y-87147040D02*
X95709018Y-87718469D01*
X95709018Y-87718469D02*
X96328065Y-87718469D01*
X96804256Y-87718469D02*
X96994732Y-87718469D01*
X96994732Y-87718469D02*
X97089970Y-87670850D01*
X97089970Y-87670850D02*
X97137589Y-87623230D01*
X97137589Y-87623230D02*
X97232827Y-87480373D01*
X97232827Y-87480373D02*
X97280446Y-87289897D01*
X97280446Y-87289897D02*
X97280446Y-86908945D01*
X97280446Y-86908945D02*
X97232827Y-86813707D01*
X97232827Y-86813707D02*
X97185208Y-86766088D01*
X97185208Y-86766088D02*
X97089970Y-86718469D01*
X97089970Y-86718469D02*
X96899494Y-86718469D01*
X96899494Y-86718469D02*
X96804256Y-86766088D01*
X96804256Y-86766088D02*
X96756637Y-86813707D01*
X96756637Y-86813707D02*
X96709018Y-86908945D01*
X96709018Y-86908945D02*
X96709018Y-87147040D01*
X96709018Y-87147040D02*
X96756637Y-87242278D01*
X96756637Y-87242278D02*
X96804256Y-87289897D01*
X96804256Y-87289897D02*
X96899494Y-87337516D01*
X96899494Y-87337516D02*
X97089970Y-87337516D01*
X97089970Y-87337516D02*
X97185208Y-87289897D01*
X97185208Y-87289897D02*
X97232827Y-87242278D01*
X97232827Y-87242278D02*
X97280446Y-87147040D01*
X104995983Y-76606088D02*
X104900745Y-76558469D01*
X104900745Y-76558469D02*
X104757888Y-76558469D01*
X104757888Y-76558469D02*
X104615031Y-76606088D01*
X104615031Y-76606088D02*
X104519793Y-76701326D01*
X104519793Y-76701326D02*
X104472174Y-76796564D01*
X104472174Y-76796564D02*
X104424555Y-76987040D01*
X104424555Y-76987040D02*
X104424555Y-77129897D01*
X104424555Y-77129897D02*
X104472174Y-77320373D01*
X104472174Y-77320373D02*
X104519793Y-77415611D01*
X104519793Y-77415611D02*
X104615031Y-77510850D01*
X104615031Y-77510850D02*
X104757888Y-77558469D01*
X104757888Y-77558469D02*
X104853126Y-77558469D01*
X104853126Y-77558469D02*
X104995983Y-77510850D01*
X104995983Y-77510850D02*
X105043602Y-77463230D01*
X105043602Y-77463230D02*
X105043602Y-77129897D01*
X105043602Y-77129897D02*
X104853126Y-77129897D01*
X105472174Y-77558469D02*
X105472174Y-76558469D01*
X105472174Y-76558469D02*
X105853126Y-76558469D01*
X105853126Y-76558469D02*
X105948364Y-76606088D01*
X105948364Y-76606088D02*
X105995983Y-76653707D01*
X105995983Y-76653707D02*
X106043602Y-76748945D01*
X106043602Y-76748945D02*
X106043602Y-76891802D01*
X106043602Y-76891802D02*
X105995983Y-76987040D01*
X105995983Y-76987040D02*
X105948364Y-77034659D01*
X105948364Y-77034659D02*
X105853126Y-77082278D01*
X105853126Y-77082278D02*
X105472174Y-77082278D01*
X106662650Y-76558469D02*
X106757888Y-76558469D01*
X106757888Y-76558469D02*
X106853126Y-76606088D01*
X106853126Y-76606088D02*
X106900745Y-76653707D01*
X106900745Y-76653707D02*
X106948364Y-76748945D01*
X106948364Y-76748945D02*
X106995983Y-76939421D01*
X106995983Y-76939421D02*
X106995983Y-77177516D01*
X106995983Y-77177516D02*
X106948364Y-77367992D01*
X106948364Y-77367992D02*
X106900745Y-77463230D01*
X106900745Y-77463230D02*
X106853126Y-77510850D01*
X106853126Y-77510850D02*
X106757888Y-77558469D01*
X106757888Y-77558469D02*
X106662650Y-77558469D01*
X106662650Y-77558469D02*
X106567412Y-77510850D01*
X106567412Y-77510850D02*
X106519793Y-77463230D01*
X106519793Y-77463230D02*
X106472174Y-77367992D01*
X106472174Y-77367992D02*
X106424555Y-77177516D01*
X106424555Y-77177516D02*
X106424555Y-76939421D01*
X106424555Y-76939421D02*
X106472174Y-76748945D01*
X106472174Y-76748945D02*
X106519793Y-76653707D01*
X106519793Y-76653707D02*
X106567412Y-76606088D01*
X106567412Y-76606088D02*
X106662650Y-76558469D01*
X104995983Y-84226088D02*
X104900745Y-84178469D01*
X104900745Y-84178469D02*
X104757888Y-84178469D01*
X104757888Y-84178469D02*
X104615031Y-84226088D01*
X104615031Y-84226088D02*
X104519793Y-84321326D01*
X104519793Y-84321326D02*
X104472174Y-84416564D01*
X104472174Y-84416564D02*
X104424555Y-84607040D01*
X104424555Y-84607040D02*
X104424555Y-84749897D01*
X104424555Y-84749897D02*
X104472174Y-84940373D01*
X104472174Y-84940373D02*
X104519793Y-85035611D01*
X104519793Y-85035611D02*
X104615031Y-85130850D01*
X104615031Y-85130850D02*
X104757888Y-85178469D01*
X104757888Y-85178469D02*
X104853126Y-85178469D01*
X104853126Y-85178469D02*
X104995983Y-85130850D01*
X104995983Y-85130850D02*
X105043602Y-85083230D01*
X105043602Y-85083230D02*
X105043602Y-84749897D01*
X105043602Y-84749897D02*
X104853126Y-84749897D01*
X105472174Y-85178469D02*
X105472174Y-84178469D01*
X105472174Y-84178469D02*
X106043602Y-85178469D01*
X106043602Y-85178469D02*
X106043602Y-84178469D01*
X106519793Y-85178469D02*
X106519793Y-84178469D01*
X106519793Y-84178469D02*
X106757888Y-84178469D01*
X106757888Y-84178469D02*
X106900745Y-84226088D01*
X106900745Y-84226088D02*
X106995983Y-84321326D01*
X106995983Y-84321326D02*
X107043602Y-84416564D01*
X107043602Y-84416564D02*
X107091221Y-84607040D01*
X107091221Y-84607040D02*
X107091221Y-84749897D01*
X107091221Y-84749897D02*
X107043602Y-84940373D01*
X107043602Y-84940373D02*
X106995983Y-85035611D01*
X106995983Y-85035611D02*
X106900745Y-85130850D01*
X106900745Y-85130850D02*
X106757888Y-85178469D01*
X106757888Y-85178469D02*
X106519793Y-85178469D01*
X94328065Y-91806088D02*
X94232827Y-91758469D01*
X94232827Y-91758469D02*
X94089970Y-91758469D01*
X94089970Y-91758469D02*
X93947113Y-91806088D01*
X93947113Y-91806088D02*
X93851875Y-91901326D01*
X93851875Y-91901326D02*
X93804256Y-91996564D01*
X93804256Y-91996564D02*
X93756637Y-92187040D01*
X93756637Y-92187040D02*
X93756637Y-92329897D01*
X93756637Y-92329897D02*
X93804256Y-92520373D01*
X93804256Y-92520373D02*
X93851875Y-92615611D01*
X93851875Y-92615611D02*
X93947113Y-92710850D01*
X93947113Y-92710850D02*
X94089970Y-92758469D01*
X94089970Y-92758469D02*
X94185208Y-92758469D01*
X94185208Y-92758469D02*
X94328065Y-92710850D01*
X94328065Y-92710850D02*
X94375684Y-92663230D01*
X94375684Y-92663230D02*
X94375684Y-92329897D01*
X94375684Y-92329897D02*
X94185208Y-92329897D01*
X94804256Y-92758469D02*
X94804256Y-91758469D01*
X94804256Y-91758469D02*
X95185208Y-91758469D01*
X95185208Y-91758469D02*
X95280446Y-91806088D01*
X95280446Y-91806088D02*
X95328065Y-91853707D01*
X95328065Y-91853707D02*
X95375684Y-91948945D01*
X95375684Y-91948945D02*
X95375684Y-92091802D01*
X95375684Y-92091802D02*
X95328065Y-92187040D01*
X95328065Y-92187040D02*
X95280446Y-92234659D01*
X95280446Y-92234659D02*
X95185208Y-92282278D01*
X95185208Y-92282278D02*
X94804256Y-92282278D01*
X95756637Y-91853707D02*
X95804256Y-91806088D01*
X95804256Y-91806088D02*
X95899494Y-91758469D01*
X95899494Y-91758469D02*
X96137589Y-91758469D01*
X96137589Y-91758469D02*
X96232827Y-91806088D01*
X96232827Y-91806088D02*
X96280446Y-91853707D01*
X96280446Y-91853707D02*
X96328065Y-91948945D01*
X96328065Y-91948945D02*
X96328065Y-92044183D01*
X96328065Y-92044183D02*
X96280446Y-92187040D01*
X96280446Y-92187040D02*
X95709018Y-92758469D01*
X95709018Y-92758469D02*
X96328065Y-92758469D01*
X96661399Y-91758469D02*
X97328065Y-91758469D01*
X97328065Y-91758469D02*
X96899494Y-92758469D01*
X104995983Y-94386088D02*
X104900745Y-94338469D01*
X104900745Y-94338469D02*
X104757888Y-94338469D01*
X104757888Y-94338469D02*
X104615031Y-94386088D01*
X104615031Y-94386088D02*
X104519793Y-94481326D01*
X104519793Y-94481326D02*
X104472174Y-94576564D01*
X104472174Y-94576564D02*
X104424555Y-94767040D01*
X104424555Y-94767040D02*
X104424555Y-94909897D01*
X104424555Y-94909897D02*
X104472174Y-95100373D01*
X104472174Y-95100373D02*
X104519793Y-95195611D01*
X104519793Y-95195611D02*
X104615031Y-95290850D01*
X104615031Y-95290850D02*
X104757888Y-95338469D01*
X104757888Y-95338469D02*
X104853126Y-95338469D01*
X104853126Y-95338469D02*
X104995983Y-95290850D01*
X104995983Y-95290850D02*
X105043602Y-95243230D01*
X105043602Y-95243230D02*
X105043602Y-94909897D01*
X105043602Y-94909897D02*
X104853126Y-94909897D01*
X105472174Y-95338469D02*
X105472174Y-94338469D01*
X105472174Y-94338469D02*
X105853126Y-94338469D01*
X105853126Y-94338469D02*
X105948364Y-94386088D01*
X105948364Y-94386088D02*
X105995983Y-94433707D01*
X105995983Y-94433707D02*
X106043602Y-94528945D01*
X106043602Y-94528945D02*
X106043602Y-94671802D01*
X106043602Y-94671802D02*
X105995983Y-94767040D01*
X105995983Y-94767040D02*
X105948364Y-94814659D01*
X105948364Y-94814659D02*
X105853126Y-94862278D01*
X105853126Y-94862278D02*
X105472174Y-94862278D01*
X106948364Y-94338469D02*
X106472174Y-94338469D01*
X106472174Y-94338469D02*
X106424555Y-94814659D01*
X106424555Y-94814659D02*
X106472174Y-94767040D01*
X106472174Y-94767040D02*
X106567412Y-94719421D01*
X106567412Y-94719421D02*
X106805507Y-94719421D01*
X106805507Y-94719421D02*
X106900745Y-94767040D01*
X106900745Y-94767040D02*
X106948364Y-94814659D01*
X106948364Y-94814659D02*
X106995983Y-94909897D01*
X106995983Y-94909897D02*
X106995983Y-95147992D01*
X106995983Y-95147992D02*
X106948364Y-95243230D01*
X106948364Y-95243230D02*
X106900745Y-95290850D01*
X106900745Y-95290850D02*
X106805507Y-95338469D01*
X106805507Y-95338469D02*
X106567412Y-95338469D01*
X106567412Y-95338469D02*
X106472174Y-95290850D01*
X106472174Y-95290850D02*
X106424555Y-95243230D01*
X104995983Y-99466088D02*
X104900745Y-99418469D01*
X104900745Y-99418469D02*
X104757888Y-99418469D01*
X104757888Y-99418469D02*
X104615031Y-99466088D01*
X104615031Y-99466088D02*
X104519793Y-99561326D01*
X104519793Y-99561326D02*
X104472174Y-99656564D01*
X104472174Y-99656564D02*
X104424555Y-99847040D01*
X104424555Y-99847040D02*
X104424555Y-99989897D01*
X104424555Y-99989897D02*
X104472174Y-100180373D01*
X104472174Y-100180373D02*
X104519793Y-100275611D01*
X104519793Y-100275611D02*
X104615031Y-100370850D01*
X104615031Y-100370850D02*
X104757888Y-100418469D01*
X104757888Y-100418469D02*
X104853126Y-100418469D01*
X104853126Y-100418469D02*
X104995983Y-100370850D01*
X104995983Y-100370850D02*
X105043602Y-100323230D01*
X105043602Y-100323230D02*
X105043602Y-99989897D01*
X105043602Y-99989897D02*
X104853126Y-99989897D01*
X105472174Y-100418469D02*
X105472174Y-99418469D01*
X105472174Y-99418469D02*
X105853126Y-99418469D01*
X105853126Y-99418469D02*
X105948364Y-99466088D01*
X105948364Y-99466088D02*
X105995983Y-99513707D01*
X105995983Y-99513707D02*
X106043602Y-99608945D01*
X106043602Y-99608945D02*
X106043602Y-99751802D01*
X106043602Y-99751802D02*
X105995983Y-99847040D01*
X105995983Y-99847040D02*
X105948364Y-99894659D01*
X105948364Y-99894659D02*
X105853126Y-99942278D01*
X105853126Y-99942278D02*
X105472174Y-99942278D01*
X106376936Y-99418469D02*
X107043602Y-99418469D01*
X107043602Y-99418469D02*
X106615031Y-100418469D01*
X104995983Y-102006088D02*
X104900745Y-101958469D01*
X104900745Y-101958469D02*
X104757888Y-101958469D01*
X104757888Y-101958469D02*
X104615031Y-102006088D01*
X104615031Y-102006088D02*
X104519793Y-102101326D01*
X104519793Y-102101326D02*
X104472174Y-102196564D01*
X104472174Y-102196564D02*
X104424555Y-102387040D01*
X104424555Y-102387040D02*
X104424555Y-102529897D01*
X104424555Y-102529897D02*
X104472174Y-102720373D01*
X104472174Y-102720373D02*
X104519793Y-102815611D01*
X104519793Y-102815611D02*
X104615031Y-102910850D01*
X104615031Y-102910850D02*
X104757888Y-102958469D01*
X104757888Y-102958469D02*
X104853126Y-102958469D01*
X104853126Y-102958469D02*
X104995983Y-102910850D01*
X104995983Y-102910850D02*
X105043602Y-102863230D01*
X105043602Y-102863230D02*
X105043602Y-102529897D01*
X105043602Y-102529897D02*
X104853126Y-102529897D01*
X105472174Y-102958469D02*
X105472174Y-101958469D01*
X105472174Y-101958469D02*
X105853126Y-101958469D01*
X105853126Y-101958469D02*
X105948364Y-102006088D01*
X105948364Y-102006088D02*
X105995983Y-102053707D01*
X105995983Y-102053707D02*
X106043602Y-102148945D01*
X106043602Y-102148945D02*
X106043602Y-102291802D01*
X106043602Y-102291802D02*
X105995983Y-102387040D01*
X105995983Y-102387040D02*
X105948364Y-102434659D01*
X105948364Y-102434659D02*
X105853126Y-102482278D01*
X105853126Y-102482278D02*
X105472174Y-102482278D01*
X106615031Y-102387040D02*
X106519793Y-102339421D01*
X106519793Y-102339421D02*
X106472174Y-102291802D01*
X106472174Y-102291802D02*
X106424555Y-102196564D01*
X106424555Y-102196564D02*
X106424555Y-102148945D01*
X106424555Y-102148945D02*
X106472174Y-102053707D01*
X106472174Y-102053707D02*
X106519793Y-102006088D01*
X106519793Y-102006088D02*
X106615031Y-101958469D01*
X106615031Y-101958469D02*
X106805507Y-101958469D01*
X106805507Y-101958469D02*
X106900745Y-102006088D01*
X106900745Y-102006088D02*
X106948364Y-102053707D01*
X106948364Y-102053707D02*
X106995983Y-102148945D01*
X106995983Y-102148945D02*
X106995983Y-102196564D01*
X106995983Y-102196564D02*
X106948364Y-102291802D01*
X106948364Y-102291802D02*
X106900745Y-102339421D01*
X106900745Y-102339421D02*
X106805507Y-102387040D01*
X106805507Y-102387040D02*
X106615031Y-102387040D01*
X106615031Y-102387040D02*
X106519793Y-102434659D01*
X106519793Y-102434659D02*
X106472174Y-102482278D01*
X106472174Y-102482278D02*
X106424555Y-102577516D01*
X106424555Y-102577516D02*
X106424555Y-102767992D01*
X106424555Y-102767992D02*
X106472174Y-102863230D01*
X106472174Y-102863230D02*
X106519793Y-102910850D01*
X106519793Y-102910850D02*
X106615031Y-102958469D01*
X106615031Y-102958469D02*
X106805507Y-102958469D01*
X106805507Y-102958469D02*
X106900745Y-102910850D01*
X106900745Y-102910850D02*
X106948364Y-102863230D01*
X106948364Y-102863230D02*
X106995983Y-102767992D01*
X106995983Y-102767992D02*
X106995983Y-102577516D01*
X106995983Y-102577516D02*
X106948364Y-102482278D01*
X106948364Y-102482278D02*
X106900745Y-102434659D01*
X106900745Y-102434659D02*
X106805507Y-102387040D01*
X102602339Y-109580685D02*
X102554720Y-109675923D01*
X102554720Y-109675923D02*
X102554720Y-109818780D01*
X102554720Y-109818780D02*
X102602339Y-109961637D01*
X102602339Y-109961637D02*
X102697577Y-110056875D01*
X102697577Y-110056875D02*
X102792815Y-110104494D01*
X102792815Y-110104494D02*
X102983291Y-110152113D01*
X102983291Y-110152113D02*
X103126148Y-110152113D01*
X103126148Y-110152113D02*
X103316624Y-110104494D01*
X103316624Y-110104494D02*
X103411862Y-110056875D01*
X103411862Y-110056875D02*
X103507101Y-109961637D01*
X103507101Y-109961637D02*
X103554720Y-109818780D01*
X103554720Y-109818780D02*
X103554720Y-109723542D01*
X103554720Y-109723542D02*
X103507101Y-109580685D01*
X103507101Y-109580685D02*
X103459481Y-109533066D01*
X103459481Y-109533066D02*
X103126148Y-109533066D01*
X103126148Y-109533066D02*
X103126148Y-109723542D01*
X103554720Y-109104494D02*
X102554720Y-109104494D01*
X102554720Y-109104494D02*
X102554720Y-108723542D01*
X102554720Y-108723542D02*
X102602339Y-108628304D01*
X102602339Y-108628304D02*
X102649958Y-108580685D01*
X102649958Y-108580685D02*
X102745196Y-108533066D01*
X102745196Y-108533066D02*
X102888053Y-108533066D01*
X102888053Y-108533066D02*
X102983291Y-108580685D01*
X102983291Y-108580685D02*
X103030910Y-108628304D01*
X103030910Y-108628304D02*
X103078529Y-108723542D01*
X103078529Y-108723542D02*
X103078529Y-109104494D01*
X103554720Y-107580685D02*
X103554720Y-108152113D01*
X103554720Y-107866399D02*
X102554720Y-107866399D01*
X102554720Y-107866399D02*
X102697577Y-107961637D01*
X102697577Y-107961637D02*
X102792815Y-108056875D01*
X102792815Y-108056875D02*
X102840434Y-108152113D01*
X102554720Y-107247351D02*
X102554720Y-106628304D01*
X102554720Y-106628304D02*
X102935672Y-106961637D01*
X102935672Y-106961637D02*
X102935672Y-106818780D01*
X102935672Y-106818780D02*
X102983291Y-106723542D01*
X102983291Y-106723542D02*
X103030910Y-106675923D01*
X103030910Y-106675923D02*
X103126148Y-106628304D01*
X103126148Y-106628304D02*
X103364243Y-106628304D01*
X103364243Y-106628304D02*
X103459481Y-106675923D01*
X103459481Y-106675923D02*
X103507101Y-106723542D01*
X103507101Y-106723542D02*
X103554720Y-106818780D01*
X103554720Y-106818780D02*
X103554720Y-107104494D01*
X103554720Y-107104494D02*
X103507101Y-107199732D01*
X103507101Y-107199732D02*
X103459481Y-107247351D01*
X104995983Y-81686088D02*
X104900745Y-81638469D01*
X104900745Y-81638469D02*
X104757888Y-81638469D01*
X104757888Y-81638469D02*
X104615031Y-81686088D01*
X104615031Y-81686088D02*
X104519793Y-81781326D01*
X104519793Y-81781326D02*
X104472174Y-81876564D01*
X104472174Y-81876564D02*
X104424555Y-82067040D01*
X104424555Y-82067040D02*
X104424555Y-82209897D01*
X104424555Y-82209897D02*
X104472174Y-82400373D01*
X104472174Y-82400373D02*
X104519793Y-82495611D01*
X104519793Y-82495611D02*
X104615031Y-82590850D01*
X104615031Y-82590850D02*
X104757888Y-82638469D01*
X104757888Y-82638469D02*
X104853126Y-82638469D01*
X104853126Y-82638469D02*
X104995983Y-82590850D01*
X104995983Y-82590850D02*
X105043602Y-82543230D01*
X105043602Y-82543230D02*
X105043602Y-82209897D01*
X105043602Y-82209897D02*
X104853126Y-82209897D01*
X105472174Y-82638469D02*
X105472174Y-81638469D01*
X105472174Y-81638469D02*
X106043602Y-82638469D01*
X106043602Y-82638469D02*
X106043602Y-81638469D01*
X106519793Y-82638469D02*
X106519793Y-81638469D01*
X106519793Y-81638469D02*
X106757888Y-81638469D01*
X106757888Y-81638469D02*
X106900745Y-81686088D01*
X106900745Y-81686088D02*
X106995983Y-81781326D01*
X106995983Y-81781326D02*
X107043602Y-81876564D01*
X107043602Y-81876564D02*
X107091221Y-82067040D01*
X107091221Y-82067040D02*
X107091221Y-82209897D01*
X107091221Y-82209897D02*
X107043602Y-82400373D01*
X107043602Y-82400373D02*
X106995983Y-82495611D01*
X106995983Y-82495611D02*
X106900745Y-82590850D01*
X106900745Y-82590850D02*
X106757888Y-82638469D01*
X106757888Y-82638469D02*
X106519793Y-82638469D01*
X105102339Y-109580685D02*
X105054720Y-109675923D01*
X105054720Y-109675923D02*
X105054720Y-109818780D01*
X105054720Y-109818780D02*
X105102339Y-109961637D01*
X105102339Y-109961637D02*
X105197577Y-110056875D01*
X105197577Y-110056875D02*
X105292815Y-110104494D01*
X105292815Y-110104494D02*
X105483291Y-110152113D01*
X105483291Y-110152113D02*
X105626148Y-110152113D01*
X105626148Y-110152113D02*
X105816624Y-110104494D01*
X105816624Y-110104494D02*
X105911862Y-110056875D01*
X105911862Y-110056875D02*
X106007101Y-109961637D01*
X106007101Y-109961637D02*
X106054720Y-109818780D01*
X106054720Y-109818780D02*
X106054720Y-109723542D01*
X106054720Y-109723542D02*
X106007101Y-109580685D01*
X106007101Y-109580685D02*
X105959481Y-109533066D01*
X105959481Y-109533066D02*
X105626148Y-109533066D01*
X105626148Y-109533066D02*
X105626148Y-109723542D01*
X106054720Y-109104494D02*
X105054720Y-109104494D01*
X105054720Y-109104494D02*
X105054720Y-108723542D01*
X105054720Y-108723542D02*
X105102339Y-108628304D01*
X105102339Y-108628304D02*
X105149958Y-108580685D01*
X105149958Y-108580685D02*
X105245196Y-108533066D01*
X105245196Y-108533066D02*
X105388053Y-108533066D01*
X105388053Y-108533066D02*
X105483291Y-108580685D01*
X105483291Y-108580685D02*
X105530910Y-108628304D01*
X105530910Y-108628304D02*
X105578529Y-108723542D01*
X105578529Y-108723542D02*
X105578529Y-109104494D01*
X106054720Y-107580685D02*
X106054720Y-108152113D01*
X106054720Y-107866399D02*
X105054720Y-107866399D01*
X105054720Y-107866399D02*
X105197577Y-107961637D01*
X105197577Y-107961637D02*
X105292815Y-108056875D01*
X105292815Y-108056875D02*
X105340434Y-108152113D01*
X105149958Y-107199732D02*
X105102339Y-107152113D01*
X105102339Y-107152113D02*
X105054720Y-107056875D01*
X105054720Y-107056875D02*
X105054720Y-106818780D01*
X105054720Y-106818780D02*
X105102339Y-106723542D01*
X105102339Y-106723542D02*
X105149958Y-106675923D01*
X105149958Y-106675923D02*
X105245196Y-106628304D01*
X105245196Y-106628304D02*
X105340434Y-106628304D01*
X105340434Y-106628304D02*
X105483291Y-106675923D01*
X105483291Y-106675923D02*
X106054720Y-107247351D01*
X106054720Y-107247351D02*
X106054720Y-106628304D01*
X93720923Y-84178469D02*
X94339970Y-84178469D01*
X94339970Y-84178469D02*
X94006637Y-84559421D01*
X94006637Y-84559421D02*
X94149494Y-84559421D01*
X94149494Y-84559421D02*
X94244732Y-84607040D01*
X94244732Y-84607040D02*
X94292351Y-84654659D01*
X94292351Y-84654659D02*
X94339970Y-84749897D01*
X94339970Y-84749897D02*
X94339970Y-84987992D01*
X94339970Y-84987992D02*
X94292351Y-85083230D01*
X94292351Y-85083230D02*
X94244732Y-85130850D01*
X94244732Y-85130850D02*
X94149494Y-85178469D01*
X94149494Y-85178469D02*
X93863780Y-85178469D01*
X93863780Y-85178469D02*
X93768542Y-85130850D01*
X93768542Y-85130850D02*
X93720923Y-85083230D01*
X94768542Y-85083230D02*
X94816161Y-85130850D01*
X94816161Y-85130850D02*
X94768542Y-85178469D01*
X94768542Y-85178469D02*
X94720923Y-85130850D01*
X94720923Y-85130850D02*
X94768542Y-85083230D01*
X94768542Y-85083230D02*
X94768542Y-85178469D01*
X95149494Y-84178469D02*
X95768541Y-84178469D01*
X95768541Y-84178469D02*
X95435208Y-84559421D01*
X95435208Y-84559421D02*
X95578065Y-84559421D01*
X95578065Y-84559421D02*
X95673303Y-84607040D01*
X95673303Y-84607040D02*
X95720922Y-84654659D01*
X95720922Y-84654659D02*
X95768541Y-84749897D01*
X95768541Y-84749897D02*
X95768541Y-84987992D01*
X95768541Y-84987992D02*
X95720922Y-85083230D01*
X95720922Y-85083230D02*
X95673303Y-85130850D01*
X95673303Y-85130850D02*
X95578065Y-85178469D01*
X95578065Y-85178469D02*
X95292351Y-85178469D01*
X95292351Y-85178469D02*
X95197113Y-85130850D01*
X95197113Y-85130850D02*
X95149494Y-85083230D01*
X96101875Y-84511802D02*
X96339970Y-85178469D01*
X96339970Y-85178469D02*
X96578065Y-84511802D01*
X94328065Y-89306088D02*
X94232827Y-89258469D01*
X94232827Y-89258469D02*
X94089970Y-89258469D01*
X94089970Y-89258469D02*
X93947113Y-89306088D01*
X93947113Y-89306088D02*
X93851875Y-89401326D01*
X93851875Y-89401326D02*
X93804256Y-89496564D01*
X93804256Y-89496564D02*
X93756637Y-89687040D01*
X93756637Y-89687040D02*
X93756637Y-89829897D01*
X93756637Y-89829897D02*
X93804256Y-90020373D01*
X93804256Y-90020373D02*
X93851875Y-90115611D01*
X93851875Y-90115611D02*
X93947113Y-90210850D01*
X93947113Y-90210850D02*
X94089970Y-90258469D01*
X94089970Y-90258469D02*
X94185208Y-90258469D01*
X94185208Y-90258469D02*
X94328065Y-90210850D01*
X94328065Y-90210850D02*
X94375684Y-90163230D01*
X94375684Y-90163230D02*
X94375684Y-89829897D01*
X94375684Y-89829897D02*
X94185208Y-89829897D01*
X94804256Y-90258469D02*
X94804256Y-89258469D01*
X94804256Y-89258469D02*
X95185208Y-89258469D01*
X95185208Y-89258469D02*
X95280446Y-89306088D01*
X95280446Y-89306088D02*
X95328065Y-89353707D01*
X95328065Y-89353707D02*
X95375684Y-89448945D01*
X95375684Y-89448945D02*
X95375684Y-89591802D01*
X95375684Y-89591802D02*
X95328065Y-89687040D01*
X95328065Y-89687040D02*
X95280446Y-89734659D01*
X95280446Y-89734659D02*
X95185208Y-89782278D01*
X95185208Y-89782278D02*
X94804256Y-89782278D01*
X95756637Y-89353707D02*
X95804256Y-89306088D01*
X95804256Y-89306088D02*
X95899494Y-89258469D01*
X95899494Y-89258469D02*
X96137589Y-89258469D01*
X96137589Y-89258469D02*
X96232827Y-89306088D01*
X96232827Y-89306088D02*
X96280446Y-89353707D01*
X96280446Y-89353707D02*
X96328065Y-89448945D01*
X96328065Y-89448945D02*
X96328065Y-89544183D01*
X96328065Y-89544183D02*
X96280446Y-89687040D01*
X96280446Y-89687040D02*
X95709018Y-90258469D01*
X95709018Y-90258469D02*
X96328065Y-90258469D01*
X96899494Y-89687040D02*
X96804256Y-89639421D01*
X96804256Y-89639421D02*
X96756637Y-89591802D01*
X96756637Y-89591802D02*
X96709018Y-89496564D01*
X96709018Y-89496564D02*
X96709018Y-89448945D01*
X96709018Y-89448945D02*
X96756637Y-89353707D01*
X96756637Y-89353707D02*
X96804256Y-89306088D01*
X96804256Y-89306088D02*
X96899494Y-89258469D01*
X96899494Y-89258469D02*
X97089970Y-89258469D01*
X97089970Y-89258469D02*
X97185208Y-89306088D01*
X97185208Y-89306088D02*
X97232827Y-89353707D01*
X97232827Y-89353707D02*
X97280446Y-89448945D01*
X97280446Y-89448945D02*
X97280446Y-89496564D01*
X97280446Y-89496564D02*
X97232827Y-89591802D01*
X97232827Y-89591802D02*
X97185208Y-89639421D01*
X97185208Y-89639421D02*
X97089970Y-89687040D01*
X97089970Y-89687040D02*
X96899494Y-89687040D01*
X96899494Y-89687040D02*
X96804256Y-89734659D01*
X96804256Y-89734659D02*
X96756637Y-89782278D01*
X96756637Y-89782278D02*
X96709018Y-89877516D01*
X96709018Y-89877516D02*
X96709018Y-90067992D01*
X96709018Y-90067992D02*
X96756637Y-90163230D01*
X96756637Y-90163230D02*
X96804256Y-90210850D01*
X96804256Y-90210850D02*
X96899494Y-90258469D01*
X96899494Y-90258469D02*
X97089970Y-90258469D01*
X97089970Y-90258469D02*
X97185208Y-90210850D01*
X97185208Y-90210850D02*
X97232827Y-90163230D01*
X97232827Y-90163230D02*
X97280446Y-90067992D01*
X97280446Y-90067992D02*
X97280446Y-89877516D01*
X97280446Y-89877516D02*
X97232827Y-89782278D01*
X97232827Y-89782278D02*
X97185208Y-89734659D01*
X97185208Y-89734659D02*
X97089970Y-89687040D01*
X99879838Y-109580685D02*
X99832219Y-109675923D01*
X99832219Y-109675923D02*
X99832219Y-109818780D01*
X99832219Y-109818780D02*
X99879838Y-109961637D01*
X99879838Y-109961637D02*
X99975076Y-110056875D01*
X99975076Y-110056875D02*
X100070314Y-110104494D01*
X100070314Y-110104494D02*
X100260790Y-110152113D01*
X100260790Y-110152113D02*
X100403647Y-110152113D01*
X100403647Y-110152113D02*
X100594123Y-110104494D01*
X100594123Y-110104494D02*
X100689361Y-110056875D01*
X100689361Y-110056875D02*
X100784600Y-109961637D01*
X100784600Y-109961637D02*
X100832219Y-109818780D01*
X100832219Y-109818780D02*
X100832219Y-109723542D01*
X100832219Y-109723542D02*
X100784600Y-109580685D01*
X100784600Y-109580685D02*
X100736980Y-109533066D01*
X100736980Y-109533066D02*
X100403647Y-109533066D01*
X100403647Y-109533066D02*
X100403647Y-109723542D01*
X100832219Y-109104494D02*
X99832219Y-109104494D01*
X99832219Y-109104494D02*
X99832219Y-108723542D01*
X99832219Y-108723542D02*
X99879838Y-108628304D01*
X99879838Y-108628304D02*
X99927457Y-108580685D01*
X99927457Y-108580685D02*
X100022695Y-108533066D01*
X100022695Y-108533066D02*
X100165552Y-108533066D01*
X100165552Y-108533066D02*
X100260790Y-108580685D01*
X100260790Y-108580685D02*
X100308409Y-108628304D01*
X100308409Y-108628304D02*
X100356028Y-108723542D01*
X100356028Y-108723542D02*
X100356028Y-109104494D01*
X100832219Y-107580685D02*
X100832219Y-108152113D01*
X100832219Y-107866399D02*
X99832219Y-107866399D01*
X99832219Y-107866399D02*
X99975076Y-107961637D01*
X99975076Y-107961637D02*
X100070314Y-108056875D01*
X100070314Y-108056875D02*
X100117933Y-108152113D01*
X100165552Y-106723542D02*
X100832219Y-106723542D01*
X99784600Y-106961637D02*
X100498885Y-107199732D01*
X100498885Y-107199732D02*
X100498885Y-106580685D01*
X94852339Y-109580685D02*
X94804720Y-109675923D01*
X94804720Y-109675923D02*
X94804720Y-109818780D01*
X94804720Y-109818780D02*
X94852339Y-109961637D01*
X94852339Y-109961637D02*
X94947577Y-110056875D01*
X94947577Y-110056875D02*
X95042815Y-110104494D01*
X95042815Y-110104494D02*
X95233291Y-110152113D01*
X95233291Y-110152113D02*
X95376148Y-110152113D01*
X95376148Y-110152113D02*
X95566624Y-110104494D01*
X95566624Y-110104494D02*
X95661862Y-110056875D01*
X95661862Y-110056875D02*
X95757101Y-109961637D01*
X95757101Y-109961637D02*
X95804720Y-109818780D01*
X95804720Y-109818780D02*
X95804720Y-109723542D01*
X95804720Y-109723542D02*
X95757101Y-109580685D01*
X95757101Y-109580685D02*
X95709481Y-109533066D01*
X95709481Y-109533066D02*
X95376148Y-109533066D01*
X95376148Y-109533066D02*
X95376148Y-109723542D01*
X95804720Y-109104494D02*
X94804720Y-109104494D01*
X94804720Y-109104494D02*
X94804720Y-108723542D01*
X94804720Y-108723542D02*
X94852339Y-108628304D01*
X94852339Y-108628304D02*
X94899958Y-108580685D01*
X94899958Y-108580685D02*
X94995196Y-108533066D01*
X94995196Y-108533066D02*
X95138053Y-108533066D01*
X95138053Y-108533066D02*
X95233291Y-108580685D01*
X95233291Y-108580685D02*
X95280910Y-108628304D01*
X95280910Y-108628304D02*
X95328529Y-108723542D01*
X95328529Y-108723542D02*
X95328529Y-109104494D01*
X95804720Y-107580685D02*
X95804720Y-108152113D01*
X95804720Y-107866399D02*
X94804720Y-107866399D01*
X94804720Y-107866399D02*
X94947577Y-107961637D01*
X94947577Y-107961637D02*
X95042815Y-108056875D01*
X95042815Y-108056875D02*
X95090434Y-108152113D01*
X94804720Y-106723542D02*
X94804720Y-106914018D01*
X94804720Y-106914018D02*
X94852339Y-107009256D01*
X94852339Y-107009256D02*
X94899958Y-107056875D01*
X94899958Y-107056875D02*
X95042815Y-107152113D01*
X95042815Y-107152113D02*
X95233291Y-107199732D01*
X95233291Y-107199732D02*
X95614243Y-107199732D01*
X95614243Y-107199732D02*
X95709481Y-107152113D01*
X95709481Y-107152113D02*
X95757101Y-107104494D01*
X95757101Y-107104494D02*
X95804720Y-107009256D01*
X95804720Y-107009256D02*
X95804720Y-106818780D01*
X95804720Y-106818780D02*
X95757101Y-106723542D01*
X95757101Y-106723542D02*
X95709481Y-106675923D01*
X95709481Y-106675923D02*
X95614243Y-106628304D01*
X95614243Y-106628304D02*
X95376148Y-106628304D01*
X95376148Y-106628304D02*
X95280910Y-106675923D01*
X95280910Y-106675923D02*
X95233291Y-106723542D01*
X95233291Y-106723542D02*
X95185672Y-106818780D01*
X95185672Y-106818780D02*
X95185672Y-107009256D01*
X95185672Y-107009256D02*
X95233291Y-107104494D01*
X95233291Y-107104494D02*
X95280910Y-107152113D01*
X95280910Y-107152113D02*
X95376148Y-107199732D01*
X94435208Y-79056088D02*
X94339970Y-79008469D01*
X94339970Y-79008469D02*
X94197113Y-79008469D01*
X94197113Y-79008469D02*
X94054256Y-79056088D01*
X94054256Y-79056088D02*
X93959018Y-79151326D01*
X93959018Y-79151326D02*
X93911399Y-79246564D01*
X93911399Y-79246564D02*
X93863780Y-79437040D01*
X93863780Y-79437040D02*
X93863780Y-79579897D01*
X93863780Y-79579897D02*
X93911399Y-79770373D01*
X93911399Y-79770373D02*
X93959018Y-79865611D01*
X93959018Y-79865611D02*
X94054256Y-79960850D01*
X94054256Y-79960850D02*
X94197113Y-80008469D01*
X94197113Y-80008469D02*
X94292351Y-80008469D01*
X94292351Y-80008469D02*
X94435208Y-79960850D01*
X94435208Y-79960850D02*
X94482827Y-79913230D01*
X94482827Y-79913230D02*
X94482827Y-79579897D01*
X94482827Y-79579897D02*
X94292351Y-79579897D01*
X94911399Y-80008469D02*
X94911399Y-79008469D01*
X94911399Y-79008469D02*
X95482827Y-80008469D01*
X95482827Y-80008469D02*
X95482827Y-79008469D01*
X95959018Y-80008469D02*
X95959018Y-79008469D01*
X95959018Y-79008469D02*
X96197113Y-79008469D01*
X96197113Y-79008469D02*
X96339970Y-79056088D01*
X96339970Y-79056088D02*
X96435208Y-79151326D01*
X96435208Y-79151326D02*
X96482827Y-79246564D01*
X96482827Y-79246564D02*
X96530446Y-79437040D01*
X96530446Y-79437040D02*
X96530446Y-79579897D01*
X96530446Y-79579897D02*
X96482827Y-79770373D01*
X96482827Y-79770373D02*
X96435208Y-79865611D01*
X96435208Y-79865611D02*
X96339970Y-79960850D01*
X96339970Y-79960850D02*
X96197113Y-80008469D01*
X96197113Y-80008469D02*
X95959018Y-80008469D01*
X107602339Y-108912767D02*
X107554720Y-109008005D01*
X107554720Y-109008005D02*
X107554720Y-109150862D01*
X107554720Y-109150862D02*
X107602339Y-109293719D01*
X107602339Y-109293719D02*
X107697577Y-109388957D01*
X107697577Y-109388957D02*
X107792815Y-109436576D01*
X107792815Y-109436576D02*
X107983291Y-109484195D01*
X107983291Y-109484195D02*
X108126148Y-109484195D01*
X108126148Y-109484195D02*
X108316624Y-109436576D01*
X108316624Y-109436576D02*
X108411862Y-109388957D01*
X108411862Y-109388957D02*
X108507101Y-109293719D01*
X108507101Y-109293719D02*
X108554720Y-109150862D01*
X108554720Y-109150862D02*
X108554720Y-109055624D01*
X108554720Y-109055624D02*
X108507101Y-108912767D01*
X108507101Y-108912767D02*
X108459481Y-108865148D01*
X108459481Y-108865148D02*
X108126148Y-108865148D01*
X108126148Y-108865148D02*
X108126148Y-109055624D01*
X108554720Y-108436576D02*
X107554720Y-108436576D01*
X107554720Y-108436576D02*
X107554720Y-108055624D01*
X107554720Y-108055624D02*
X107602339Y-107960386D01*
X107602339Y-107960386D02*
X107649958Y-107912767D01*
X107649958Y-107912767D02*
X107745196Y-107865148D01*
X107745196Y-107865148D02*
X107888053Y-107865148D01*
X107888053Y-107865148D02*
X107983291Y-107912767D01*
X107983291Y-107912767D02*
X108030910Y-107960386D01*
X108030910Y-107960386D02*
X108078529Y-108055624D01*
X108078529Y-108055624D02*
X108078529Y-108436576D01*
X108554720Y-107388957D02*
X108554720Y-107198481D01*
X108554720Y-107198481D02*
X108507101Y-107103243D01*
X108507101Y-107103243D02*
X108459481Y-107055624D01*
X108459481Y-107055624D02*
X108316624Y-106960386D01*
X108316624Y-106960386D02*
X108126148Y-106912767D01*
X108126148Y-106912767D02*
X107745196Y-106912767D01*
X107745196Y-106912767D02*
X107649958Y-106960386D01*
X107649958Y-106960386D02*
X107602339Y-107008005D01*
X107602339Y-107008005D02*
X107554720Y-107103243D01*
X107554720Y-107103243D02*
X107554720Y-107293719D01*
X107554720Y-107293719D02*
X107602339Y-107388957D01*
X107602339Y-107388957D02*
X107649958Y-107436576D01*
X107649958Y-107436576D02*
X107745196Y-107484195D01*
X107745196Y-107484195D02*
X107983291Y-107484195D01*
X107983291Y-107484195D02*
X108078529Y-107436576D01*
X108078529Y-107436576D02*
X108126148Y-107388957D01*
X108126148Y-107388957D02*
X108173767Y-107293719D01*
X108173767Y-107293719D02*
X108173767Y-107103243D01*
X108173767Y-107103243D02*
X108126148Y-107008005D01*
X108126148Y-107008005D02*
X108078529Y-106960386D01*
X108078529Y-106960386D02*
X107983291Y-106912767D01*
X97352339Y-109580685D02*
X97304720Y-109675923D01*
X97304720Y-109675923D02*
X97304720Y-109818780D01*
X97304720Y-109818780D02*
X97352339Y-109961637D01*
X97352339Y-109961637D02*
X97447577Y-110056875D01*
X97447577Y-110056875D02*
X97542815Y-110104494D01*
X97542815Y-110104494D02*
X97733291Y-110152113D01*
X97733291Y-110152113D02*
X97876148Y-110152113D01*
X97876148Y-110152113D02*
X98066624Y-110104494D01*
X98066624Y-110104494D02*
X98161862Y-110056875D01*
X98161862Y-110056875D02*
X98257101Y-109961637D01*
X98257101Y-109961637D02*
X98304720Y-109818780D01*
X98304720Y-109818780D02*
X98304720Y-109723542D01*
X98304720Y-109723542D02*
X98257101Y-109580685D01*
X98257101Y-109580685D02*
X98209481Y-109533066D01*
X98209481Y-109533066D02*
X97876148Y-109533066D01*
X97876148Y-109533066D02*
X97876148Y-109723542D01*
X98304720Y-109104494D02*
X97304720Y-109104494D01*
X97304720Y-109104494D02*
X97304720Y-108723542D01*
X97304720Y-108723542D02*
X97352339Y-108628304D01*
X97352339Y-108628304D02*
X97399958Y-108580685D01*
X97399958Y-108580685D02*
X97495196Y-108533066D01*
X97495196Y-108533066D02*
X97638053Y-108533066D01*
X97638053Y-108533066D02*
X97733291Y-108580685D01*
X97733291Y-108580685D02*
X97780910Y-108628304D01*
X97780910Y-108628304D02*
X97828529Y-108723542D01*
X97828529Y-108723542D02*
X97828529Y-109104494D01*
X98304720Y-107580685D02*
X98304720Y-108152113D01*
X98304720Y-107866399D02*
X97304720Y-107866399D01*
X97304720Y-107866399D02*
X97447577Y-107961637D01*
X97447577Y-107961637D02*
X97542815Y-108056875D01*
X97542815Y-108056875D02*
X97590434Y-108152113D01*
X97304720Y-106675923D02*
X97304720Y-107152113D01*
X97304720Y-107152113D02*
X97780910Y-107199732D01*
X97780910Y-107199732D02*
X97733291Y-107152113D01*
X97733291Y-107152113D02*
X97685672Y-107056875D01*
X97685672Y-107056875D02*
X97685672Y-106818780D01*
X97685672Y-106818780D02*
X97733291Y-106723542D01*
X97733291Y-106723542D02*
X97780910Y-106675923D01*
X97780910Y-106675923D02*
X97876148Y-106628304D01*
X97876148Y-106628304D02*
X98114243Y-106628304D01*
X98114243Y-106628304D02*
X98209481Y-106675923D01*
X98209481Y-106675923D02*
X98257101Y-106723542D01*
X98257101Y-106723542D02*
X98304720Y-106818780D01*
X98304720Y-106818780D02*
X98304720Y-107056875D01*
X98304720Y-107056875D02*
X98257101Y-107152113D01*
X98257101Y-107152113D02*
X98209481Y-107199732D01*
X104995983Y-86766088D02*
X104900745Y-86718469D01*
X104900745Y-86718469D02*
X104757888Y-86718469D01*
X104757888Y-86718469D02*
X104615031Y-86766088D01*
X104615031Y-86766088D02*
X104519793Y-86861326D01*
X104519793Y-86861326D02*
X104472174Y-86956564D01*
X104472174Y-86956564D02*
X104424555Y-87147040D01*
X104424555Y-87147040D02*
X104424555Y-87289897D01*
X104424555Y-87289897D02*
X104472174Y-87480373D01*
X104472174Y-87480373D02*
X104519793Y-87575611D01*
X104519793Y-87575611D02*
X104615031Y-87670850D01*
X104615031Y-87670850D02*
X104757888Y-87718469D01*
X104757888Y-87718469D02*
X104853126Y-87718469D01*
X104853126Y-87718469D02*
X104995983Y-87670850D01*
X104995983Y-87670850D02*
X105043602Y-87623230D01*
X105043602Y-87623230D02*
X105043602Y-87289897D01*
X105043602Y-87289897D02*
X104853126Y-87289897D01*
X105472174Y-87718469D02*
X105472174Y-86718469D01*
X105472174Y-86718469D02*
X105853126Y-86718469D01*
X105853126Y-86718469D02*
X105948364Y-86766088D01*
X105948364Y-86766088D02*
X105995983Y-86813707D01*
X105995983Y-86813707D02*
X106043602Y-86908945D01*
X106043602Y-86908945D02*
X106043602Y-87051802D01*
X106043602Y-87051802D02*
X105995983Y-87147040D01*
X105995983Y-87147040D02*
X105948364Y-87194659D01*
X105948364Y-87194659D02*
X105853126Y-87242278D01*
X105853126Y-87242278D02*
X105472174Y-87242278D01*
X106424555Y-86813707D02*
X106472174Y-86766088D01*
X106472174Y-86766088D02*
X106567412Y-86718469D01*
X106567412Y-86718469D02*
X106805507Y-86718469D01*
X106805507Y-86718469D02*
X106900745Y-86766088D01*
X106900745Y-86766088D02*
X106948364Y-86813707D01*
X106948364Y-86813707D02*
X106995983Y-86908945D01*
X106995983Y-86908945D02*
X106995983Y-87004183D01*
X106995983Y-87004183D02*
X106948364Y-87147040D01*
X106948364Y-87147040D02*
X106376936Y-87718469D01*
X106376936Y-87718469D02*
X106995983Y-87718469D01*
X104995983Y-91846088D02*
X104900745Y-91798469D01*
X104900745Y-91798469D02*
X104757888Y-91798469D01*
X104757888Y-91798469D02*
X104615031Y-91846088D01*
X104615031Y-91846088D02*
X104519793Y-91941326D01*
X104519793Y-91941326D02*
X104472174Y-92036564D01*
X104472174Y-92036564D02*
X104424555Y-92227040D01*
X104424555Y-92227040D02*
X104424555Y-92369897D01*
X104424555Y-92369897D02*
X104472174Y-92560373D01*
X104472174Y-92560373D02*
X104519793Y-92655611D01*
X104519793Y-92655611D02*
X104615031Y-92750850D01*
X104615031Y-92750850D02*
X104757888Y-92798469D01*
X104757888Y-92798469D02*
X104853126Y-92798469D01*
X104853126Y-92798469D02*
X104995983Y-92750850D01*
X104995983Y-92750850D02*
X105043602Y-92703230D01*
X105043602Y-92703230D02*
X105043602Y-92369897D01*
X105043602Y-92369897D02*
X104853126Y-92369897D01*
X105472174Y-92798469D02*
X105472174Y-91798469D01*
X105472174Y-91798469D02*
X105853126Y-91798469D01*
X105853126Y-91798469D02*
X105948364Y-91846088D01*
X105948364Y-91846088D02*
X105995983Y-91893707D01*
X105995983Y-91893707D02*
X106043602Y-91988945D01*
X106043602Y-91988945D02*
X106043602Y-92131802D01*
X106043602Y-92131802D02*
X105995983Y-92227040D01*
X105995983Y-92227040D02*
X105948364Y-92274659D01*
X105948364Y-92274659D02*
X105853126Y-92322278D01*
X105853126Y-92322278D02*
X105472174Y-92322278D01*
X106900745Y-92131802D02*
X106900745Y-92798469D01*
X106662650Y-91750850D02*
X106424555Y-92465135D01*
X106424555Y-92465135D02*
X107043602Y-92465135D01*
X105745983Y-75008469D02*
X105174555Y-75008469D01*
X105460269Y-75008469D02*
X105460269Y-74008469D01*
X105460269Y-74008469D02*
X105365031Y-74151326D01*
X105365031Y-74151326D02*
X105269793Y-74246564D01*
X105269793Y-74246564D02*
X105174555Y-74294183D01*
X106365031Y-74008469D02*
X106460269Y-74008469D01*
X106460269Y-74008469D02*
X106555507Y-74056088D01*
X106555507Y-74056088D02*
X106603126Y-74103707D01*
X106603126Y-74103707D02*
X106650745Y-74198945D01*
X106650745Y-74198945D02*
X106698364Y-74389421D01*
X106698364Y-74389421D02*
X106698364Y-74627516D01*
X106698364Y-74627516D02*
X106650745Y-74817992D01*
X106650745Y-74817992D02*
X106603126Y-74913230D01*
X106603126Y-74913230D02*
X106555507Y-74960850D01*
X106555507Y-74960850D02*
X106460269Y-75008469D01*
X106460269Y-75008469D02*
X106365031Y-75008469D01*
X106365031Y-75008469D02*
X106269793Y-74960850D01*
X106269793Y-74960850D02*
X106222174Y-74913230D01*
X106222174Y-74913230D02*
X106174555Y-74817992D01*
X106174555Y-74817992D02*
X106126936Y-74627516D01*
X106126936Y-74627516D02*
X106126936Y-74389421D01*
X106126936Y-74389421D02*
X106174555Y-74198945D01*
X106174555Y-74198945D02*
X106222174Y-74103707D01*
X106222174Y-74103707D02*
X106269793Y-74056088D01*
X106269793Y-74056088D02*
X106365031Y-74008469D01*
X94328065Y-102006088D02*
X94232827Y-101958469D01*
X94232827Y-101958469D02*
X94089970Y-101958469D01*
X94089970Y-101958469D02*
X93947113Y-102006088D01*
X93947113Y-102006088D02*
X93851875Y-102101326D01*
X93851875Y-102101326D02*
X93804256Y-102196564D01*
X93804256Y-102196564D02*
X93756637Y-102387040D01*
X93756637Y-102387040D02*
X93756637Y-102529897D01*
X93756637Y-102529897D02*
X93804256Y-102720373D01*
X93804256Y-102720373D02*
X93851875Y-102815611D01*
X93851875Y-102815611D02*
X93947113Y-102910850D01*
X93947113Y-102910850D02*
X94089970Y-102958469D01*
X94089970Y-102958469D02*
X94185208Y-102958469D01*
X94185208Y-102958469D02*
X94328065Y-102910850D01*
X94328065Y-102910850D02*
X94375684Y-102863230D01*
X94375684Y-102863230D02*
X94375684Y-102529897D01*
X94375684Y-102529897D02*
X94185208Y-102529897D01*
X94804256Y-102958469D02*
X94804256Y-101958469D01*
X94804256Y-101958469D02*
X95185208Y-101958469D01*
X95185208Y-101958469D02*
X95280446Y-102006088D01*
X95280446Y-102006088D02*
X95328065Y-102053707D01*
X95328065Y-102053707D02*
X95375684Y-102148945D01*
X95375684Y-102148945D02*
X95375684Y-102291802D01*
X95375684Y-102291802D02*
X95328065Y-102387040D01*
X95328065Y-102387040D02*
X95280446Y-102434659D01*
X95280446Y-102434659D02*
X95185208Y-102482278D01*
X95185208Y-102482278D02*
X94804256Y-102482278D01*
X95756637Y-102053707D02*
X95804256Y-102006088D01*
X95804256Y-102006088D02*
X95899494Y-101958469D01*
X95899494Y-101958469D02*
X96137589Y-101958469D01*
X96137589Y-101958469D02*
X96232827Y-102006088D01*
X96232827Y-102006088D02*
X96280446Y-102053707D01*
X96280446Y-102053707D02*
X96328065Y-102148945D01*
X96328065Y-102148945D02*
X96328065Y-102244183D01*
X96328065Y-102244183D02*
X96280446Y-102387040D01*
X96280446Y-102387040D02*
X95709018Y-102958469D01*
X95709018Y-102958469D02*
X96328065Y-102958469D01*
X96661399Y-101958469D02*
X97280446Y-101958469D01*
X97280446Y-101958469D02*
X96947113Y-102339421D01*
X96947113Y-102339421D02*
X97089970Y-102339421D01*
X97089970Y-102339421D02*
X97185208Y-102387040D01*
X97185208Y-102387040D02*
X97232827Y-102434659D01*
X97232827Y-102434659D02*
X97280446Y-102529897D01*
X97280446Y-102529897D02*
X97280446Y-102767992D01*
X97280446Y-102767992D02*
X97232827Y-102863230D01*
X97232827Y-102863230D02*
X97185208Y-102910850D01*
X97185208Y-102910850D02*
X97089970Y-102958469D01*
X97089970Y-102958469D02*
X96804256Y-102958469D01*
X96804256Y-102958469D02*
X96709018Y-102910850D01*
X96709018Y-102910850D02*
X96661399Y-102863230D01*
X94566160Y-82638469D02*
X94232827Y-82162278D01*
X93994732Y-82638469D02*
X93994732Y-81638469D01*
X93994732Y-81638469D02*
X94375684Y-81638469D01*
X94375684Y-81638469D02*
X94470922Y-81686088D01*
X94470922Y-81686088D02*
X94518541Y-81733707D01*
X94518541Y-81733707D02*
X94566160Y-81828945D01*
X94566160Y-81828945D02*
X94566160Y-81971802D01*
X94566160Y-81971802D02*
X94518541Y-82067040D01*
X94518541Y-82067040D02*
X94470922Y-82114659D01*
X94470922Y-82114659D02*
X94375684Y-82162278D01*
X94375684Y-82162278D02*
X93994732Y-82162278D01*
X94947113Y-82590850D02*
X95089970Y-82638469D01*
X95089970Y-82638469D02*
X95328065Y-82638469D01*
X95328065Y-82638469D02*
X95423303Y-82590850D01*
X95423303Y-82590850D02*
X95470922Y-82543230D01*
X95470922Y-82543230D02*
X95518541Y-82447992D01*
X95518541Y-82447992D02*
X95518541Y-82352754D01*
X95518541Y-82352754D02*
X95470922Y-82257516D01*
X95470922Y-82257516D02*
X95423303Y-82209897D01*
X95423303Y-82209897D02*
X95328065Y-82162278D01*
X95328065Y-82162278D02*
X95137589Y-82114659D01*
X95137589Y-82114659D02*
X95042351Y-82067040D01*
X95042351Y-82067040D02*
X94994732Y-82019421D01*
X94994732Y-82019421D02*
X94947113Y-81924183D01*
X94947113Y-81924183D02*
X94947113Y-81828945D01*
X94947113Y-81828945D02*
X94994732Y-81733707D01*
X94994732Y-81733707D02*
X95042351Y-81686088D01*
X95042351Y-81686088D02*
X95137589Y-81638469D01*
X95137589Y-81638469D02*
X95375684Y-81638469D01*
X95375684Y-81638469D02*
X95518541Y-81686088D01*
X95804256Y-81638469D02*
X96375684Y-81638469D01*
X96089970Y-82638469D02*
X96089970Y-81638469D01*
X104995983Y-79146088D02*
X104900745Y-79098469D01*
X104900745Y-79098469D02*
X104757888Y-79098469D01*
X104757888Y-79098469D02*
X104615031Y-79146088D01*
X104615031Y-79146088D02*
X104519793Y-79241326D01*
X104519793Y-79241326D02*
X104472174Y-79336564D01*
X104472174Y-79336564D02*
X104424555Y-79527040D01*
X104424555Y-79527040D02*
X104424555Y-79669897D01*
X104424555Y-79669897D02*
X104472174Y-79860373D01*
X104472174Y-79860373D02*
X104519793Y-79955611D01*
X104519793Y-79955611D02*
X104615031Y-80050850D01*
X104615031Y-80050850D02*
X104757888Y-80098469D01*
X104757888Y-80098469D02*
X104853126Y-80098469D01*
X104853126Y-80098469D02*
X104995983Y-80050850D01*
X104995983Y-80050850D02*
X105043602Y-80003230D01*
X105043602Y-80003230D02*
X105043602Y-79669897D01*
X105043602Y-79669897D02*
X104853126Y-79669897D01*
X105472174Y-80098469D02*
X105472174Y-79098469D01*
X105472174Y-79098469D02*
X105853126Y-79098469D01*
X105853126Y-79098469D02*
X105948364Y-79146088D01*
X105948364Y-79146088D02*
X105995983Y-79193707D01*
X105995983Y-79193707D02*
X106043602Y-79288945D01*
X106043602Y-79288945D02*
X106043602Y-79431802D01*
X106043602Y-79431802D02*
X105995983Y-79527040D01*
X105995983Y-79527040D02*
X105948364Y-79574659D01*
X105948364Y-79574659D02*
X105853126Y-79622278D01*
X105853126Y-79622278D02*
X105472174Y-79622278D01*
X106995983Y-80098469D02*
X106424555Y-80098469D01*
X106710269Y-80098469D02*
X106710269Y-79098469D01*
X106710269Y-79098469D02*
X106615031Y-79241326D01*
X106615031Y-79241326D02*
X106519793Y-79336564D01*
X106519793Y-79336564D02*
X106424555Y-79384183D01*
X104995983Y-96926088D02*
X104900745Y-96878469D01*
X104900745Y-96878469D02*
X104757888Y-96878469D01*
X104757888Y-96878469D02*
X104615031Y-96926088D01*
X104615031Y-96926088D02*
X104519793Y-97021326D01*
X104519793Y-97021326D02*
X104472174Y-97116564D01*
X104472174Y-97116564D02*
X104424555Y-97307040D01*
X104424555Y-97307040D02*
X104424555Y-97449897D01*
X104424555Y-97449897D02*
X104472174Y-97640373D01*
X104472174Y-97640373D02*
X104519793Y-97735611D01*
X104519793Y-97735611D02*
X104615031Y-97830850D01*
X104615031Y-97830850D02*
X104757888Y-97878469D01*
X104757888Y-97878469D02*
X104853126Y-97878469D01*
X104853126Y-97878469D02*
X104995983Y-97830850D01*
X104995983Y-97830850D02*
X105043602Y-97783230D01*
X105043602Y-97783230D02*
X105043602Y-97449897D01*
X105043602Y-97449897D02*
X104853126Y-97449897D01*
X105472174Y-97878469D02*
X105472174Y-96878469D01*
X105472174Y-96878469D02*
X105853126Y-96878469D01*
X105853126Y-96878469D02*
X105948364Y-96926088D01*
X105948364Y-96926088D02*
X105995983Y-96973707D01*
X105995983Y-96973707D02*
X106043602Y-97068945D01*
X106043602Y-97068945D02*
X106043602Y-97211802D01*
X106043602Y-97211802D02*
X105995983Y-97307040D01*
X105995983Y-97307040D02*
X105948364Y-97354659D01*
X105948364Y-97354659D02*
X105853126Y-97402278D01*
X105853126Y-97402278D02*
X105472174Y-97402278D01*
X106900745Y-96878469D02*
X106710269Y-96878469D01*
X106710269Y-96878469D02*
X106615031Y-96926088D01*
X106615031Y-96926088D02*
X106567412Y-96973707D01*
X106567412Y-96973707D02*
X106472174Y-97116564D01*
X106472174Y-97116564D02*
X106424555Y-97307040D01*
X106424555Y-97307040D02*
X106424555Y-97687992D01*
X106424555Y-97687992D02*
X106472174Y-97783230D01*
X106472174Y-97783230D02*
X106519793Y-97830850D01*
X106519793Y-97830850D02*
X106615031Y-97878469D01*
X106615031Y-97878469D02*
X106805507Y-97878469D01*
X106805507Y-97878469D02*
X106900745Y-97830850D01*
X106900745Y-97830850D02*
X106948364Y-97783230D01*
X106948364Y-97783230D02*
X106995983Y-97687992D01*
X106995983Y-97687992D02*
X106995983Y-97449897D01*
X106995983Y-97449897D02*
X106948364Y-97354659D01*
X106948364Y-97354659D02*
X106900745Y-97307040D01*
X106900745Y-97307040D02*
X106805507Y-97259421D01*
X106805507Y-97259421D02*
X106615031Y-97259421D01*
X106615031Y-97259421D02*
X106519793Y-97307040D01*
X106519793Y-97307040D02*
X106472174Y-97354659D01*
X106472174Y-97354659D02*
X106424555Y-97449897D01*
X94328065Y-94386088D02*
X94232827Y-94338469D01*
X94232827Y-94338469D02*
X94089970Y-94338469D01*
X94089970Y-94338469D02*
X93947113Y-94386088D01*
X93947113Y-94386088D02*
X93851875Y-94481326D01*
X93851875Y-94481326D02*
X93804256Y-94576564D01*
X93804256Y-94576564D02*
X93756637Y-94767040D01*
X93756637Y-94767040D02*
X93756637Y-94909897D01*
X93756637Y-94909897D02*
X93804256Y-95100373D01*
X93804256Y-95100373D02*
X93851875Y-95195611D01*
X93851875Y-95195611D02*
X93947113Y-95290850D01*
X93947113Y-95290850D02*
X94089970Y-95338469D01*
X94089970Y-95338469D02*
X94185208Y-95338469D01*
X94185208Y-95338469D02*
X94328065Y-95290850D01*
X94328065Y-95290850D02*
X94375684Y-95243230D01*
X94375684Y-95243230D02*
X94375684Y-94909897D01*
X94375684Y-94909897D02*
X94185208Y-94909897D01*
X94804256Y-95338469D02*
X94804256Y-94338469D01*
X94804256Y-94338469D02*
X95185208Y-94338469D01*
X95185208Y-94338469D02*
X95280446Y-94386088D01*
X95280446Y-94386088D02*
X95328065Y-94433707D01*
X95328065Y-94433707D02*
X95375684Y-94528945D01*
X95375684Y-94528945D02*
X95375684Y-94671802D01*
X95375684Y-94671802D02*
X95328065Y-94767040D01*
X95328065Y-94767040D02*
X95280446Y-94814659D01*
X95280446Y-94814659D02*
X95185208Y-94862278D01*
X95185208Y-94862278D02*
X94804256Y-94862278D01*
X95756637Y-94433707D02*
X95804256Y-94386088D01*
X95804256Y-94386088D02*
X95899494Y-94338469D01*
X95899494Y-94338469D02*
X96137589Y-94338469D01*
X96137589Y-94338469D02*
X96232827Y-94386088D01*
X96232827Y-94386088D02*
X96280446Y-94433707D01*
X96280446Y-94433707D02*
X96328065Y-94528945D01*
X96328065Y-94528945D02*
X96328065Y-94624183D01*
X96328065Y-94624183D02*
X96280446Y-94767040D01*
X96280446Y-94767040D02*
X95709018Y-95338469D01*
X95709018Y-95338469D02*
X96328065Y-95338469D01*
X97185208Y-94338469D02*
X96994732Y-94338469D01*
X96994732Y-94338469D02*
X96899494Y-94386088D01*
X96899494Y-94386088D02*
X96851875Y-94433707D01*
X96851875Y-94433707D02*
X96756637Y-94576564D01*
X96756637Y-94576564D02*
X96709018Y-94767040D01*
X96709018Y-94767040D02*
X96709018Y-95147992D01*
X96709018Y-95147992D02*
X96756637Y-95243230D01*
X96756637Y-95243230D02*
X96804256Y-95290850D01*
X96804256Y-95290850D02*
X96899494Y-95338469D01*
X96899494Y-95338469D02*
X97089970Y-95338469D01*
X97089970Y-95338469D02*
X97185208Y-95290850D01*
X97185208Y-95290850D02*
X97232827Y-95243230D01*
X97232827Y-95243230D02*
X97280446Y-95147992D01*
X97280446Y-95147992D02*
X97280446Y-94909897D01*
X97280446Y-94909897D02*
X97232827Y-94814659D01*
X97232827Y-94814659D02*
X97185208Y-94767040D01*
X97185208Y-94767040D02*
X97089970Y-94719421D01*
X97089970Y-94719421D02*
X96899494Y-94719421D01*
X96899494Y-94719421D02*
X96804256Y-94767040D01*
X96804256Y-94767040D02*
X96756637Y-94814659D01*
X96756637Y-94814659D02*
X96709018Y-94909897D01*
X94328065Y-96926088D02*
X94232827Y-96878469D01*
X94232827Y-96878469D02*
X94089970Y-96878469D01*
X94089970Y-96878469D02*
X93947113Y-96926088D01*
X93947113Y-96926088D02*
X93851875Y-97021326D01*
X93851875Y-97021326D02*
X93804256Y-97116564D01*
X93804256Y-97116564D02*
X93756637Y-97307040D01*
X93756637Y-97307040D02*
X93756637Y-97449897D01*
X93756637Y-97449897D02*
X93804256Y-97640373D01*
X93804256Y-97640373D02*
X93851875Y-97735611D01*
X93851875Y-97735611D02*
X93947113Y-97830850D01*
X93947113Y-97830850D02*
X94089970Y-97878469D01*
X94089970Y-97878469D02*
X94185208Y-97878469D01*
X94185208Y-97878469D02*
X94328065Y-97830850D01*
X94328065Y-97830850D02*
X94375684Y-97783230D01*
X94375684Y-97783230D02*
X94375684Y-97449897D01*
X94375684Y-97449897D02*
X94185208Y-97449897D01*
X94804256Y-97878469D02*
X94804256Y-96878469D01*
X94804256Y-96878469D02*
X95185208Y-96878469D01*
X95185208Y-96878469D02*
X95280446Y-96926088D01*
X95280446Y-96926088D02*
X95328065Y-96973707D01*
X95328065Y-96973707D02*
X95375684Y-97068945D01*
X95375684Y-97068945D02*
X95375684Y-97211802D01*
X95375684Y-97211802D02*
X95328065Y-97307040D01*
X95328065Y-97307040D02*
X95280446Y-97354659D01*
X95280446Y-97354659D02*
X95185208Y-97402278D01*
X95185208Y-97402278D02*
X94804256Y-97402278D01*
X95756637Y-96973707D02*
X95804256Y-96926088D01*
X95804256Y-96926088D02*
X95899494Y-96878469D01*
X95899494Y-96878469D02*
X96137589Y-96878469D01*
X96137589Y-96878469D02*
X96232827Y-96926088D01*
X96232827Y-96926088D02*
X96280446Y-96973707D01*
X96280446Y-96973707D02*
X96328065Y-97068945D01*
X96328065Y-97068945D02*
X96328065Y-97164183D01*
X96328065Y-97164183D02*
X96280446Y-97307040D01*
X96280446Y-97307040D02*
X95709018Y-97878469D01*
X95709018Y-97878469D02*
X96328065Y-97878469D01*
X96709018Y-96973707D02*
X96756637Y-96926088D01*
X96756637Y-96926088D02*
X96851875Y-96878469D01*
X96851875Y-96878469D02*
X97089970Y-96878469D01*
X97089970Y-96878469D02*
X97185208Y-96926088D01*
X97185208Y-96926088D02*
X97232827Y-96973707D01*
X97232827Y-96973707D02*
X97280446Y-97068945D01*
X97280446Y-97068945D02*
X97280446Y-97164183D01*
X97280446Y-97164183D02*
X97232827Y-97307040D01*
X97232827Y-97307040D02*
X96661399Y-97878469D01*
X96661399Y-97878469D02*
X97280446Y-97878469D01*
X92352339Y-109580685D02*
X92304720Y-109675923D01*
X92304720Y-109675923D02*
X92304720Y-109818780D01*
X92304720Y-109818780D02*
X92352339Y-109961637D01*
X92352339Y-109961637D02*
X92447577Y-110056875D01*
X92447577Y-110056875D02*
X92542815Y-110104494D01*
X92542815Y-110104494D02*
X92733291Y-110152113D01*
X92733291Y-110152113D02*
X92876148Y-110152113D01*
X92876148Y-110152113D02*
X93066624Y-110104494D01*
X93066624Y-110104494D02*
X93161862Y-110056875D01*
X93161862Y-110056875D02*
X93257101Y-109961637D01*
X93257101Y-109961637D02*
X93304720Y-109818780D01*
X93304720Y-109818780D02*
X93304720Y-109723542D01*
X93304720Y-109723542D02*
X93257101Y-109580685D01*
X93257101Y-109580685D02*
X93209481Y-109533066D01*
X93209481Y-109533066D02*
X92876148Y-109533066D01*
X92876148Y-109533066D02*
X92876148Y-109723542D01*
X93304720Y-109104494D02*
X92304720Y-109104494D01*
X92304720Y-109104494D02*
X92304720Y-108723542D01*
X92304720Y-108723542D02*
X92352339Y-108628304D01*
X92352339Y-108628304D02*
X92399958Y-108580685D01*
X92399958Y-108580685D02*
X92495196Y-108533066D01*
X92495196Y-108533066D02*
X92638053Y-108533066D01*
X92638053Y-108533066D02*
X92733291Y-108580685D01*
X92733291Y-108580685D02*
X92780910Y-108628304D01*
X92780910Y-108628304D02*
X92828529Y-108723542D01*
X92828529Y-108723542D02*
X92828529Y-109104494D01*
X92399958Y-108152113D02*
X92352339Y-108104494D01*
X92352339Y-108104494D02*
X92304720Y-108009256D01*
X92304720Y-108009256D02*
X92304720Y-107771161D01*
X92304720Y-107771161D02*
X92352339Y-107675923D01*
X92352339Y-107675923D02*
X92399958Y-107628304D01*
X92399958Y-107628304D02*
X92495196Y-107580685D01*
X92495196Y-107580685D02*
X92590434Y-107580685D01*
X92590434Y-107580685D02*
X92733291Y-107628304D01*
X92733291Y-107628304D02*
X93304720Y-108199732D01*
X93304720Y-108199732D02*
X93304720Y-107580685D01*
X93304720Y-106628304D02*
X93304720Y-107199732D01*
X93304720Y-106914018D02*
X92304720Y-106914018D01*
X92304720Y-106914018D02*
X92447577Y-107009256D01*
X92447577Y-107009256D02*
X92542815Y-107104494D01*
X92542815Y-107104494D02*
X92590434Y-107199732D01*
X94328065Y-99466088D02*
X94232827Y-99418469D01*
X94232827Y-99418469D02*
X94089970Y-99418469D01*
X94089970Y-99418469D02*
X93947113Y-99466088D01*
X93947113Y-99466088D02*
X93851875Y-99561326D01*
X93851875Y-99561326D02*
X93804256Y-99656564D01*
X93804256Y-99656564D02*
X93756637Y-99847040D01*
X93756637Y-99847040D02*
X93756637Y-99989897D01*
X93756637Y-99989897D02*
X93804256Y-100180373D01*
X93804256Y-100180373D02*
X93851875Y-100275611D01*
X93851875Y-100275611D02*
X93947113Y-100370850D01*
X93947113Y-100370850D02*
X94089970Y-100418469D01*
X94089970Y-100418469D02*
X94185208Y-100418469D01*
X94185208Y-100418469D02*
X94328065Y-100370850D01*
X94328065Y-100370850D02*
X94375684Y-100323230D01*
X94375684Y-100323230D02*
X94375684Y-99989897D01*
X94375684Y-99989897D02*
X94185208Y-99989897D01*
X94804256Y-100418469D02*
X94804256Y-99418469D01*
X94804256Y-99418469D02*
X95185208Y-99418469D01*
X95185208Y-99418469D02*
X95280446Y-99466088D01*
X95280446Y-99466088D02*
X95328065Y-99513707D01*
X95328065Y-99513707D02*
X95375684Y-99608945D01*
X95375684Y-99608945D02*
X95375684Y-99751802D01*
X95375684Y-99751802D02*
X95328065Y-99847040D01*
X95328065Y-99847040D02*
X95280446Y-99894659D01*
X95280446Y-99894659D02*
X95185208Y-99942278D01*
X95185208Y-99942278D02*
X94804256Y-99942278D01*
X95756637Y-99513707D02*
X95804256Y-99466088D01*
X95804256Y-99466088D02*
X95899494Y-99418469D01*
X95899494Y-99418469D02*
X96137589Y-99418469D01*
X96137589Y-99418469D02*
X96232827Y-99466088D01*
X96232827Y-99466088D02*
X96280446Y-99513707D01*
X96280446Y-99513707D02*
X96328065Y-99608945D01*
X96328065Y-99608945D02*
X96328065Y-99704183D01*
X96328065Y-99704183D02*
X96280446Y-99847040D01*
X96280446Y-99847040D02*
X95709018Y-100418469D01*
X95709018Y-100418469D02*
X96328065Y-100418469D01*
X96947113Y-99418469D02*
X97042351Y-99418469D01*
X97042351Y-99418469D02*
X97137589Y-99466088D01*
X97137589Y-99466088D02*
X97185208Y-99513707D01*
X97185208Y-99513707D02*
X97232827Y-99608945D01*
X97232827Y-99608945D02*
X97280446Y-99799421D01*
X97280446Y-99799421D02*
X97280446Y-100037516D01*
X97280446Y-100037516D02*
X97232827Y-100227992D01*
X97232827Y-100227992D02*
X97185208Y-100323230D01*
X97185208Y-100323230D02*
X97137589Y-100370850D01*
X97137589Y-100370850D02*
X97042351Y-100418469D01*
X97042351Y-100418469D02*
X96947113Y-100418469D01*
X96947113Y-100418469D02*
X96851875Y-100370850D01*
X96851875Y-100370850D02*
X96804256Y-100323230D01*
X96804256Y-100323230D02*
X96756637Y-100227992D01*
X96756637Y-100227992D02*
X96709018Y-100037516D01*
X96709018Y-100037516D02*
X96709018Y-99799421D01*
X96709018Y-99799421D02*
X96756637Y-99608945D01*
X96756637Y-99608945D02*
X96804256Y-99513707D01*
X96804256Y-99513707D02*
X96851875Y-99466088D01*
X96851875Y-99466088D02*
X96947113Y-99418469D01*
X180945413Y-87546088D02*
X180850175Y-87498469D01*
X180850175Y-87498469D02*
X180707318Y-87498469D01*
X180707318Y-87498469D02*
X180564461Y-87546088D01*
X180564461Y-87546088D02*
X180469223Y-87641326D01*
X180469223Y-87641326D02*
X180421604Y-87736564D01*
X180421604Y-87736564D02*
X180373985Y-87927040D01*
X180373985Y-87927040D02*
X180373985Y-88069897D01*
X180373985Y-88069897D02*
X180421604Y-88260373D01*
X180421604Y-88260373D02*
X180469223Y-88355611D01*
X180469223Y-88355611D02*
X180564461Y-88450850D01*
X180564461Y-88450850D02*
X180707318Y-88498469D01*
X180707318Y-88498469D02*
X180802556Y-88498469D01*
X180802556Y-88498469D02*
X180945413Y-88450850D01*
X180945413Y-88450850D02*
X180993032Y-88403230D01*
X180993032Y-88403230D02*
X180993032Y-88069897D01*
X180993032Y-88069897D02*
X180802556Y-88069897D01*
X181421604Y-88498469D02*
X181421604Y-87498469D01*
X181421604Y-87498469D02*
X181802556Y-87498469D01*
X181802556Y-87498469D02*
X181897794Y-87546088D01*
X181897794Y-87546088D02*
X181945413Y-87593707D01*
X181945413Y-87593707D02*
X181993032Y-87688945D01*
X181993032Y-87688945D02*
X181993032Y-87831802D01*
X181993032Y-87831802D02*
X181945413Y-87927040D01*
X181945413Y-87927040D02*
X181897794Y-87974659D01*
X181897794Y-87974659D02*
X181802556Y-88022278D01*
X181802556Y-88022278D02*
X181421604Y-88022278D01*
X182373985Y-87593707D02*
X182421604Y-87546088D01*
X182421604Y-87546088D02*
X182516842Y-87498469D01*
X182516842Y-87498469D02*
X182754937Y-87498469D01*
X182754937Y-87498469D02*
X182850175Y-87546088D01*
X182850175Y-87546088D02*
X182897794Y-87593707D01*
X182897794Y-87593707D02*
X182945413Y-87688945D01*
X182945413Y-87688945D02*
X182945413Y-87784183D01*
X182945413Y-87784183D02*
X182897794Y-87927040D01*
X182897794Y-87927040D02*
X182326366Y-88498469D01*
X182326366Y-88498469D02*
X182945413Y-88498469D01*
X183421604Y-88498469D02*
X183612080Y-88498469D01*
X183612080Y-88498469D02*
X183707318Y-88450850D01*
X183707318Y-88450850D02*
X183754937Y-88403230D01*
X183754937Y-88403230D02*
X183850175Y-88260373D01*
X183850175Y-88260373D02*
X183897794Y-88069897D01*
X183897794Y-88069897D02*
X183897794Y-87688945D01*
X183897794Y-87688945D02*
X183850175Y-87593707D01*
X183850175Y-87593707D02*
X183802556Y-87546088D01*
X183802556Y-87546088D02*
X183707318Y-87498469D01*
X183707318Y-87498469D02*
X183516842Y-87498469D01*
X183516842Y-87498469D02*
X183421604Y-87546088D01*
X183421604Y-87546088D02*
X183373985Y-87593707D01*
X183373985Y-87593707D02*
X183326366Y-87688945D01*
X183326366Y-87688945D02*
X183326366Y-87927040D01*
X183326366Y-87927040D02*
X183373985Y-88022278D01*
X183373985Y-88022278D02*
X183421604Y-88069897D01*
X183421604Y-88069897D02*
X183516842Y-88117516D01*
X183516842Y-88117516D02*
X183707318Y-88117516D01*
X183707318Y-88117516D02*
X183802556Y-88069897D01*
X183802556Y-88069897D02*
X183850175Y-88022278D01*
X183850175Y-88022278D02*
X183897794Y-87927040D01*
X180728065Y-75808469D02*
X180156637Y-75808469D01*
X180442351Y-75808469D02*
X180442351Y-74808469D01*
X180442351Y-74808469D02*
X180347113Y-74951326D01*
X180347113Y-74951326D02*
X180251875Y-75046564D01*
X180251875Y-75046564D02*
X180156637Y-75094183D01*
X181680446Y-75808469D02*
X181109018Y-75808469D01*
X181394732Y-75808469D02*
X181394732Y-74808469D01*
X181394732Y-74808469D02*
X181299494Y-74951326D01*
X181299494Y-74951326D02*
X181204256Y-75046564D01*
X181204256Y-75046564D02*
X181109018Y-75094183D01*
X191363331Y-90186088D02*
X191268093Y-90138469D01*
X191268093Y-90138469D02*
X191125236Y-90138469D01*
X191125236Y-90138469D02*
X190982379Y-90186088D01*
X190982379Y-90186088D02*
X190887141Y-90281326D01*
X190887141Y-90281326D02*
X190839522Y-90376564D01*
X190839522Y-90376564D02*
X190791903Y-90567040D01*
X190791903Y-90567040D02*
X190791903Y-90709897D01*
X190791903Y-90709897D02*
X190839522Y-90900373D01*
X190839522Y-90900373D02*
X190887141Y-90995611D01*
X190887141Y-90995611D02*
X190982379Y-91090850D01*
X190982379Y-91090850D02*
X191125236Y-91138469D01*
X191125236Y-91138469D02*
X191220474Y-91138469D01*
X191220474Y-91138469D02*
X191363331Y-91090850D01*
X191363331Y-91090850D02*
X191410950Y-91043230D01*
X191410950Y-91043230D02*
X191410950Y-90709897D01*
X191410950Y-90709897D02*
X191220474Y-90709897D01*
X191839522Y-91138469D02*
X191839522Y-90138469D01*
X191839522Y-90138469D02*
X192220474Y-90138469D01*
X192220474Y-90138469D02*
X192315712Y-90186088D01*
X192315712Y-90186088D02*
X192363331Y-90233707D01*
X192363331Y-90233707D02*
X192410950Y-90328945D01*
X192410950Y-90328945D02*
X192410950Y-90471802D01*
X192410950Y-90471802D02*
X192363331Y-90567040D01*
X192363331Y-90567040D02*
X192315712Y-90614659D01*
X192315712Y-90614659D02*
X192220474Y-90662278D01*
X192220474Y-90662278D02*
X191839522Y-90662278D01*
X192744284Y-90138469D02*
X193363331Y-90138469D01*
X193363331Y-90138469D02*
X193029998Y-90519421D01*
X193029998Y-90519421D02*
X193172855Y-90519421D01*
X193172855Y-90519421D02*
X193268093Y-90567040D01*
X193268093Y-90567040D02*
X193315712Y-90614659D01*
X193315712Y-90614659D02*
X193363331Y-90709897D01*
X193363331Y-90709897D02*
X193363331Y-90947992D01*
X193363331Y-90947992D02*
X193315712Y-91043230D01*
X193315712Y-91043230D02*
X193268093Y-91090850D01*
X193268093Y-91090850D02*
X193172855Y-91138469D01*
X193172855Y-91138469D02*
X192887141Y-91138469D01*
X192887141Y-91138469D02*
X192791903Y-91090850D01*
X192791903Y-91090850D02*
X192744284Y-91043230D01*
X188852339Y-110660685D02*
X188804720Y-110755923D01*
X188804720Y-110755923D02*
X188804720Y-110898780D01*
X188804720Y-110898780D02*
X188852339Y-111041637D01*
X188852339Y-111041637D02*
X188947577Y-111136875D01*
X188947577Y-111136875D02*
X189042815Y-111184494D01*
X189042815Y-111184494D02*
X189233291Y-111232113D01*
X189233291Y-111232113D02*
X189376148Y-111232113D01*
X189376148Y-111232113D02*
X189566624Y-111184494D01*
X189566624Y-111184494D02*
X189661862Y-111136875D01*
X189661862Y-111136875D02*
X189757101Y-111041637D01*
X189757101Y-111041637D02*
X189804720Y-110898780D01*
X189804720Y-110898780D02*
X189804720Y-110803542D01*
X189804720Y-110803542D02*
X189757101Y-110660685D01*
X189757101Y-110660685D02*
X189709481Y-110613066D01*
X189709481Y-110613066D02*
X189376148Y-110613066D01*
X189376148Y-110613066D02*
X189376148Y-110803542D01*
X189804720Y-110184494D02*
X188804720Y-110184494D01*
X188804720Y-110184494D02*
X188804720Y-109803542D01*
X188804720Y-109803542D02*
X188852339Y-109708304D01*
X188852339Y-109708304D02*
X188899958Y-109660685D01*
X188899958Y-109660685D02*
X188995196Y-109613066D01*
X188995196Y-109613066D02*
X189138053Y-109613066D01*
X189138053Y-109613066D02*
X189233291Y-109660685D01*
X189233291Y-109660685D02*
X189280910Y-109708304D01*
X189280910Y-109708304D02*
X189328529Y-109803542D01*
X189328529Y-109803542D02*
X189328529Y-110184494D01*
X189804720Y-108660685D02*
X189804720Y-109232113D01*
X189804720Y-108946399D02*
X188804720Y-108946399D01*
X188804720Y-108946399D02*
X188947577Y-109041637D01*
X188947577Y-109041637D02*
X189042815Y-109136875D01*
X189042815Y-109136875D02*
X189090434Y-109232113D01*
X188804720Y-108327351D02*
X188804720Y-107708304D01*
X188804720Y-107708304D02*
X189185672Y-108041637D01*
X189185672Y-108041637D02*
X189185672Y-107898780D01*
X189185672Y-107898780D02*
X189233291Y-107803542D01*
X189233291Y-107803542D02*
X189280910Y-107755923D01*
X189280910Y-107755923D02*
X189376148Y-107708304D01*
X189376148Y-107708304D02*
X189614243Y-107708304D01*
X189614243Y-107708304D02*
X189709481Y-107755923D01*
X189709481Y-107755923D02*
X189757101Y-107803542D01*
X189757101Y-107803542D02*
X189804720Y-107898780D01*
X189804720Y-107898780D02*
X189804720Y-108184494D01*
X189804720Y-108184494D02*
X189757101Y-108279732D01*
X189757101Y-108279732D02*
X189709481Y-108327351D01*
X191363331Y-77486088D02*
X191268093Y-77438469D01*
X191268093Y-77438469D02*
X191125236Y-77438469D01*
X191125236Y-77438469D02*
X190982379Y-77486088D01*
X190982379Y-77486088D02*
X190887141Y-77581326D01*
X190887141Y-77581326D02*
X190839522Y-77676564D01*
X190839522Y-77676564D02*
X190791903Y-77867040D01*
X190791903Y-77867040D02*
X190791903Y-78009897D01*
X190791903Y-78009897D02*
X190839522Y-78200373D01*
X190839522Y-78200373D02*
X190887141Y-78295611D01*
X190887141Y-78295611D02*
X190982379Y-78390850D01*
X190982379Y-78390850D02*
X191125236Y-78438469D01*
X191125236Y-78438469D02*
X191220474Y-78438469D01*
X191220474Y-78438469D02*
X191363331Y-78390850D01*
X191363331Y-78390850D02*
X191410950Y-78343230D01*
X191410950Y-78343230D02*
X191410950Y-78009897D01*
X191410950Y-78009897D02*
X191220474Y-78009897D01*
X191839522Y-78438469D02*
X191839522Y-77438469D01*
X191839522Y-77438469D02*
X192220474Y-77438469D01*
X192220474Y-77438469D02*
X192315712Y-77486088D01*
X192315712Y-77486088D02*
X192363331Y-77533707D01*
X192363331Y-77533707D02*
X192410950Y-77628945D01*
X192410950Y-77628945D02*
X192410950Y-77771802D01*
X192410950Y-77771802D02*
X192363331Y-77867040D01*
X192363331Y-77867040D02*
X192315712Y-77914659D01*
X192315712Y-77914659D02*
X192220474Y-77962278D01*
X192220474Y-77962278D02*
X191839522Y-77962278D01*
X193029998Y-77438469D02*
X193125236Y-77438469D01*
X193125236Y-77438469D02*
X193220474Y-77486088D01*
X193220474Y-77486088D02*
X193268093Y-77533707D01*
X193268093Y-77533707D02*
X193315712Y-77628945D01*
X193315712Y-77628945D02*
X193363331Y-77819421D01*
X193363331Y-77819421D02*
X193363331Y-78057516D01*
X193363331Y-78057516D02*
X193315712Y-78247992D01*
X193315712Y-78247992D02*
X193268093Y-78343230D01*
X193268093Y-78343230D02*
X193220474Y-78390850D01*
X193220474Y-78390850D02*
X193125236Y-78438469D01*
X193125236Y-78438469D02*
X193029998Y-78438469D01*
X193029998Y-78438469D02*
X192934760Y-78390850D01*
X192934760Y-78390850D02*
X192887141Y-78343230D01*
X192887141Y-78343230D02*
X192839522Y-78247992D01*
X192839522Y-78247992D02*
X192791903Y-78057516D01*
X192791903Y-78057516D02*
X192791903Y-77819421D01*
X192791903Y-77819421D02*
X192839522Y-77628945D01*
X192839522Y-77628945D02*
X192887141Y-77533707D01*
X192887141Y-77533707D02*
X192934760Y-77486088D01*
X192934760Y-77486088D02*
X193029998Y-77438469D01*
X191363331Y-100346088D02*
X191268093Y-100298469D01*
X191268093Y-100298469D02*
X191125236Y-100298469D01*
X191125236Y-100298469D02*
X190982379Y-100346088D01*
X190982379Y-100346088D02*
X190887141Y-100441326D01*
X190887141Y-100441326D02*
X190839522Y-100536564D01*
X190839522Y-100536564D02*
X190791903Y-100727040D01*
X190791903Y-100727040D02*
X190791903Y-100869897D01*
X190791903Y-100869897D02*
X190839522Y-101060373D01*
X190839522Y-101060373D02*
X190887141Y-101155611D01*
X190887141Y-101155611D02*
X190982379Y-101250850D01*
X190982379Y-101250850D02*
X191125236Y-101298469D01*
X191125236Y-101298469D02*
X191220474Y-101298469D01*
X191220474Y-101298469D02*
X191363331Y-101250850D01*
X191363331Y-101250850D02*
X191410950Y-101203230D01*
X191410950Y-101203230D02*
X191410950Y-100869897D01*
X191410950Y-100869897D02*
X191220474Y-100869897D01*
X191839522Y-101298469D02*
X191839522Y-100298469D01*
X191839522Y-100298469D02*
X192220474Y-100298469D01*
X192220474Y-100298469D02*
X192315712Y-100346088D01*
X192315712Y-100346088D02*
X192363331Y-100393707D01*
X192363331Y-100393707D02*
X192410950Y-100488945D01*
X192410950Y-100488945D02*
X192410950Y-100631802D01*
X192410950Y-100631802D02*
X192363331Y-100727040D01*
X192363331Y-100727040D02*
X192315712Y-100774659D01*
X192315712Y-100774659D02*
X192220474Y-100822278D01*
X192220474Y-100822278D02*
X191839522Y-100822278D01*
X192744284Y-100298469D02*
X193410950Y-100298469D01*
X193410950Y-100298469D02*
X192982379Y-101298469D01*
X180945413Y-102786088D02*
X180850175Y-102738469D01*
X180850175Y-102738469D02*
X180707318Y-102738469D01*
X180707318Y-102738469D02*
X180564461Y-102786088D01*
X180564461Y-102786088D02*
X180469223Y-102881326D01*
X180469223Y-102881326D02*
X180421604Y-102976564D01*
X180421604Y-102976564D02*
X180373985Y-103167040D01*
X180373985Y-103167040D02*
X180373985Y-103309897D01*
X180373985Y-103309897D02*
X180421604Y-103500373D01*
X180421604Y-103500373D02*
X180469223Y-103595611D01*
X180469223Y-103595611D02*
X180564461Y-103690850D01*
X180564461Y-103690850D02*
X180707318Y-103738469D01*
X180707318Y-103738469D02*
X180802556Y-103738469D01*
X180802556Y-103738469D02*
X180945413Y-103690850D01*
X180945413Y-103690850D02*
X180993032Y-103643230D01*
X180993032Y-103643230D02*
X180993032Y-103309897D01*
X180993032Y-103309897D02*
X180802556Y-103309897D01*
X181421604Y-103738469D02*
X181421604Y-102738469D01*
X181421604Y-102738469D02*
X181802556Y-102738469D01*
X181802556Y-102738469D02*
X181897794Y-102786088D01*
X181897794Y-102786088D02*
X181945413Y-102833707D01*
X181945413Y-102833707D02*
X181993032Y-102928945D01*
X181993032Y-102928945D02*
X181993032Y-103071802D01*
X181993032Y-103071802D02*
X181945413Y-103167040D01*
X181945413Y-103167040D02*
X181897794Y-103214659D01*
X181897794Y-103214659D02*
X181802556Y-103262278D01*
X181802556Y-103262278D02*
X181421604Y-103262278D01*
X182373985Y-102833707D02*
X182421604Y-102786088D01*
X182421604Y-102786088D02*
X182516842Y-102738469D01*
X182516842Y-102738469D02*
X182754937Y-102738469D01*
X182754937Y-102738469D02*
X182850175Y-102786088D01*
X182850175Y-102786088D02*
X182897794Y-102833707D01*
X182897794Y-102833707D02*
X182945413Y-102928945D01*
X182945413Y-102928945D02*
X182945413Y-103024183D01*
X182945413Y-103024183D02*
X182897794Y-103167040D01*
X182897794Y-103167040D02*
X182326366Y-103738469D01*
X182326366Y-103738469D02*
X182945413Y-103738469D01*
X183278747Y-102738469D02*
X183897794Y-102738469D01*
X183897794Y-102738469D02*
X183564461Y-103119421D01*
X183564461Y-103119421D02*
X183707318Y-103119421D01*
X183707318Y-103119421D02*
X183802556Y-103167040D01*
X183802556Y-103167040D02*
X183850175Y-103214659D01*
X183850175Y-103214659D02*
X183897794Y-103309897D01*
X183897794Y-103309897D02*
X183897794Y-103547992D01*
X183897794Y-103547992D02*
X183850175Y-103643230D01*
X183850175Y-103643230D02*
X183802556Y-103690850D01*
X183802556Y-103690850D02*
X183707318Y-103738469D01*
X183707318Y-103738469D02*
X183421604Y-103738469D01*
X183421604Y-103738469D02*
X183326366Y-103690850D01*
X183326366Y-103690850D02*
X183278747Y-103643230D01*
X193969687Y-109742767D02*
X193922068Y-109838005D01*
X193922068Y-109838005D02*
X193922068Y-109980862D01*
X193922068Y-109980862D02*
X193969687Y-110123719D01*
X193969687Y-110123719D02*
X194064925Y-110218957D01*
X194064925Y-110218957D02*
X194160163Y-110266576D01*
X194160163Y-110266576D02*
X194350639Y-110314195D01*
X194350639Y-110314195D02*
X194493496Y-110314195D01*
X194493496Y-110314195D02*
X194683972Y-110266576D01*
X194683972Y-110266576D02*
X194779210Y-110218957D01*
X194779210Y-110218957D02*
X194874449Y-110123719D01*
X194874449Y-110123719D02*
X194922068Y-109980862D01*
X194922068Y-109980862D02*
X194922068Y-109885624D01*
X194922068Y-109885624D02*
X194874449Y-109742767D01*
X194874449Y-109742767D02*
X194826829Y-109695148D01*
X194826829Y-109695148D02*
X194493496Y-109695148D01*
X194493496Y-109695148D02*
X194493496Y-109885624D01*
X194922068Y-109266576D02*
X193922068Y-109266576D01*
X193922068Y-109266576D02*
X193922068Y-108885624D01*
X193922068Y-108885624D02*
X193969687Y-108790386D01*
X193969687Y-108790386D02*
X194017306Y-108742767D01*
X194017306Y-108742767D02*
X194112544Y-108695148D01*
X194112544Y-108695148D02*
X194255401Y-108695148D01*
X194255401Y-108695148D02*
X194350639Y-108742767D01*
X194350639Y-108742767D02*
X194398258Y-108790386D01*
X194398258Y-108790386D02*
X194445877Y-108885624D01*
X194445877Y-108885624D02*
X194445877Y-109266576D01*
X194922068Y-108218957D02*
X194922068Y-108028481D01*
X194922068Y-108028481D02*
X194874449Y-107933243D01*
X194874449Y-107933243D02*
X194826829Y-107885624D01*
X194826829Y-107885624D02*
X194683972Y-107790386D01*
X194683972Y-107790386D02*
X194493496Y-107742767D01*
X194493496Y-107742767D02*
X194112544Y-107742767D01*
X194112544Y-107742767D02*
X194017306Y-107790386D01*
X194017306Y-107790386D02*
X193969687Y-107838005D01*
X193969687Y-107838005D02*
X193922068Y-107933243D01*
X193922068Y-107933243D02*
X193922068Y-108123719D01*
X193922068Y-108123719D02*
X193969687Y-108218957D01*
X193969687Y-108218957D02*
X194017306Y-108266576D01*
X194017306Y-108266576D02*
X194112544Y-108314195D01*
X194112544Y-108314195D02*
X194350639Y-108314195D01*
X194350639Y-108314195D02*
X194445877Y-108266576D01*
X194445877Y-108266576D02*
X194493496Y-108218957D01*
X194493496Y-108218957D02*
X194541115Y-108123719D01*
X194541115Y-108123719D02*
X194541115Y-107933243D01*
X194541115Y-107933243D02*
X194493496Y-107838005D01*
X194493496Y-107838005D02*
X194445877Y-107790386D01*
X194445877Y-107790386D02*
X194350639Y-107742767D01*
X180802556Y-79926088D02*
X180707318Y-79878469D01*
X180707318Y-79878469D02*
X180564461Y-79878469D01*
X180564461Y-79878469D02*
X180421604Y-79926088D01*
X180421604Y-79926088D02*
X180326366Y-80021326D01*
X180326366Y-80021326D02*
X180278747Y-80116564D01*
X180278747Y-80116564D02*
X180231128Y-80307040D01*
X180231128Y-80307040D02*
X180231128Y-80449897D01*
X180231128Y-80449897D02*
X180278747Y-80640373D01*
X180278747Y-80640373D02*
X180326366Y-80735611D01*
X180326366Y-80735611D02*
X180421604Y-80830850D01*
X180421604Y-80830850D02*
X180564461Y-80878469D01*
X180564461Y-80878469D02*
X180659699Y-80878469D01*
X180659699Y-80878469D02*
X180802556Y-80830850D01*
X180802556Y-80830850D02*
X180850175Y-80783230D01*
X180850175Y-80783230D02*
X180850175Y-80449897D01*
X180850175Y-80449897D02*
X180659699Y-80449897D01*
X181278747Y-80878469D02*
X181278747Y-79878469D01*
X181278747Y-79878469D02*
X181850175Y-80878469D01*
X181850175Y-80878469D02*
X181850175Y-79878469D01*
X182326366Y-80878469D02*
X182326366Y-79878469D01*
X182326366Y-79878469D02*
X182564461Y-79878469D01*
X182564461Y-79878469D02*
X182707318Y-79926088D01*
X182707318Y-79926088D02*
X182802556Y-80021326D01*
X182802556Y-80021326D02*
X182850175Y-80116564D01*
X182850175Y-80116564D02*
X182897794Y-80307040D01*
X182897794Y-80307040D02*
X182897794Y-80449897D01*
X182897794Y-80449897D02*
X182850175Y-80640373D01*
X182850175Y-80640373D02*
X182802556Y-80735611D01*
X182802556Y-80735611D02*
X182707318Y-80830850D01*
X182707318Y-80830850D02*
X182564461Y-80878469D01*
X182564461Y-80878469D02*
X182326366Y-80878469D01*
X180338271Y-85088469D02*
X180957318Y-85088469D01*
X180957318Y-85088469D02*
X180623985Y-85469421D01*
X180623985Y-85469421D02*
X180766842Y-85469421D01*
X180766842Y-85469421D02*
X180862080Y-85517040D01*
X180862080Y-85517040D02*
X180909699Y-85564659D01*
X180909699Y-85564659D02*
X180957318Y-85659897D01*
X180957318Y-85659897D02*
X180957318Y-85897992D01*
X180957318Y-85897992D02*
X180909699Y-85993230D01*
X180909699Y-85993230D02*
X180862080Y-86040850D01*
X180862080Y-86040850D02*
X180766842Y-86088469D01*
X180766842Y-86088469D02*
X180481128Y-86088469D01*
X180481128Y-86088469D02*
X180385890Y-86040850D01*
X180385890Y-86040850D02*
X180338271Y-85993230D01*
X181385890Y-85993230D02*
X181433509Y-86040850D01*
X181433509Y-86040850D02*
X181385890Y-86088469D01*
X181385890Y-86088469D02*
X181338271Y-86040850D01*
X181338271Y-86040850D02*
X181385890Y-85993230D01*
X181385890Y-85993230D02*
X181385890Y-86088469D01*
X181766842Y-85088469D02*
X182385889Y-85088469D01*
X182385889Y-85088469D02*
X182052556Y-85469421D01*
X182052556Y-85469421D02*
X182195413Y-85469421D01*
X182195413Y-85469421D02*
X182290651Y-85517040D01*
X182290651Y-85517040D02*
X182338270Y-85564659D01*
X182338270Y-85564659D02*
X182385889Y-85659897D01*
X182385889Y-85659897D02*
X182385889Y-85897992D01*
X182385889Y-85897992D02*
X182338270Y-85993230D01*
X182338270Y-85993230D02*
X182290651Y-86040850D01*
X182290651Y-86040850D02*
X182195413Y-86088469D01*
X182195413Y-86088469D02*
X181909699Y-86088469D01*
X181909699Y-86088469D02*
X181814461Y-86040850D01*
X181814461Y-86040850D02*
X181766842Y-85993230D01*
X182719223Y-85421802D02*
X182957318Y-86088469D01*
X182957318Y-86088469D02*
X183195413Y-85421802D01*
X190363331Y-74946088D02*
X190268093Y-74898469D01*
X190268093Y-74898469D02*
X190125236Y-74898469D01*
X190125236Y-74898469D02*
X189982379Y-74946088D01*
X189982379Y-74946088D02*
X189887141Y-75041326D01*
X189887141Y-75041326D02*
X189839522Y-75136564D01*
X189839522Y-75136564D02*
X189791903Y-75327040D01*
X189791903Y-75327040D02*
X189791903Y-75469897D01*
X189791903Y-75469897D02*
X189839522Y-75660373D01*
X189839522Y-75660373D02*
X189887141Y-75755611D01*
X189887141Y-75755611D02*
X189982379Y-75850850D01*
X189982379Y-75850850D02*
X190125236Y-75898469D01*
X190125236Y-75898469D02*
X190220474Y-75898469D01*
X190220474Y-75898469D02*
X190363331Y-75850850D01*
X190363331Y-75850850D02*
X190410950Y-75803230D01*
X190410950Y-75803230D02*
X190410950Y-75469897D01*
X190410950Y-75469897D02*
X190220474Y-75469897D01*
X190839522Y-75898469D02*
X190839522Y-74898469D01*
X190839522Y-74898469D02*
X191220474Y-74898469D01*
X191220474Y-74898469D02*
X191315712Y-74946088D01*
X191315712Y-74946088D02*
X191363331Y-74993707D01*
X191363331Y-74993707D02*
X191410950Y-75088945D01*
X191410950Y-75088945D02*
X191410950Y-75231802D01*
X191410950Y-75231802D02*
X191363331Y-75327040D01*
X191363331Y-75327040D02*
X191315712Y-75374659D01*
X191315712Y-75374659D02*
X191220474Y-75422278D01*
X191220474Y-75422278D02*
X190839522Y-75422278D01*
X192363331Y-75898469D02*
X191791903Y-75898469D01*
X192077617Y-75898469D02*
X192077617Y-74898469D01*
X192077617Y-74898469D02*
X191982379Y-75041326D01*
X191982379Y-75041326D02*
X191887141Y-75136564D01*
X191887141Y-75136564D02*
X191791903Y-75184183D01*
X192982379Y-74898469D02*
X193077617Y-74898469D01*
X193077617Y-74898469D02*
X193172855Y-74946088D01*
X193172855Y-74946088D02*
X193220474Y-74993707D01*
X193220474Y-74993707D02*
X193268093Y-75088945D01*
X193268093Y-75088945D02*
X193315712Y-75279421D01*
X193315712Y-75279421D02*
X193315712Y-75517516D01*
X193315712Y-75517516D02*
X193268093Y-75707992D01*
X193268093Y-75707992D02*
X193220474Y-75803230D01*
X193220474Y-75803230D02*
X193172855Y-75850850D01*
X193172855Y-75850850D02*
X193077617Y-75898469D01*
X193077617Y-75898469D02*
X192982379Y-75898469D01*
X192982379Y-75898469D02*
X192887141Y-75850850D01*
X192887141Y-75850850D02*
X192839522Y-75803230D01*
X192839522Y-75803230D02*
X192791903Y-75707992D01*
X192791903Y-75707992D02*
X192744284Y-75517516D01*
X192744284Y-75517516D02*
X192744284Y-75279421D01*
X192744284Y-75279421D02*
X192791903Y-75088945D01*
X192791903Y-75088945D02*
X192839522Y-74993707D01*
X192839522Y-74993707D02*
X192887141Y-74946088D01*
X192887141Y-74946088D02*
X192982379Y-74898469D01*
X183852339Y-110580685D02*
X183804720Y-110675923D01*
X183804720Y-110675923D02*
X183804720Y-110818780D01*
X183804720Y-110818780D02*
X183852339Y-110961637D01*
X183852339Y-110961637D02*
X183947577Y-111056875D01*
X183947577Y-111056875D02*
X184042815Y-111104494D01*
X184042815Y-111104494D02*
X184233291Y-111152113D01*
X184233291Y-111152113D02*
X184376148Y-111152113D01*
X184376148Y-111152113D02*
X184566624Y-111104494D01*
X184566624Y-111104494D02*
X184661862Y-111056875D01*
X184661862Y-111056875D02*
X184757101Y-110961637D01*
X184757101Y-110961637D02*
X184804720Y-110818780D01*
X184804720Y-110818780D02*
X184804720Y-110723542D01*
X184804720Y-110723542D02*
X184757101Y-110580685D01*
X184757101Y-110580685D02*
X184709481Y-110533066D01*
X184709481Y-110533066D02*
X184376148Y-110533066D01*
X184376148Y-110533066D02*
X184376148Y-110723542D01*
X184804720Y-110104494D02*
X183804720Y-110104494D01*
X183804720Y-110104494D02*
X183804720Y-109723542D01*
X183804720Y-109723542D02*
X183852339Y-109628304D01*
X183852339Y-109628304D02*
X183899958Y-109580685D01*
X183899958Y-109580685D02*
X183995196Y-109533066D01*
X183995196Y-109533066D02*
X184138053Y-109533066D01*
X184138053Y-109533066D02*
X184233291Y-109580685D01*
X184233291Y-109580685D02*
X184280910Y-109628304D01*
X184280910Y-109628304D02*
X184328529Y-109723542D01*
X184328529Y-109723542D02*
X184328529Y-110104494D01*
X184804720Y-108580685D02*
X184804720Y-109152113D01*
X184804720Y-108866399D02*
X183804720Y-108866399D01*
X183804720Y-108866399D02*
X183947577Y-108961637D01*
X183947577Y-108961637D02*
X184042815Y-109056875D01*
X184042815Y-109056875D02*
X184090434Y-109152113D01*
X183804720Y-107675923D02*
X183804720Y-108152113D01*
X183804720Y-108152113D02*
X184280910Y-108199732D01*
X184280910Y-108199732D02*
X184233291Y-108152113D01*
X184233291Y-108152113D02*
X184185672Y-108056875D01*
X184185672Y-108056875D02*
X184185672Y-107818780D01*
X184185672Y-107818780D02*
X184233291Y-107723542D01*
X184233291Y-107723542D02*
X184280910Y-107675923D01*
X184280910Y-107675923D02*
X184376148Y-107628304D01*
X184376148Y-107628304D02*
X184614243Y-107628304D01*
X184614243Y-107628304D02*
X184709481Y-107675923D01*
X184709481Y-107675923D02*
X184757101Y-107723542D01*
X184757101Y-107723542D02*
X184804720Y-107818780D01*
X184804720Y-107818780D02*
X184804720Y-108056875D01*
X184804720Y-108056875D02*
X184757101Y-108152113D01*
X184757101Y-108152113D02*
X184709481Y-108199732D01*
X178719687Y-110660685D02*
X178672068Y-110755923D01*
X178672068Y-110755923D02*
X178672068Y-110898780D01*
X178672068Y-110898780D02*
X178719687Y-111041637D01*
X178719687Y-111041637D02*
X178814925Y-111136875D01*
X178814925Y-111136875D02*
X178910163Y-111184494D01*
X178910163Y-111184494D02*
X179100639Y-111232113D01*
X179100639Y-111232113D02*
X179243496Y-111232113D01*
X179243496Y-111232113D02*
X179433972Y-111184494D01*
X179433972Y-111184494D02*
X179529210Y-111136875D01*
X179529210Y-111136875D02*
X179624449Y-111041637D01*
X179624449Y-111041637D02*
X179672068Y-110898780D01*
X179672068Y-110898780D02*
X179672068Y-110803542D01*
X179672068Y-110803542D02*
X179624449Y-110660685D01*
X179624449Y-110660685D02*
X179576829Y-110613066D01*
X179576829Y-110613066D02*
X179243496Y-110613066D01*
X179243496Y-110613066D02*
X179243496Y-110803542D01*
X179672068Y-110184494D02*
X178672068Y-110184494D01*
X178672068Y-110184494D02*
X178672068Y-109803542D01*
X178672068Y-109803542D02*
X178719687Y-109708304D01*
X178719687Y-109708304D02*
X178767306Y-109660685D01*
X178767306Y-109660685D02*
X178862544Y-109613066D01*
X178862544Y-109613066D02*
X179005401Y-109613066D01*
X179005401Y-109613066D02*
X179100639Y-109660685D01*
X179100639Y-109660685D02*
X179148258Y-109708304D01*
X179148258Y-109708304D02*
X179195877Y-109803542D01*
X179195877Y-109803542D02*
X179195877Y-110184494D01*
X178767306Y-109232113D02*
X178719687Y-109184494D01*
X178719687Y-109184494D02*
X178672068Y-109089256D01*
X178672068Y-109089256D02*
X178672068Y-108851161D01*
X178672068Y-108851161D02*
X178719687Y-108755923D01*
X178719687Y-108755923D02*
X178767306Y-108708304D01*
X178767306Y-108708304D02*
X178862544Y-108660685D01*
X178862544Y-108660685D02*
X178957782Y-108660685D01*
X178957782Y-108660685D02*
X179100639Y-108708304D01*
X179100639Y-108708304D02*
X179672068Y-109279732D01*
X179672068Y-109279732D02*
X179672068Y-108660685D01*
X179672068Y-107708304D02*
X179672068Y-108279732D01*
X179672068Y-107994018D02*
X178672068Y-107994018D01*
X178672068Y-107994018D02*
X178814925Y-108089256D01*
X178814925Y-108089256D02*
X178910163Y-108184494D01*
X178910163Y-108184494D02*
X178957782Y-108279732D01*
X180945413Y-90086088D02*
X180850175Y-90038469D01*
X180850175Y-90038469D02*
X180707318Y-90038469D01*
X180707318Y-90038469D02*
X180564461Y-90086088D01*
X180564461Y-90086088D02*
X180469223Y-90181326D01*
X180469223Y-90181326D02*
X180421604Y-90276564D01*
X180421604Y-90276564D02*
X180373985Y-90467040D01*
X180373985Y-90467040D02*
X180373985Y-90609897D01*
X180373985Y-90609897D02*
X180421604Y-90800373D01*
X180421604Y-90800373D02*
X180469223Y-90895611D01*
X180469223Y-90895611D02*
X180564461Y-90990850D01*
X180564461Y-90990850D02*
X180707318Y-91038469D01*
X180707318Y-91038469D02*
X180802556Y-91038469D01*
X180802556Y-91038469D02*
X180945413Y-90990850D01*
X180945413Y-90990850D02*
X180993032Y-90943230D01*
X180993032Y-90943230D02*
X180993032Y-90609897D01*
X180993032Y-90609897D02*
X180802556Y-90609897D01*
X181421604Y-91038469D02*
X181421604Y-90038469D01*
X181421604Y-90038469D02*
X181802556Y-90038469D01*
X181802556Y-90038469D02*
X181897794Y-90086088D01*
X181897794Y-90086088D02*
X181945413Y-90133707D01*
X181945413Y-90133707D02*
X181993032Y-90228945D01*
X181993032Y-90228945D02*
X181993032Y-90371802D01*
X181993032Y-90371802D02*
X181945413Y-90467040D01*
X181945413Y-90467040D02*
X181897794Y-90514659D01*
X181897794Y-90514659D02*
X181802556Y-90562278D01*
X181802556Y-90562278D02*
X181421604Y-90562278D01*
X182373985Y-90133707D02*
X182421604Y-90086088D01*
X182421604Y-90086088D02*
X182516842Y-90038469D01*
X182516842Y-90038469D02*
X182754937Y-90038469D01*
X182754937Y-90038469D02*
X182850175Y-90086088D01*
X182850175Y-90086088D02*
X182897794Y-90133707D01*
X182897794Y-90133707D02*
X182945413Y-90228945D01*
X182945413Y-90228945D02*
X182945413Y-90324183D01*
X182945413Y-90324183D02*
X182897794Y-90467040D01*
X182897794Y-90467040D02*
X182326366Y-91038469D01*
X182326366Y-91038469D02*
X182945413Y-91038469D01*
X183516842Y-90467040D02*
X183421604Y-90419421D01*
X183421604Y-90419421D02*
X183373985Y-90371802D01*
X183373985Y-90371802D02*
X183326366Y-90276564D01*
X183326366Y-90276564D02*
X183326366Y-90228945D01*
X183326366Y-90228945D02*
X183373985Y-90133707D01*
X183373985Y-90133707D02*
X183421604Y-90086088D01*
X183421604Y-90086088D02*
X183516842Y-90038469D01*
X183516842Y-90038469D02*
X183707318Y-90038469D01*
X183707318Y-90038469D02*
X183802556Y-90086088D01*
X183802556Y-90086088D02*
X183850175Y-90133707D01*
X183850175Y-90133707D02*
X183897794Y-90228945D01*
X183897794Y-90228945D02*
X183897794Y-90276564D01*
X183897794Y-90276564D02*
X183850175Y-90371802D01*
X183850175Y-90371802D02*
X183802556Y-90419421D01*
X183802556Y-90419421D02*
X183707318Y-90467040D01*
X183707318Y-90467040D02*
X183516842Y-90467040D01*
X183516842Y-90467040D02*
X183421604Y-90514659D01*
X183421604Y-90514659D02*
X183373985Y-90562278D01*
X183373985Y-90562278D02*
X183326366Y-90657516D01*
X183326366Y-90657516D02*
X183326366Y-90847992D01*
X183326366Y-90847992D02*
X183373985Y-90943230D01*
X183373985Y-90943230D02*
X183421604Y-90990850D01*
X183421604Y-90990850D02*
X183516842Y-91038469D01*
X183516842Y-91038469D02*
X183707318Y-91038469D01*
X183707318Y-91038469D02*
X183802556Y-90990850D01*
X183802556Y-90990850D02*
X183850175Y-90943230D01*
X183850175Y-90943230D02*
X183897794Y-90847992D01*
X183897794Y-90847992D02*
X183897794Y-90657516D01*
X183897794Y-90657516D02*
X183850175Y-90562278D01*
X183850175Y-90562278D02*
X183802556Y-90514659D01*
X183802556Y-90514659D02*
X183707318Y-90467040D01*
X180945413Y-97706088D02*
X180850175Y-97658469D01*
X180850175Y-97658469D02*
X180707318Y-97658469D01*
X180707318Y-97658469D02*
X180564461Y-97706088D01*
X180564461Y-97706088D02*
X180469223Y-97801326D01*
X180469223Y-97801326D02*
X180421604Y-97896564D01*
X180421604Y-97896564D02*
X180373985Y-98087040D01*
X180373985Y-98087040D02*
X180373985Y-98229897D01*
X180373985Y-98229897D02*
X180421604Y-98420373D01*
X180421604Y-98420373D02*
X180469223Y-98515611D01*
X180469223Y-98515611D02*
X180564461Y-98610850D01*
X180564461Y-98610850D02*
X180707318Y-98658469D01*
X180707318Y-98658469D02*
X180802556Y-98658469D01*
X180802556Y-98658469D02*
X180945413Y-98610850D01*
X180945413Y-98610850D02*
X180993032Y-98563230D01*
X180993032Y-98563230D02*
X180993032Y-98229897D01*
X180993032Y-98229897D02*
X180802556Y-98229897D01*
X181421604Y-98658469D02*
X181421604Y-97658469D01*
X181421604Y-97658469D02*
X181802556Y-97658469D01*
X181802556Y-97658469D02*
X181897794Y-97706088D01*
X181897794Y-97706088D02*
X181945413Y-97753707D01*
X181945413Y-97753707D02*
X181993032Y-97848945D01*
X181993032Y-97848945D02*
X181993032Y-97991802D01*
X181993032Y-97991802D02*
X181945413Y-98087040D01*
X181945413Y-98087040D02*
X181897794Y-98134659D01*
X181897794Y-98134659D02*
X181802556Y-98182278D01*
X181802556Y-98182278D02*
X181421604Y-98182278D01*
X182373985Y-97753707D02*
X182421604Y-97706088D01*
X182421604Y-97706088D02*
X182516842Y-97658469D01*
X182516842Y-97658469D02*
X182754937Y-97658469D01*
X182754937Y-97658469D02*
X182850175Y-97706088D01*
X182850175Y-97706088D02*
X182897794Y-97753707D01*
X182897794Y-97753707D02*
X182945413Y-97848945D01*
X182945413Y-97848945D02*
X182945413Y-97944183D01*
X182945413Y-97944183D02*
X182897794Y-98087040D01*
X182897794Y-98087040D02*
X182326366Y-98658469D01*
X182326366Y-98658469D02*
X182945413Y-98658469D01*
X183326366Y-97753707D02*
X183373985Y-97706088D01*
X183373985Y-97706088D02*
X183469223Y-97658469D01*
X183469223Y-97658469D02*
X183707318Y-97658469D01*
X183707318Y-97658469D02*
X183802556Y-97706088D01*
X183802556Y-97706088D02*
X183850175Y-97753707D01*
X183850175Y-97753707D02*
X183897794Y-97848945D01*
X183897794Y-97848945D02*
X183897794Y-97944183D01*
X183897794Y-97944183D02*
X183850175Y-98087040D01*
X183850175Y-98087040D02*
X183278747Y-98658469D01*
X183278747Y-98658469D02*
X183897794Y-98658469D01*
X191363331Y-82566088D02*
X191268093Y-82518469D01*
X191268093Y-82518469D02*
X191125236Y-82518469D01*
X191125236Y-82518469D02*
X190982379Y-82566088D01*
X190982379Y-82566088D02*
X190887141Y-82661326D01*
X190887141Y-82661326D02*
X190839522Y-82756564D01*
X190839522Y-82756564D02*
X190791903Y-82947040D01*
X190791903Y-82947040D02*
X190791903Y-83089897D01*
X190791903Y-83089897D02*
X190839522Y-83280373D01*
X190839522Y-83280373D02*
X190887141Y-83375611D01*
X190887141Y-83375611D02*
X190982379Y-83470850D01*
X190982379Y-83470850D02*
X191125236Y-83518469D01*
X191125236Y-83518469D02*
X191220474Y-83518469D01*
X191220474Y-83518469D02*
X191363331Y-83470850D01*
X191363331Y-83470850D02*
X191410950Y-83423230D01*
X191410950Y-83423230D02*
X191410950Y-83089897D01*
X191410950Y-83089897D02*
X191220474Y-83089897D01*
X191839522Y-83518469D02*
X191839522Y-82518469D01*
X191839522Y-82518469D02*
X192410950Y-83518469D01*
X192410950Y-83518469D02*
X192410950Y-82518469D01*
X192887141Y-83518469D02*
X192887141Y-82518469D01*
X192887141Y-82518469D02*
X193125236Y-82518469D01*
X193125236Y-82518469D02*
X193268093Y-82566088D01*
X193268093Y-82566088D02*
X193363331Y-82661326D01*
X193363331Y-82661326D02*
X193410950Y-82756564D01*
X193410950Y-82756564D02*
X193458569Y-82947040D01*
X193458569Y-82947040D02*
X193458569Y-83089897D01*
X193458569Y-83089897D02*
X193410950Y-83280373D01*
X193410950Y-83280373D02*
X193363331Y-83375611D01*
X193363331Y-83375611D02*
X193268093Y-83470850D01*
X193268093Y-83470850D02*
X193125236Y-83518469D01*
X193125236Y-83518469D02*
X192887141Y-83518469D01*
X191363331Y-80026088D02*
X191268093Y-79978469D01*
X191268093Y-79978469D02*
X191125236Y-79978469D01*
X191125236Y-79978469D02*
X190982379Y-80026088D01*
X190982379Y-80026088D02*
X190887141Y-80121326D01*
X190887141Y-80121326D02*
X190839522Y-80216564D01*
X190839522Y-80216564D02*
X190791903Y-80407040D01*
X190791903Y-80407040D02*
X190791903Y-80549897D01*
X190791903Y-80549897D02*
X190839522Y-80740373D01*
X190839522Y-80740373D02*
X190887141Y-80835611D01*
X190887141Y-80835611D02*
X190982379Y-80930850D01*
X190982379Y-80930850D02*
X191125236Y-80978469D01*
X191125236Y-80978469D02*
X191220474Y-80978469D01*
X191220474Y-80978469D02*
X191363331Y-80930850D01*
X191363331Y-80930850D02*
X191410950Y-80883230D01*
X191410950Y-80883230D02*
X191410950Y-80549897D01*
X191410950Y-80549897D02*
X191220474Y-80549897D01*
X191839522Y-80978469D02*
X191839522Y-79978469D01*
X191839522Y-79978469D02*
X192220474Y-79978469D01*
X192220474Y-79978469D02*
X192315712Y-80026088D01*
X192315712Y-80026088D02*
X192363331Y-80073707D01*
X192363331Y-80073707D02*
X192410950Y-80168945D01*
X192410950Y-80168945D02*
X192410950Y-80311802D01*
X192410950Y-80311802D02*
X192363331Y-80407040D01*
X192363331Y-80407040D02*
X192315712Y-80454659D01*
X192315712Y-80454659D02*
X192220474Y-80502278D01*
X192220474Y-80502278D02*
X191839522Y-80502278D01*
X193363331Y-80978469D02*
X192791903Y-80978469D01*
X193077617Y-80978469D02*
X193077617Y-79978469D01*
X193077617Y-79978469D02*
X192982379Y-80121326D01*
X192982379Y-80121326D02*
X192887141Y-80216564D01*
X192887141Y-80216564D02*
X192791903Y-80264183D01*
X191363331Y-87646088D02*
X191268093Y-87598469D01*
X191268093Y-87598469D02*
X191125236Y-87598469D01*
X191125236Y-87598469D02*
X190982379Y-87646088D01*
X190982379Y-87646088D02*
X190887141Y-87741326D01*
X190887141Y-87741326D02*
X190839522Y-87836564D01*
X190839522Y-87836564D02*
X190791903Y-88027040D01*
X190791903Y-88027040D02*
X190791903Y-88169897D01*
X190791903Y-88169897D02*
X190839522Y-88360373D01*
X190839522Y-88360373D02*
X190887141Y-88455611D01*
X190887141Y-88455611D02*
X190982379Y-88550850D01*
X190982379Y-88550850D02*
X191125236Y-88598469D01*
X191125236Y-88598469D02*
X191220474Y-88598469D01*
X191220474Y-88598469D02*
X191363331Y-88550850D01*
X191363331Y-88550850D02*
X191410950Y-88503230D01*
X191410950Y-88503230D02*
X191410950Y-88169897D01*
X191410950Y-88169897D02*
X191220474Y-88169897D01*
X191839522Y-88598469D02*
X191839522Y-87598469D01*
X191839522Y-87598469D02*
X192220474Y-87598469D01*
X192220474Y-87598469D02*
X192315712Y-87646088D01*
X192315712Y-87646088D02*
X192363331Y-87693707D01*
X192363331Y-87693707D02*
X192410950Y-87788945D01*
X192410950Y-87788945D02*
X192410950Y-87931802D01*
X192410950Y-87931802D02*
X192363331Y-88027040D01*
X192363331Y-88027040D02*
X192315712Y-88074659D01*
X192315712Y-88074659D02*
X192220474Y-88122278D01*
X192220474Y-88122278D02*
X191839522Y-88122278D01*
X192791903Y-87693707D02*
X192839522Y-87646088D01*
X192839522Y-87646088D02*
X192934760Y-87598469D01*
X192934760Y-87598469D02*
X193172855Y-87598469D01*
X193172855Y-87598469D02*
X193268093Y-87646088D01*
X193268093Y-87646088D02*
X193315712Y-87693707D01*
X193315712Y-87693707D02*
X193363331Y-87788945D01*
X193363331Y-87788945D02*
X193363331Y-87884183D01*
X193363331Y-87884183D02*
X193315712Y-88027040D01*
X193315712Y-88027040D02*
X192744284Y-88598469D01*
X192744284Y-88598469D02*
X193363331Y-88598469D01*
X191352339Y-110580685D02*
X191304720Y-110675923D01*
X191304720Y-110675923D02*
X191304720Y-110818780D01*
X191304720Y-110818780D02*
X191352339Y-110961637D01*
X191352339Y-110961637D02*
X191447577Y-111056875D01*
X191447577Y-111056875D02*
X191542815Y-111104494D01*
X191542815Y-111104494D02*
X191733291Y-111152113D01*
X191733291Y-111152113D02*
X191876148Y-111152113D01*
X191876148Y-111152113D02*
X192066624Y-111104494D01*
X192066624Y-111104494D02*
X192161862Y-111056875D01*
X192161862Y-111056875D02*
X192257101Y-110961637D01*
X192257101Y-110961637D02*
X192304720Y-110818780D01*
X192304720Y-110818780D02*
X192304720Y-110723542D01*
X192304720Y-110723542D02*
X192257101Y-110580685D01*
X192257101Y-110580685D02*
X192209481Y-110533066D01*
X192209481Y-110533066D02*
X191876148Y-110533066D01*
X191876148Y-110533066D02*
X191876148Y-110723542D01*
X192304720Y-110104494D02*
X191304720Y-110104494D01*
X191304720Y-110104494D02*
X191304720Y-109723542D01*
X191304720Y-109723542D02*
X191352339Y-109628304D01*
X191352339Y-109628304D02*
X191399958Y-109580685D01*
X191399958Y-109580685D02*
X191495196Y-109533066D01*
X191495196Y-109533066D02*
X191638053Y-109533066D01*
X191638053Y-109533066D02*
X191733291Y-109580685D01*
X191733291Y-109580685D02*
X191780910Y-109628304D01*
X191780910Y-109628304D02*
X191828529Y-109723542D01*
X191828529Y-109723542D02*
X191828529Y-110104494D01*
X192304720Y-108580685D02*
X192304720Y-109152113D01*
X192304720Y-108866399D02*
X191304720Y-108866399D01*
X191304720Y-108866399D02*
X191447577Y-108961637D01*
X191447577Y-108961637D02*
X191542815Y-109056875D01*
X191542815Y-109056875D02*
X191590434Y-109152113D01*
X191399958Y-108199732D02*
X191352339Y-108152113D01*
X191352339Y-108152113D02*
X191304720Y-108056875D01*
X191304720Y-108056875D02*
X191304720Y-107818780D01*
X191304720Y-107818780D02*
X191352339Y-107723542D01*
X191352339Y-107723542D02*
X191399958Y-107675923D01*
X191399958Y-107675923D02*
X191495196Y-107628304D01*
X191495196Y-107628304D02*
X191590434Y-107628304D01*
X191590434Y-107628304D02*
X191733291Y-107675923D01*
X191733291Y-107675923D02*
X192304720Y-108247351D01*
X192304720Y-108247351D02*
X192304720Y-107628304D01*
X191363331Y-102886088D02*
X191268093Y-102838469D01*
X191268093Y-102838469D02*
X191125236Y-102838469D01*
X191125236Y-102838469D02*
X190982379Y-102886088D01*
X190982379Y-102886088D02*
X190887141Y-102981326D01*
X190887141Y-102981326D02*
X190839522Y-103076564D01*
X190839522Y-103076564D02*
X190791903Y-103267040D01*
X190791903Y-103267040D02*
X190791903Y-103409897D01*
X190791903Y-103409897D02*
X190839522Y-103600373D01*
X190839522Y-103600373D02*
X190887141Y-103695611D01*
X190887141Y-103695611D02*
X190982379Y-103790850D01*
X190982379Y-103790850D02*
X191125236Y-103838469D01*
X191125236Y-103838469D02*
X191220474Y-103838469D01*
X191220474Y-103838469D02*
X191363331Y-103790850D01*
X191363331Y-103790850D02*
X191410950Y-103743230D01*
X191410950Y-103743230D02*
X191410950Y-103409897D01*
X191410950Y-103409897D02*
X191220474Y-103409897D01*
X191839522Y-103838469D02*
X191839522Y-102838469D01*
X191839522Y-102838469D02*
X192220474Y-102838469D01*
X192220474Y-102838469D02*
X192315712Y-102886088D01*
X192315712Y-102886088D02*
X192363331Y-102933707D01*
X192363331Y-102933707D02*
X192410950Y-103028945D01*
X192410950Y-103028945D02*
X192410950Y-103171802D01*
X192410950Y-103171802D02*
X192363331Y-103267040D01*
X192363331Y-103267040D02*
X192315712Y-103314659D01*
X192315712Y-103314659D02*
X192220474Y-103362278D01*
X192220474Y-103362278D02*
X191839522Y-103362278D01*
X192982379Y-103267040D02*
X192887141Y-103219421D01*
X192887141Y-103219421D02*
X192839522Y-103171802D01*
X192839522Y-103171802D02*
X192791903Y-103076564D01*
X192791903Y-103076564D02*
X192791903Y-103028945D01*
X192791903Y-103028945D02*
X192839522Y-102933707D01*
X192839522Y-102933707D02*
X192887141Y-102886088D01*
X192887141Y-102886088D02*
X192982379Y-102838469D01*
X192982379Y-102838469D02*
X193172855Y-102838469D01*
X193172855Y-102838469D02*
X193268093Y-102886088D01*
X193268093Y-102886088D02*
X193315712Y-102933707D01*
X193315712Y-102933707D02*
X193363331Y-103028945D01*
X193363331Y-103028945D02*
X193363331Y-103076564D01*
X193363331Y-103076564D02*
X193315712Y-103171802D01*
X193315712Y-103171802D02*
X193268093Y-103219421D01*
X193268093Y-103219421D02*
X193172855Y-103267040D01*
X193172855Y-103267040D02*
X192982379Y-103267040D01*
X192982379Y-103267040D02*
X192887141Y-103314659D01*
X192887141Y-103314659D02*
X192839522Y-103362278D01*
X192839522Y-103362278D02*
X192791903Y-103457516D01*
X192791903Y-103457516D02*
X192791903Y-103647992D01*
X192791903Y-103647992D02*
X192839522Y-103743230D01*
X192839522Y-103743230D02*
X192887141Y-103790850D01*
X192887141Y-103790850D02*
X192982379Y-103838469D01*
X192982379Y-103838469D02*
X193172855Y-103838469D01*
X193172855Y-103838469D02*
X193268093Y-103790850D01*
X193268093Y-103790850D02*
X193315712Y-103743230D01*
X193315712Y-103743230D02*
X193363331Y-103647992D01*
X193363331Y-103647992D02*
X193363331Y-103457516D01*
X193363331Y-103457516D02*
X193315712Y-103362278D01*
X193315712Y-103362278D02*
X193268093Y-103314659D01*
X193268093Y-103314659D02*
X193172855Y-103267040D01*
X191363331Y-92726088D02*
X191268093Y-92678469D01*
X191268093Y-92678469D02*
X191125236Y-92678469D01*
X191125236Y-92678469D02*
X190982379Y-92726088D01*
X190982379Y-92726088D02*
X190887141Y-92821326D01*
X190887141Y-92821326D02*
X190839522Y-92916564D01*
X190839522Y-92916564D02*
X190791903Y-93107040D01*
X190791903Y-93107040D02*
X190791903Y-93249897D01*
X190791903Y-93249897D02*
X190839522Y-93440373D01*
X190839522Y-93440373D02*
X190887141Y-93535611D01*
X190887141Y-93535611D02*
X190982379Y-93630850D01*
X190982379Y-93630850D02*
X191125236Y-93678469D01*
X191125236Y-93678469D02*
X191220474Y-93678469D01*
X191220474Y-93678469D02*
X191363331Y-93630850D01*
X191363331Y-93630850D02*
X191410950Y-93583230D01*
X191410950Y-93583230D02*
X191410950Y-93249897D01*
X191410950Y-93249897D02*
X191220474Y-93249897D01*
X191839522Y-93678469D02*
X191839522Y-92678469D01*
X191839522Y-92678469D02*
X192220474Y-92678469D01*
X192220474Y-92678469D02*
X192315712Y-92726088D01*
X192315712Y-92726088D02*
X192363331Y-92773707D01*
X192363331Y-92773707D02*
X192410950Y-92868945D01*
X192410950Y-92868945D02*
X192410950Y-93011802D01*
X192410950Y-93011802D02*
X192363331Y-93107040D01*
X192363331Y-93107040D02*
X192315712Y-93154659D01*
X192315712Y-93154659D02*
X192220474Y-93202278D01*
X192220474Y-93202278D02*
X191839522Y-93202278D01*
X193268093Y-93011802D02*
X193268093Y-93678469D01*
X193029998Y-92630850D02*
X192791903Y-93345135D01*
X192791903Y-93345135D02*
X193410950Y-93345135D01*
X180945413Y-100246088D02*
X180850175Y-100198469D01*
X180850175Y-100198469D02*
X180707318Y-100198469D01*
X180707318Y-100198469D02*
X180564461Y-100246088D01*
X180564461Y-100246088D02*
X180469223Y-100341326D01*
X180469223Y-100341326D02*
X180421604Y-100436564D01*
X180421604Y-100436564D02*
X180373985Y-100627040D01*
X180373985Y-100627040D02*
X180373985Y-100769897D01*
X180373985Y-100769897D02*
X180421604Y-100960373D01*
X180421604Y-100960373D02*
X180469223Y-101055611D01*
X180469223Y-101055611D02*
X180564461Y-101150850D01*
X180564461Y-101150850D02*
X180707318Y-101198469D01*
X180707318Y-101198469D02*
X180802556Y-101198469D01*
X180802556Y-101198469D02*
X180945413Y-101150850D01*
X180945413Y-101150850D02*
X180993032Y-101103230D01*
X180993032Y-101103230D02*
X180993032Y-100769897D01*
X180993032Y-100769897D02*
X180802556Y-100769897D01*
X181421604Y-101198469D02*
X181421604Y-100198469D01*
X181421604Y-100198469D02*
X181802556Y-100198469D01*
X181802556Y-100198469D02*
X181897794Y-100246088D01*
X181897794Y-100246088D02*
X181945413Y-100293707D01*
X181945413Y-100293707D02*
X181993032Y-100388945D01*
X181993032Y-100388945D02*
X181993032Y-100531802D01*
X181993032Y-100531802D02*
X181945413Y-100627040D01*
X181945413Y-100627040D02*
X181897794Y-100674659D01*
X181897794Y-100674659D02*
X181802556Y-100722278D01*
X181802556Y-100722278D02*
X181421604Y-100722278D01*
X182373985Y-100293707D02*
X182421604Y-100246088D01*
X182421604Y-100246088D02*
X182516842Y-100198469D01*
X182516842Y-100198469D02*
X182754937Y-100198469D01*
X182754937Y-100198469D02*
X182850175Y-100246088D01*
X182850175Y-100246088D02*
X182897794Y-100293707D01*
X182897794Y-100293707D02*
X182945413Y-100388945D01*
X182945413Y-100388945D02*
X182945413Y-100484183D01*
X182945413Y-100484183D02*
X182897794Y-100627040D01*
X182897794Y-100627040D02*
X182326366Y-101198469D01*
X182326366Y-101198469D02*
X182945413Y-101198469D01*
X183564461Y-100198469D02*
X183659699Y-100198469D01*
X183659699Y-100198469D02*
X183754937Y-100246088D01*
X183754937Y-100246088D02*
X183802556Y-100293707D01*
X183802556Y-100293707D02*
X183850175Y-100388945D01*
X183850175Y-100388945D02*
X183897794Y-100579421D01*
X183897794Y-100579421D02*
X183897794Y-100817516D01*
X183897794Y-100817516D02*
X183850175Y-101007992D01*
X183850175Y-101007992D02*
X183802556Y-101103230D01*
X183802556Y-101103230D02*
X183754937Y-101150850D01*
X183754937Y-101150850D02*
X183659699Y-101198469D01*
X183659699Y-101198469D02*
X183564461Y-101198469D01*
X183564461Y-101198469D02*
X183469223Y-101150850D01*
X183469223Y-101150850D02*
X183421604Y-101103230D01*
X183421604Y-101103230D02*
X183373985Y-101007992D01*
X183373985Y-101007992D02*
X183326366Y-100817516D01*
X183326366Y-100817516D02*
X183326366Y-100579421D01*
X183326366Y-100579421D02*
X183373985Y-100388945D01*
X183373985Y-100388945D02*
X183421604Y-100293707D01*
X183421604Y-100293707D02*
X183469223Y-100246088D01*
X183469223Y-100246088D02*
X183564461Y-100198469D01*
X180945413Y-95166088D02*
X180850175Y-95118469D01*
X180850175Y-95118469D02*
X180707318Y-95118469D01*
X180707318Y-95118469D02*
X180564461Y-95166088D01*
X180564461Y-95166088D02*
X180469223Y-95261326D01*
X180469223Y-95261326D02*
X180421604Y-95356564D01*
X180421604Y-95356564D02*
X180373985Y-95547040D01*
X180373985Y-95547040D02*
X180373985Y-95689897D01*
X180373985Y-95689897D02*
X180421604Y-95880373D01*
X180421604Y-95880373D02*
X180469223Y-95975611D01*
X180469223Y-95975611D02*
X180564461Y-96070850D01*
X180564461Y-96070850D02*
X180707318Y-96118469D01*
X180707318Y-96118469D02*
X180802556Y-96118469D01*
X180802556Y-96118469D02*
X180945413Y-96070850D01*
X180945413Y-96070850D02*
X180993032Y-96023230D01*
X180993032Y-96023230D02*
X180993032Y-95689897D01*
X180993032Y-95689897D02*
X180802556Y-95689897D01*
X181421604Y-96118469D02*
X181421604Y-95118469D01*
X181421604Y-95118469D02*
X181802556Y-95118469D01*
X181802556Y-95118469D02*
X181897794Y-95166088D01*
X181897794Y-95166088D02*
X181945413Y-95213707D01*
X181945413Y-95213707D02*
X181993032Y-95308945D01*
X181993032Y-95308945D02*
X181993032Y-95451802D01*
X181993032Y-95451802D02*
X181945413Y-95547040D01*
X181945413Y-95547040D02*
X181897794Y-95594659D01*
X181897794Y-95594659D02*
X181802556Y-95642278D01*
X181802556Y-95642278D02*
X181421604Y-95642278D01*
X182373985Y-95213707D02*
X182421604Y-95166088D01*
X182421604Y-95166088D02*
X182516842Y-95118469D01*
X182516842Y-95118469D02*
X182754937Y-95118469D01*
X182754937Y-95118469D02*
X182850175Y-95166088D01*
X182850175Y-95166088D02*
X182897794Y-95213707D01*
X182897794Y-95213707D02*
X182945413Y-95308945D01*
X182945413Y-95308945D02*
X182945413Y-95404183D01*
X182945413Y-95404183D02*
X182897794Y-95547040D01*
X182897794Y-95547040D02*
X182326366Y-96118469D01*
X182326366Y-96118469D02*
X182945413Y-96118469D01*
X183802556Y-95118469D02*
X183612080Y-95118469D01*
X183612080Y-95118469D02*
X183516842Y-95166088D01*
X183516842Y-95166088D02*
X183469223Y-95213707D01*
X183469223Y-95213707D02*
X183373985Y-95356564D01*
X183373985Y-95356564D02*
X183326366Y-95547040D01*
X183326366Y-95547040D02*
X183326366Y-95927992D01*
X183326366Y-95927992D02*
X183373985Y-96023230D01*
X183373985Y-96023230D02*
X183421604Y-96070850D01*
X183421604Y-96070850D02*
X183516842Y-96118469D01*
X183516842Y-96118469D02*
X183707318Y-96118469D01*
X183707318Y-96118469D02*
X183802556Y-96070850D01*
X183802556Y-96070850D02*
X183850175Y-96023230D01*
X183850175Y-96023230D02*
X183897794Y-95927992D01*
X183897794Y-95927992D02*
X183897794Y-95689897D01*
X183897794Y-95689897D02*
X183850175Y-95594659D01*
X183850175Y-95594659D02*
X183802556Y-95547040D01*
X183802556Y-95547040D02*
X183707318Y-95499421D01*
X183707318Y-95499421D02*
X183516842Y-95499421D01*
X183516842Y-95499421D02*
X183421604Y-95547040D01*
X183421604Y-95547040D02*
X183373985Y-95594659D01*
X183373985Y-95594659D02*
X183326366Y-95689897D01*
X181352339Y-110660685D02*
X181304720Y-110755923D01*
X181304720Y-110755923D02*
X181304720Y-110898780D01*
X181304720Y-110898780D02*
X181352339Y-111041637D01*
X181352339Y-111041637D02*
X181447577Y-111136875D01*
X181447577Y-111136875D02*
X181542815Y-111184494D01*
X181542815Y-111184494D02*
X181733291Y-111232113D01*
X181733291Y-111232113D02*
X181876148Y-111232113D01*
X181876148Y-111232113D02*
X182066624Y-111184494D01*
X182066624Y-111184494D02*
X182161862Y-111136875D01*
X182161862Y-111136875D02*
X182257101Y-111041637D01*
X182257101Y-111041637D02*
X182304720Y-110898780D01*
X182304720Y-110898780D02*
X182304720Y-110803542D01*
X182304720Y-110803542D02*
X182257101Y-110660685D01*
X182257101Y-110660685D02*
X182209481Y-110613066D01*
X182209481Y-110613066D02*
X181876148Y-110613066D01*
X181876148Y-110613066D02*
X181876148Y-110803542D01*
X182304720Y-110184494D02*
X181304720Y-110184494D01*
X181304720Y-110184494D02*
X181304720Y-109803542D01*
X181304720Y-109803542D02*
X181352339Y-109708304D01*
X181352339Y-109708304D02*
X181399958Y-109660685D01*
X181399958Y-109660685D02*
X181495196Y-109613066D01*
X181495196Y-109613066D02*
X181638053Y-109613066D01*
X181638053Y-109613066D02*
X181733291Y-109660685D01*
X181733291Y-109660685D02*
X181780910Y-109708304D01*
X181780910Y-109708304D02*
X181828529Y-109803542D01*
X181828529Y-109803542D02*
X181828529Y-110184494D01*
X182304720Y-108660685D02*
X182304720Y-109232113D01*
X182304720Y-108946399D02*
X181304720Y-108946399D01*
X181304720Y-108946399D02*
X181447577Y-109041637D01*
X181447577Y-109041637D02*
X181542815Y-109136875D01*
X181542815Y-109136875D02*
X181590434Y-109232113D01*
X181304720Y-107803542D02*
X181304720Y-107994018D01*
X181304720Y-107994018D02*
X181352339Y-108089256D01*
X181352339Y-108089256D02*
X181399958Y-108136875D01*
X181399958Y-108136875D02*
X181542815Y-108232113D01*
X181542815Y-108232113D02*
X181733291Y-108279732D01*
X181733291Y-108279732D02*
X182114243Y-108279732D01*
X182114243Y-108279732D02*
X182209481Y-108232113D01*
X182209481Y-108232113D02*
X182257101Y-108184494D01*
X182257101Y-108184494D02*
X182304720Y-108089256D01*
X182304720Y-108089256D02*
X182304720Y-107898780D01*
X182304720Y-107898780D02*
X182257101Y-107803542D01*
X182257101Y-107803542D02*
X182209481Y-107755923D01*
X182209481Y-107755923D02*
X182114243Y-107708304D01*
X182114243Y-107708304D02*
X181876148Y-107708304D01*
X181876148Y-107708304D02*
X181780910Y-107755923D01*
X181780910Y-107755923D02*
X181733291Y-107803542D01*
X181733291Y-107803542D02*
X181685672Y-107898780D01*
X181685672Y-107898780D02*
X181685672Y-108089256D01*
X181685672Y-108089256D02*
X181733291Y-108184494D01*
X181733291Y-108184494D02*
X181780910Y-108232113D01*
X181780910Y-108232113D02*
X181876148Y-108279732D01*
X180933508Y-83418469D02*
X180600175Y-82942278D01*
X180362080Y-83418469D02*
X180362080Y-82418469D01*
X180362080Y-82418469D02*
X180743032Y-82418469D01*
X180743032Y-82418469D02*
X180838270Y-82466088D01*
X180838270Y-82466088D02*
X180885889Y-82513707D01*
X180885889Y-82513707D02*
X180933508Y-82608945D01*
X180933508Y-82608945D02*
X180933508Y-82751802D01*
X180933508Y-82751802D02*
X180885889Y-82847040D01*
X180885889Y-82847040D02*
X180838270Y-82894659D01*
X180838270Y-82894659D02*
X180743032Y-82942278D01*
X180743032Y-82942278D02*
X180362080Y-82942278D01*
X181314461Y-83370850D02*
X181457318Y-83418469D01*
X181457318Y-83418469D02*
X181695413Y-83418469D01*
X181695413Y-83418469D02*
X181790651Y-83370850D01*
X181790651Y-83370850D02*
X181838270Y-83323230D01*
X181838270Y-83323230D02*
X181885889Y-83227992D01*
X181885889Y-83227992D02*
X181885889Y-83132754D01*
X181885889Y-83132754D02*
X181838270Y-83037516D01*
X181838270Y-83037516D02*
X181790651Y-82989897D01*
X181790651Y-82989897D02*
X181695413Y-82942278D01*
X181695413Y-82942278D02*
X181504937Y-82894659D01*
X181504937Y-82894659D02*
X181409699Y-82847040D01*
X181409699Y-82847040D02*
X181362080Y-82799421D01*
X181362080Y-82799421D02*
X181314461Y-82704183D01*
X181314461Y-82704183D02*
X181314461Y-82608945D01*
X181314461Y-82608945D02*
X181362080Y-82513707D01*
X181362080Y-82513707D02*
X181409699Y-82466088D01*
X181409699Y-82466088D02*
X181504937Y-82418469D01*
X181504937Y-82418469D02*
X181743032Y-82418469D01*
X181743032Y-82418469D02*
X181885889Y-82466088D01*
X182171604Y-82418469D02*
X182743032Y-82418469D01*
X182457318Y-83418469D02*
X182457318Y-82418469D01*
X191363331Y-97806088D02*
X191268093Y-97758469D01*
X191268093Y-97758469D02*
X191125236Y-97758469D01*
X191125236Y-97758469D02*
X190982379Y-97806088D01*
X190982379Y-97806088D02*
X190887141Y-97901326D01*
X190887141Y-97901326D02*
X190839522Y-97996564D01*
X190839522Y-97996564D02*
X190791903Y-98187040D01*
X190791903Y-98187040D02*
X190791903Y-98329897D01*
X190791903Y-98329897D02*
X190839522Y-98520373D01*
X190839522Y-98520373D02*
X190887141Y-98615611D01*
X190887141Y-98615611D02*
X190982379Y-98710850D01*
X190982379Y-98710850D02*
X191125236Y-98758469D01*
X191125236Y-98758469D02*
X191220474Y-98758469D01*
X191220474Y-98758469D02*
X191363331Y-98710850D01*
X191363331Y-98710850D02*
X191410950Y-98663230D01*
X191410950Y-98663230D02*
X191410950Y-98329897D01*
X191410950Y-98329897D02*
X191220474Y-98329897D01*
X191839522Y-98758469D02*
X191839522Y-97758469D01*
X191839522Y-97758469D02*
X192220474Y-97758469D01*
X192220474Y-97758469D02*
X192315712Y-97806088D01*
X192315712Y-97806088D02*
X192363331Y-97853707D01*
X192363331Y-97853707D02*
X192410950Y-97948945D01*
X192410950Y-97948945D02*
X192410950Y-98091802D01*
X192410950Y-98091802D02*
X192363331Y-98187040D01*
X192363331Y-98187040D02*
X192315712Y-98234659D01*
X192315712Y-98234659D02*
X192220474Y-98282278D01*
X192220474Y-98282278D02*
X191839522Y-98282278D01*
X193268093Y-97758469D02*
X193077617Y-97758469D01*
X193077617Y-97758469D02*
X192982379Y-97806088D01*
X192982379Y-97806088D02*
X192934760Y-97853707D01*
X192934760Y-97853707D02*
X192839522Y-97996564D01*
X192839522Y-97996564D02*
X192791903Y-98187040D01*
X192791903Y-98187040D02*
X192791903Y-98567992D01*
X192791903Y-98567992D02*
X192839522Y-98663230D01*
X192839522Y-98663230D02*
X192887141Y-98710850D01*
X192887141Y-98710850D02*
X192982379Y-98758469D01*
X192982379Y-98758469D02*
X193172855Y-98758469D01*
X193172855Y-98758469D02*
X193268093Y-98710850D01*
X193268093Y-98710850D02*
X193315712Y-98663230D01*
X193315712Y-98663230D02*
X193363331Y-98567992D01*
X193363331Y-98567992D02*
X193363331Y-98329897D01*
X193363331Y-98329897D02*
X193315712Y-98234659D01*
X193315712Y-98234659D02*
X193268093Y-98187040D01*
X193268093Y-98187040D02*
X193172855Y-98139421D01*
X193172855Y-98139421D02*
X192982379Y-98139421D01*
X192982379Y-98139421D02*
X192887141Y-98187040D01*
X192887141Y-98187040D02*
X192839522Y-98234659D01*
X192839522Y-98234659D02*
X192791903Y-98329897D01*
X186282339Y-110660685D02*
X186234720Y-110755923D01*
X186234720Y-110755923D02*
X186234720Y-110898780D01*
X186234720Y-110898780D02*
X186282339Y-111041637D01*
X186282339Y-111041637D02*
X186377577Y-111136875D01*
X186377577Y-111136875D02*
X186472815Y-111184494D01*
X186472815Y-111184494D02*
X186663291Y-111232113D01*
X186663291Y-111232113D02*
X186806148Y-111232113D01*
X186806148Y-111232113D02*
X186996624Y-111184494D01*
X186996624Y-111184494D02*
X187091862Y-111136875D01*
X187091862Y-111136875D02*
X187187101Y-111041637D01*
X187187101Y-111041637D02*
X187234720Y-110898780D01*
X187234720Y-110898780D02*
X187234720Y-110803542D01*
X187234720Y-110803542D02*
X187187101Y-110660685D01*
X187187101Y-110660685D02*
X187139481Y-110613066D01*
X187139481Y-110613066D02*
X186806148Y-110613066D01*
X186806148Y-110613066D02*
X186806148Y-110803542D01*
X187234720Y-110184494D02*
X186234720Y-110184494D01*
X186234720Y-110184494D02*
X186234720Y-109803542D01*
X186234720Y-109803542D02*
X186282339Y-109708304D01*
X186282339Y-109708304D02*
X186329958Y-109660685D01*
X186329958Y-109660685D02*
X186425196Y-109613066D01*
X186425196Y-109613066D02*
X186568053Y-109613066D01*
X186568053Y-109613066D02*
X186663291Y-109660685D01*
X186663291Y-109660685D02*
X186710910Y-109708304D01*
X186710910Y-109708304D02*
X186758529Y-109803542D01*
X186758529Y-109803542D02*
X186758529Y-110184494D01*
X187234720Y-108660685D02*
X187234720Y-109232113D01*
X187234720Y-108946399D02*
X186234720Y-108946399D01*
X186234720Y-108946399D02*
X186377577Y-109041637D01*
X186377577Y-109041637D02*
X186472815Y-109136875D01*
X186472815Y-109136875D02*
X186520434Y-109232113D01*
X186568053Y-107803542D02*
X187234720Y-107803542D01*
X186187101Y-108041637D02*
X186901386Y-108279732D01*
X186901386Y-108279732D02*
X186901386Y-107660685D01*
X191363331Y-85106088D02*
X191268093Y-85058469D01*
X191268093Y-85058469D02*
X191125236Y-85058469D01*
X191125236Y-85058469D02*
X190982379Y-85106088D01*
X190982379Y-85106088D02*
X190887141Y-85201326D01*
X190887141Y-85201326D02*
X190839522Y-85296564D01*
X190839522Y-85296564D02*
X190791903Y-85487040D01*
X190791903Y-85487040D02*
X190791903Y-85629897D01*
X190791903Y-85629897D02*
X190839522Y-85820373D01*
X190839522Y-85820373D02*
X190887141Y-85915611D01*
X190887141Y-85915611D02*
X190982379Y-86010850D01*
X190982379Y-86010850D02*
X191125236Y-86058469D01*
X191125236Y-86058469D02*
X191220474Y-86058469D01*
X191220474Y-86058469D02*
X191363331Y-86010850D01*
X191363331Y-86010850D02*
X191410950Y-85963230D01*
X191410950Y-85963230D02*
X191410950Y-85629897D01*
X191410950Y-85629897D02*
X191220474Y-85629897D01*
X191839522Y-86058469D02*
X191839522Y-85058469D01*
X191839522Y-85058469D02*
X192410950Y-86058469D01*
X192410950Y-86058469D02*
X192410950Y-85058469D01*
X192887141Y-86058469D02*
X192887141Y-85058469D01*
X192887141Y-85058469D02*
X193125236Y-85058469D01*
X193125236Y-85058469D02*
X193268093Y-85106088D01*
X193268093Y-85106088D02*
X193363331Y-85201326D01*
X193363331Y-85201326D02*
X193410950Y-85296564D01*
X193410950Y-85296564D02*
X193458569Y-85487040D01*
X193458569Y-85487040D02*
X193458569Y-85629897D01*
X193458569Y-85629897D02*
X193410950Y-85820373D01*
X193410950Y-85820373D02*
X193363331Y-85915611D01*
X193363331Y-85915611D02*
X193268093Y-86010850D01*
X193268093Y-86010850D02*
X193125236Y-86058469D01*
X193125236Y-86058469D02*
X192887141Y-86058469D01*
X180945413Y-92626088D02*
X180850175Y-92578469D01*
X180850175Y-92578469D02*
X180707318Y-92578469D01*
X180707318Y-92578469D02*
X180564461Y-92626088D01*
X180564461Y-92626088D02*
X180469223Y-92721326D01*
X180469223Y-92721326D02*
X180421604Y-92816564D01*
X180421604Y-92816564D02*
X180373985Y-93007040D01*
X180373985Y-93007040D02*
X180373985Y-93149897D01*
X180373985Y-93149897D02*
X180421604Y-93340373D01*
X180421604Y-93340373D02*
X180469223Y-93435611D01*
X180469223Y-93435611D02*
X180564461Y-93530850D01*
X180564461Y-93530850D02*
X180707318Y-93578469D01*
X180707318Y-93578469D02*
X180802556Y-93578469D01*
X180802556Y-93578469D02*
X180945413Y-93530850D01*
X180945413Y-93530850D02*
X180993032Y-93483230D01*
X180993032Y-93483230D02*
X180993032Y-93149897D01*
X180993032Y-93149897D02*
X180802556Y-93149897D01*
X181421604Y-93578469D02*
X181421604Y-92578469D01*
X181421604Y-92578469D02*
X181802556Y-92578469D01*
X181802556Y-92578469D02*
X181897794Y-92626088D01*
X181897794Y-92626088D02*
X181945413Y-92673707D01*
X181945413Y-92673707D02*
X181993032Y-92768945D01*
X181993032Y-92768945D02*
X181993032Y-92911802D01*
X181993032Y-92911802D02*
X181945413Y-93007040D01*
X181945413Y-93007040D02*
X181897794Y-93054659D01*
X181897794Y-93054659D02*
X181802556Y-93102278D01*
X181802556Y-93102278D02*
X181421604Y-93102278D01*
X182373985Y-92673707D02*
X182421604Y-92626088D01*
X182421604Y-92626088D02*
X182516842Y-92578469D01*
X182516842Y-92578469D02*
X182754937Y-92578469D01*
X182754937Y-92578469D02*
X182850175Y-92626088D01*
X182850175Y-92626088D02*
X182897794Y-92673707D01*
X182897794Y-92673707D02*
X182945413Y-92768945D01*
X182945413Y-92768945D02*
X182945413Y-92864183D01*
X182945413Y-92864183D02*
X182897794Y-93007040D01*
X182897794Y-93007040D02*
X182326366Y-93578469D01*
X182326366Y-93578469D02*
X182945413Y-93578469D01*
X183278747Y-92578469D02*
X183945413Y-92578469D01*
X183945413Y-92578469D02*
X183516842Y-93578469D01*
X180838270Y-77338469D02*
X180362080Y-77338469D01*
X180362080Y-77338469D02*
X180314461Y-77814659D01*
X180314461Y-77814659D02*
X180362080Y-77767040D01*
X180362080Y-77767040D02*
X180457318Y-77719421D01*
X180457318Y-77719421D02*
X180695413Y-77719421D01*
X180695413Y-77719421D02*
X180790651Y-77767040D01*
X180790651Y-77767040D02*
X180838270Y-77814659D01*
X180838270Y-77814659D02*
X180885889Y-77909897D01*
X180885889Y-77909897D02*
X180885889Y-78147992D01*
X180885889Y-78147992D02*
X180838270Y-78243230D01*
X180838270Y-78243230D02*
X180790651Y-78290850D01*
X180790651Y-78290850D02*
X180695413Y-78338469D01*
X180695413Y-78338469D02*
X180457318Y-78338469D01*
X180457318Y-78338469D02*
X180362080Y-78290850D01*
X180362080Y-78290850D02*
X180314461Y-78243230D01*
X181219223Y-77671802D02*
X181457318Y-78338469D01*
X181457318Y-78338469D02*
X181695413Y-77671802D01*
X191363331Y-95266088D02*
X191268093Y-95218469D01*
X191268093Y-95218469D02*
X191125236Y-95218469D01*
X191125236Y-95218469D02*
X190982379Y-95266088D01*
X190982379Y-95266088D02*
X190887141Y-95361326D01*
X190887141Y-95361326D02*
X190839522Y-95456564D01*
X190839522Y-95456564D02*
X190791903Y-95647040D01*
X190791903Y-95647040D02*
X190791903Y-95789897D01*
X190791903Y-95789897D02*
X190839522Y-95980373D01*
X190839522Y-95980373D02*
X190887141Y-96075611D01*
X190887141Y-96075611D02*
X190982379Y-96170850D01*
X190982379Y-96170850D02*
X191125236Y-96218469D01*
X191125236Y-96218469D02*
X191220474Y-96218469D01*
X191220474Y-96218469D02*
X191363331Y-96170850D01*
X191363331Y-96170850D02*
X191410950Y-96123230D01*
X191410950Y-96123230D02*
X191410950Y-95789897D01*
X191410950Y-95789897D02*
X191220474Y-95789897D01*
X191839522Y-96218469D02*
X191839522Y-95218469D01*
X191839522Y-95218469D02*
X192220474Y-95218469D01*
X192220474Y-95218469D02*
X192315712Y-95266088D01*
X192315712Y-95266088D02*
X192363331Y-95313707D01*
X192363331Y-95313707D02*
X192410950Y-95408945D01*
X192410950Y-95408945D02*
X192410950Y-95551802D01*
X192410950Y-95551802D02*
X192363331Y-95647040D01*
X192363331Y-95647040D02*
X192315712Y-95694659D01*
X192315712Y-95694659D02*
X192220474Y-95742278D01*
X192220474Y-95742278D02*
X191839522Y-95742278D01*
X193315712Y-95218469D02*
X192839522Y-95218469D01*
X192839522Y-95218469D02*
X192791903Y-95694659D01*
X192791903Y-95694659D02*
X192839522Y-95647040D01*
X192839522Y-95647040D02*
X192934760Y-95599421D01*
X192934760Y-95599421D02*
X193172855Y-95599421D01*
X193172855Y-95599421D02*
X193268093Y-95647040D01*
X193268093Y-95647040D02*
X193315712Y-95694659D01*
X193315712Y-95694659D02*
X193363331Y-95789897D01*
X193363331Y-95789897D02*
X193363331Y-96027992D01*
X193363331Y-96027992D02*
X193315712Y-96123230D01*
X193315712Y-96123230D02*
X193268093Y-96170850D01*
X193268093Y-96170850D02*
X193172855Y-96218469D01*
X193172855Y-96218469D02*
X192934760Y-96218469D01*
X192934760Y-96218469D02*
X192839522Y-96170850D01*
X192839522Y-96170850D02*
X192791903Y-96123230D01*
G04 #@! TO.C,U1*
X109270000Y-106210000D02*
X109270000Y-73190000D01*
X109270000Y-73190000D02*
X91490000Y-73190000D01*
X91490000Y-106210000D02*
X109270000Y-106210000D01*
X91490000Y-73190000D02*
X91490000Y-106210000D01*
G04 #@! TO.C,U3*
X177892501Y-73986250D02*
X177892501Y-107006250D01*
X177892501Y-107006250D02*
X195672501Y-107006250D01*
X195672501Y-73986250D02*
X177892501Y-73986250D01*
X195672501Y-107006250D02*
X195672501Y-73986250D01*
G04 #@! TD*
%LPC*%
D13*
G04 #@! TO.C,*
X169452501Y-75642080D03*
G04 #@! TD*
G04 #@! TO.C,*
X90003826Y-74785830D03*
G04 #@! TD*
D14*
G04 #@! TO.C,J4*
X199852501Y-110086250D03*
X199852501Y-107546250D03*
X199852501Y-105006250D03*
X199852501Y-102466250D03*
X199852501Y-99926250D03*
X199852501Y-97386250D03*
X199852501Y-94846250D03*
X199852501Y-92306250D03*
G04 #@! TD*
G04 #@! TO.C,J3*
X173602501Y-109256250D03*
X173602501Y-106716250D03*
X173602501Y-104176250D03*
X173602501Y-101636250D03*
X173602501Y-99096250D03*
X173602501Y-96556250D03*
X173602501Y-94016250D03*
X173602501Y-91476250D03*
G04 #@! TD*
G04 #@! TO.C,J2*
X113602501Y-108280000D03*
X113602501Y-105740000D03*
X113602501Y-103200000D03*
X113602501Y-100660000D03*
X113602501Y-98120000D03*
X113602501Y-95580000D03*
X113602501Y-93040000D03*
X113602501Y-90500000D03*
G04 #@! TD*
G04 #@! TO.C,J1*
X87102501Y-109336250D03*
X87102501Y-106796250D03*
X87102501Y-104256250D03*
X87102501Y-101716250D03*
X87102501Y-99176250D03*
X87102501Y-96636250D03*
X87102501Y-94096250D03*
X87102501Y-91556250D03*
G04 #@! TD*
D15*
G04 #@! TO.C,U4*
X173402501Y-83256250D03*
X173402501Y-76256250D03*
D16*
X175702501Y-85956250D03*
X171102501Y-84856250D03*
X171102501Y-80856250D03*
X171102501Y-77856250D03*
G04 #@! TD*
G04 #@! TO.C,U2*
X111302501Y-77006250D03*
X111302501Y-80006250D03*
X111302501Y-84006250D03*
X115902501Y-85106250D03*
D15*
X113602501Y-75406250D03*
X113602501Y-82406250D03*
G04 #@! TD*
D17*
G04 #@! TO.C,U1*
X92760000Y-74460000D03*
X92760000Y-77000000D03*
X92760000Y-79540000D03*
X92760000Y-82080000D03*
X92760000Y-84620000D03*
X92760000Y-87160000D03*
X92760000Y-89700000D03*
X92760000Y-92240000D03*
X92760000Y-94780000D03*
X92760000Y-97320000D03*
X92760000Y-99860000D03*
X92760000Y-102400000D03*
X92760000Y-104940000D03*
X95300000Y-104940000D03*
X97840000Y-104940000D03*
X100380000Y-104940000D03*
X102920000Y-104940000D03*
X105460000Y-104940000D03*
X108000000Y-104940000D03*
X108000000Y-102400000D03*
X108000000Y-99860000D03*
X108000000Y-97320000D03*
X108000000Y-94780000D03*
X108000000Y-92240000D03*
X108000000Y-89700000D03*
X108000000Y-87160000D03*
X108000000Y-84620000D03*
X108000000Y-82080000D03*
X108000000Y-79540000D03*
X108000000Y-77000000D03*
X108000000Y-74460000D03*
G04 #@! TD*
G04 #@! TO.C,U3*
X194402501Y-75256250D03*
X194402501Y-77796250D03*
X194402501Y-80336250D03*
X194402501Y-82876250D03*
X194402501Y-85416250D03*
X194402501Y-87956250D03*
X194402501Y-90496250D03*
X194402501Y-93036250D03*
X194402501Y-95576250D03*
X194402501Y-98116250D03*
X194402501Y-100656250D03*
X194402501Y-103196250D03*
X194402501Y-105736250D03*
X191862501Y-105736250D03*
X189322501Y-105736250D03*
X186782501Y-105736250D03*
X184242501Y-105736250D03*
X181702501Y-105736250D03*
X179162501Y-105736250D03*
X179162501Y-103196250D03*
X179162501Y-100656250D03*
X179162501Y-98116250D03*
X179162501Y-95576250D03*
X179162501Y-93036250D03*
X179162501Y-90496250D03*
X179162501Y-87956250D03*
X179162501Y-85416250D03*
X179162501Y-82876250D03*
X179162501Y-80336250D03*
X179162501Y-77796250D03*
X179162501Y-75256250D03*
G04 #@! TD*
D13*
G04 #@! TO.C,*
X103216326Y-74785830D03*
G04 #@! TD*
G04 #@! TO.C,*
X182665001Y-75642080D03*
G04 #@! TD*
G04 #@! TO.C,*
X196952501Y-75642080D03*
G04 #@! TD*
G04 #@! TO.C,*
X117503826Y-74785830D03*
G04 #@! TD*
%LPD*%
M02*
