G04 #@! TF.GenerationSoftware,KiCad,Pcbnew,8.0.7-8.0.7-0~ubuntu24.04.1*
G04 #@! TF.CreationDate,2025-01-01T20:03:56-05:00*
G04 #@! TF.ProjectId,promicro_rp2040_pcbholder_wiredver,70726f6d-6963-4726-9f5f-727032303430,rev?*
G04 #@! TF.SameCoordinates,Original*
G04 #@! TF.FileFunction,Soldermask,Bot*
G04 #@! TF.FilePolarity,Negative*
%FSLAX46Y46*%
G04 Gerber Fmt 4.6, Leading zero omitted, Abs format (unit mm)*
G04 Created by KiCad (PCBNEW 8.0.7-8.0.7-0~ubuntu24.04.1) date 2025-01-01 20:03:56*
%MOMM*%
%LPD*%
G01*
G04 APERTURE LIST*
%ADD10C,1.430000*%
%ADD11C,1.400000*%
%ADD12C,0.800000*%
%ADD13O,1.600000X2.000000*%
%ADD14C,1.524000*%
G04 APERTURE END LIST*
D10*
G04 #@! TO.C,*
X169452501Y-75642080D03*
G04 #@! TD*
G04 #@! TO.C,*
X90003826Y-74785830D03*
G04 #@! TD*
D11*
G04 #@! TO.C,J4*
X199852501Y-110086250D03*
X199852501Y-107546250D03*
X199852501Y-105006250D03*
X199852501Y-102466250D03*
X199852501Y-99926250D03*
X199852501Y-97386250D03*
X199852501Y-94846250D03*
X199852501Y-92306250D03*
G04 #@! TD*
G04 #@! TO.C,J3*
X173602501Y-109256250D03*
X173602501Y-106716250D03*
X173602501Y-104176250D03*
X173602501Y-101636250D03*
X173602501Y-99096250D03*
X173602501Y-96556250D03*
X173602501Y-94016250D03*
X173602501Y-91476250D03*
G04 #@! TD*
G04 #@! TO.C,J2*
X113602501Y-108280000D03*
X113602501Y-105740000D03*
X113602501Y-103200000D03*
X113602501Y-100660000D03*
X113602501Y-98120000D03*
X113602501Y-95580000D03*
X113602501Y-93040000D03*
X113602501Y-90500000D03*
G04 #@! TD*
G04 #@! TO.C,J1*
X87102501Y-109336250D03*
X87102501Y-106796250D03*
X87102501Y-104256250D03*
X87102501Y-101716250D03*
X87102501Y-99176250D03*
X87102501Y-96636250D03*
X87102501Y-94096250D03*
X87102501Y-91556250D03*
G04 #@! TD*
D12*
G04 #@! TO.C,U4*
X173402501Y-83256250D03*
X173402501Y-76256250D03*
D13*
X175702501Y-85956250D03*
X171102501Y-84856250D03*
X171102501Y-80856250D03*
X171102501Y-77856250D03*
G04 #@! TD*
G04 #@! TO.C,U2*
X111302501Y-77006250D03*
X111302501Y-80006250D03*
X111302501Y-84006250D03*
X115902501Y-85106250D03*
D12*
X113602501Y-75406250D03*
X113602501Y-82406250D03*
G04 #@! TD*
D14*
G04 #@! TO.C,U1*
X92760000Y-74460000D03*
X92760000Y-77000000D03*
X92760000Y-79540000D03*
X92760000Y-82080000D03*
X92760000Y-84620000D03*
X92760000Y-87160000D03*
X92760000Y-89700000D03*
X92760000Y-92240000D03*
X92760000Y-94780000D03*
X92760000Y-97320000D03*
X92760000Y-99860000D03*
X92760000Y-102400000D03*
X92760000Y-104940000D03*
X95300000Y-104940000D03*
X97840000Y-104940000D03*
X100380000Y-104940000D03*
X102920000Y-104940000D03*
X105460000Y-104940000D03*
X108000000Y-104940000D03*
X108000000Y-102400000D03*
X108000000Y-99860000D03*
X108000000Y-97320000D03*
X108000000Y-94780000D03*
X108000000Y-92240000D03*
X108000000Y-89700000D03*
X108000000Y-87160000D03*
X108000000Y-84620000D03*
X108000000Y-82080000D03*
X108000000Y-79540000D03*
X108000000Y-77000000D03*
X108000000Y-74460000D03*
G04 #@! TD*
G04 #@! TO.C,U3*
X194402501Y-75256250D03*
X194402501Y-77796250D03*
X194402501Y-80336250D03*
X194402501Y-82876250D03*
X194402501Y-85416250D03*
X194402501Y-87956250D03*
X194402501Y-90496250D03*
X194402501Y-93036250D03*
X194402501Y-95576250D03*
X194402501Y-98116250D03*
X194402501Y-100656250D03*
X194402501Y-103196250D03*
X194402501Y-105736250D03*
X191862501Y-105736250D03*
X189322501Y-105736250D03*
X186782501Y-105736250D03*
X184242501Y-105736250D03*
X181702501Y-105736250D03*
X179162501Y-105736250D03*
X179162501Y-103196250D03*
X179162501Y-100656250D03*
X179162501Y-98116250D03*
X179162501Y-95576250D03*
X179162501Y-93036250D03*
X179162501Y-90496250D03*
X179162501Y-87956250D03*
X179162501Y-85416250D03*
X179162501Y-82876250D03*
X179162501Y-80336250D03*
X179162501Y-77796250D03*
X179162501Y-75256250D03*
G04 #@! TD*
D10*
G04 #@! TO.C,*
X103216326Y-74785830D03*
G04 #@! TD*
G04 #@! TO.C,*
X182665001Y-75642080D03*
G04 #@! TD*
G04 #@! TO.C,*
X196952501Y-75642080D03*
G04 #@! TD*
G04 #@! TO.C,*
X117503826Y-74785830D03*
G04 #@! TD*
M02*
