G04 #@! TF.GenerationSoftware,KiCad,Pcbnew,8.0.7-8.0.7-0~ubuntu24.04.1*
G04 #@! TF.CreationDate,2025-01-01T20:03:56-05:00*
G04 #@! TF.ProjectId,promicro_rp2040_pcbholder_wiredver,70726f6d-6963-4726-9f5f-727032303430,rev?*
G04 #@! TF.SameCoordinates,Original*
G04 #@! TF.FileFunction,AssemblyDrawing,Bot*
%FSLAX46Y46*%
G04 Gerber Fmt 4.6, Leading zero omitted, Abs format (unit mm)*
G04 Created by KiCad (PCBNEW 8.0.7-8.0.7-0~ubuntu24.04.1) date 2025-01-01 20:03:56*
%MOMM*%
%LPD*%
G01*
G04 APERTURE LIST*
%ADD10C,0.150000*%
%ADD11C,0.100000*%
G04 APERTURE END LIST*
D10*
X200185834Y-89431069D02*
X200185834Y-90145354D01*
X200185834Y-90145354D02*
X200233453Y-90288211D01*
X200233453Y-90288211D02*
X200328691Y-90383450D01*
X200328691Y-90383450D02*
X200471548Y-90431069D01*
X200471548Y-90431069D02*
X200566786Y-90431069D01*
X199281072Y-89764402D02*
X199281072Y-90431069D01*
X199519167Y-89383450D02*
X199757262Y-90097735D01*
X199757262Y-90097735D02*
X199138215Y-90097735D01*
X205162025Y-112775830D02*
X205209644Y-112823450D01*
X205209644Y-112823450D02*
X205352501Y-112871069D01*
X205352501Y-112871069D02*
X205447739Y-112871069D01*
X205447739Y-112871069D02*
X205590596Y-112823450D01*
X205590596Y-112823450D02*
X205685834Y-112728211D01*
X205685834Y-112728211D02*
X205733453Y-112632973D01*
X205733453Y-112632973D02*
X205781072Y-112442497D01*
X205781072Y-112442497D02*
X205781072Y-112299640D01*
X205781072Y-112299640D02*
X205733453Y-112109164D01*
X205733453Y-112109164D02*
X205685834Y-112013926D01*
X205685834Y-112013926D02*
X205590596Y-111918688D01*
X205590596Y-111918688D02*
X205447739Y-111871069D01*
X205447739Y-111871069D02*
X205352501Y-111871069D01*
X205352501Y-111871069D02*
X205209644Y-111918688D01*
X205209644Y-111918688D02*
X205162025Y-111966307D01*
X204590596Y-112871069D02*
X204685834Y-112823450D01*
X204685834Y-112823450D02*
X204733453Y-112775830D01*
X204733453Y-112775830D02*
X204781072Y-112680592D01*
X204781072Y-112680592D02*
X204781072Y-112394878D01*
X204781072Y-112394878D02*
X204733453Y-112299640D01*
X204733453Y-112299640D02*
X204685834Y-112252021D01*
X204685834Y-112252021D02*
X204590596Y-112204402D01*
X204590596Y-112204402D02*
X204447739Y-112204402D01*
X204447739Y-112204402D02*
X204352501Y-112252021D01*
X204352501Y-112252021D02*
X204304882Y-112299640D01*
X204304882Y-112299640D02*
X204257263Y-112394878D01*
X204257263Y-112394878D02*
X204257263Y-112680592D01*
X204257263Y-112680592D02*
X204304882Y-112775830D01*
X204304882Y-112775830D02*
X204352501Y-112823450D01*
X204352501Y-112823450D02*
X204447739Y-112871069D01*
X204447739Y-112871069D02*
X204590596Y-112871069D01*
X203828691Y-112204402D02*
X203828691Y-112871069D01*
X203828691Y-112299640D02*
X203781072Y-112252021D01*
X203781072Y-112252021D02*
X203685834Y-112204402D01*
X203685834Y-112204402D02*
X203542977Y-112204402D01*
X203542977Y-112204402D02*
X203447739Y-112252021D01*
X203447739Y-112252021D02*
X203400120Y-112347259D01*
X203400120Y-112347259D02*
X203400120Y-112871069D01*
X202923929Y-112204402D02*
X202923929Y-112871069D01*
X202923929Y-112299640D02*
X202876310Y-112252021D01*
X202876310Y-112252021D02*
X202781072Y-112204402D01*
X202781072Y-112204402D02*
X202638215Y-112204402D01*
X202638215Y-112204402D02*
X202542977Y-112252021D01*
X202542977Y-112252021D02*
X202495358Y-112347259D01*
X202495358Y-112347259D02*
X202495358Y-112871069D01*
X202257263Y-112966307D02*
X201495358Y-112966307D01*
X201066786Y-111871069D02*
X200971548Y-111871069D01*
X200971548Y-111871069D02*
X200876310Y-111918688D01*
X200876310Y-111918688D02*
X200828691Y-111966307D01*
X200828691Y-111966307D02*
X200781072Y-112061545D01*
X200781072Y-112061545D02*
X200733453Y-112252021D01*
X200733453Y-112252021D02*
X200733453Y-112490116D01*
X200733453Y-112490116D02*
X200781072Y-112680592D01*
X200781072Y-112680592D02*
X200828691Y-112775830D01*
X200828691Y-112775830D02*
X200876310Y-112823450D01*
X200876310Y-112823450D02*
X200971548Y-112871069D01*
X200971548Y-112871069D02*
X201066786Y-112871069D01*
X201066786Y-112871069D02*
X201162024Y-112823450D01*
X201162024Y-112823450D02*
X201209643Y-112775830D01*
X201209643Y-112775830D02*
X201257262Y-112680592D01*
X201257262Y-112680592D02*
X201304881Y-112490116D01*
X201304881Y-112490116D02*
X201304881Y-112252021D01*
X201304881Y-112252021D02*
X201257262Y-112061545D01*
X201257262Y-112061545D02*
X201209643Y-111966307D01*
X201209643Y-111966307D02*
X201162024Y-111918688D01*
X201162024Y-111918688D02*
X201066786Y-111871069D01*
X199781072Y-112871069D02*
X200352500Y-112871069D01*
X200066786Y-112871069D02*
X200066786Y-111871069D01*
X200066786Y-111871069D02*
X200162024Y-112013926D01*
X200162024Y-112013926D02*
X200257262Y-112109164D01*
X200257262Y-112109164D02*
X200352500Y-112156783D01*
X199447738Y-112871069D02*
X198923929Y-112204402D01*
X199447738Y-112204402D02*
X198923929Y-112871069D01*
X198352500Y-111871069D02*
X198257262Y-111871069D01*
X198257262Y-111871069D02*
X198162024Y-111918688D01*
X198162024Y-111918688D02*
X198114405Y-111966307D01*
X198114405Y-111966307D02*
X198066786Y-112061545D01*
X198066786Y-112061545D02*
X198019167Y-112252021D01*
X198019167Y-112252021D02*
X198019167Y-112490116D01*
X198019167Y-112490116D02*
X198066786Y-112680592D01*
X198066786Y-112680592D02*
X198114405Y-112775830D01*
X198114405Y-112775830D02*
X198162024Y-112823450D01*
X198162024Y-112823450D02*
X198257262Y-112871069D01*
X198257262Y-112871069D02*
X198352500Y-112871069D01*
X198352500Y-112871069D02*
X198447738Y-112823450D01*
X198447738Y-112823450D02*
X198495357Y-112775830D01*
X198495357Y-112775830D02*
X198542976Y-112680592D01*
X198542976Y-112680592D02*
X198590595Y-112490116D01*
X198590595Y-112490116D02*
X198590595Y-112252021D01*
X198590595Y-112252021D02*
X198542976Y-112061545D01*
X198542976Y-112061545D02*
X198495357Y-111966307D01*
X198495357Y-111966307D02*
X198447738Y-111918688D01*
X198447738Y-111918688D02*
X198352500Y-111871069D01*
X197447738Y-112299640D02*
X197542976Y-112252021D01*
X197542976Y-112252021D02*
X197590595Y-112204402D01*
X197590595Y-112204402D02*
X197638214Y-112109164D01*
X197638214Y-112109164D02*
X197638214Y-112061545D01*
X197638214Y-112061545D02*
X197590595Y-111966307D01*
X197590595Y-111966307D02*
X197542976Y-111918688D01*
X197542976Y-111918688D02*
X197447738Y-111871069D01*
X197447738Y-111871069D02*
X197257262Y-111871069D01*
X197257262Y-111871069D02*
X197162024Y-111918688D01*
X197162024Y-111918688D02*
X197114405Y-111966307D01*
X197114405Y-111966307D02*
X197066786Y-112061545D01*
X197066786Y-112061545D02*
X197066786Y-112109164D01*
X197066786Y-112109164D02*
X197114405Y-112204402D01*
X197114405Y-112204402D02*
X197162024Y-112252021D01*
X197162024Y-112252021D02*
X197257262Y-112299640D01*
X197257262Y-112299640D02*
X197447738Y-112299640D01*
X197447738Y-112299640D02*
X197542976Y-112347259D01*
X197542976Y-112347259D02*
X197590595Y-112394878D01*
X197590595Y-112394878D02*
X197638214Y-112490116D01*
X197638214Y-112490116D02*
X197638214Y-112680592D01*
X197638214Y-112680592D02*
X197590595Y-112775830D01*
X197590595Y-112775830D02*
X197542976Y-112823450D01*
X197542976Y-112823450D02*
X197447738Y-112871069D01*
X197447738Y-112871069D02*
X197257262Y-112871069D01*
X197257262Y-112871069D02*
X197162024Y-112823450D01*
X197162024Y-112823450D02*
X197114405Y-112775830D01*
X197114405Y-112775830D02*
X197066786Y-112680592D01*
X197066786Y-112680592D02*
X197066786Y-112490116D01*
X197066786Y-112490116D02*
X197114405Y-112394878D01*
X197114405Y-112394878D02*
X197162024Y-112347259D01*
X197162024Y-112347259D02*
X197257262Y-112299640D01*
X196876310Y-112966307D02*
X196114405Y-112966307D01*
X195876309Y-112871069D02*
X195876309Y-111871069D01*
X195876309Y-111871069D02*
X195495357Y-111871069D01*
X195495357Y-111871069D02*
X195400119Y-111918688D01*
X195400119Y-111918688D02*
X195352500Y-111966307D01*
X195352500Y-111966307D02*
X195304881Y-112061545D01*
X195304881Y-112061545D02*
X195304881Y-112204402D01*
X195304881Y-112204402D02*
X195352500Y-112299640D01*
X195352500Y-112299640D02*
X195400119Y-112347259D01*
X195400119Y-112347259D02*
X195495357Y-112394878D01*
X195495357Y-112394878D02*
X195876309Y-112394878D01*
X194876309Y-112871069D02*
X194876309Y-112204402D01*
X194876309Y-111871069D02*
X194923928Y-111918688D01*
X194923928Y-111918688D02*
X194876309Y-111966307D01*
X194876309Y-111966307D02*
X194828690Y-111918688D01*
X194828690Y-111918688D02*
X194876309Y-111871069D01*
X194876309Y-111871069D02*
X194876309Y-111966307D01*
X194400119Y-112204402D02*
X194400119Y-112871069D01*
X194400119Y-112299640D02*
X194352500Y-112252021D01*
X194352500Y-112252021D02*
X194257262Y-112204402D01*
X194257262Y-112204402D02*
X194114405Y-112204402D01*
X194114405Y-112204402D02*
X194019167Y-112252021D01*
X194019167Y-112252021D02*
X193971548Y-112347259D01*
X193971548Y-112347259D02*
X193971548Y-112871069D01*
X199307320Y-100862916D02*
X200021605Y-100862916D01*
X200021605Y-100862916D02*
X200164462Y-100815297D01*
X200164462Y-100815297D02*
X200259701Y-100720059D01*
X200259701Y-100720059D02*
X200307320Y-100577202D01*
X200307320Y-100577202D02*
X200307320Y-100481964D01*
X199640653Y-101767678D02*
X200307320Y-101767678D01*
X199259701Y-101529583D02*
X199973986Y-101291488D01*
X199973986Y-101291488D02*
X199973986Y-101910535D01*
X173935834Y-88601069D02*
X173935834Y-89315354D01*
X173935834Y-89315354D02*
X173983453Y-89458211D01*
X173983453Y-89458211D02*
X174078691Y-89553450D01*
X174078691Y-89553450D02*
X174221548Y-89601069D01*
X174221548Y-89601069D02*
X174316786Y-89601069D01*
X173554881Y-88601069D02*
X172935834Y-88601069D01*
X172935834Y-88601069D02*
X173269167Y-88982021D01*
X173269167Y-88982021D02*
X173126310Y-88982021D01*
X173126310Y-88982021D02*
X173031072Y-89029640D01*
X173031072Y-89029640D02*
X172983453Y-89077259D01*
X172983453Y-89077259D02*
X172935834Y-89172497D01*
X172935834Y-89172497D02*
X172935834Y-89410592D01*
X172935834Y-89410592D02*
X172983453Y-89505830D01*
X172983453Y-89505830D02*
X173031072Y-89553450D01*
X173031072Y-89553450D02*
X173126310Y-89601069D01*
X173126310Y-89601069D02*
X173412024Y-89601069D01*
X173412024Y-89601069D02*
X173507262Y-89553450D01*
X173507262Y-89553450D02*
X173554881Y-89505830D01*
X178912025Y-111945830D02*
X178959644Y-111993450D01*
X178959644Y-111993450D02*
X179102501Y-112041069D01*
X179102501Y-112041069D02*
X179197739Y-112041069D01*
X179197739Y-112041069D02*
X179340596Y-111993450D01*
X179340596Y-111993450D02*
X179435834Y-111898211D01*
X179435834Y-111898211D02*
X179483453Y-111802973D01*
X179483453Y-111802973D02*
X179531072Y-111612497D01*
X179531072Y-111612497D02*
X179531072Y-111469640D01*
X179531072Y-111469640D02*
X179483453Y-111279164D01*
X179483453Y-111279164D02*
X179435834Y-111183926D01*
X179435834Y-111183926D02*
X179340596Y-111088688D01*
X179340596Y-111088688D02*
X179197739Y-111041069D01*
X179197739Y-111041069D02*
X179102501Y-111041069D01*
X179102501Y-111041069D02*
X178959644Y-111088688D01*
X178959644Y-111088688D02*
X178912025Y-111136307D01*
X178340596Y-112041069D02*
X178435834Y-111993450D01*
X178435834Y-111993450D02*
X178483453Y-111945830D01*
X178483453Y-111945830D02*
X178531072Y-111850592D01*
X178531072Y-111850592D02*
X178531072Y-111564878D01*
X178531072Y-111564878D02*
X178483453Y-111469640D01*
X178483453Y-111469640D02*
X178435834Y-111422021D01*
X178435834Y-111422021D02*
X178340596Y-111374402D01*
X178340596Y-111374402D02*
X178197739Y-111374402D01*
X178197739Y-111374402D02*
X178102501Y-111422021D01*
X178102501Y-111422021D02*
X178054882Y-111469640D01*
X178054882Y-111469640D02*
X178007263Y-111564878D01*
X178007263Y-111564878D02*
X178007263Y-111850592D01*
X178007263Y-111850592D02*
X178054882Y-111945830D01*
X178054882Y-111945830D02*
X178102501Y-111993450D01*
X178102501Y-111993450D02*
X178197739Y-112041069D01*
X178197739Y-112041069D02*
X178340596Y-112041069D01*
X177578691Y-111374402D02*
X177578691Y-112041069D01*
X177578691Y-111469640D02*
X177531072Y-111422021D01*
X177531072Y-111422021D02*
X177435834Y-111374402D01*
X177435834Y-111374402D02*
X177292977Y-111374402D01*
X177292977Y-111374402D02*
X177197739Y-111422021D01*
X177197739Y-111422021D02*
X177150120Y-111517259D01*
X177150120Y-111517259D02*
X177150120Y-112041069D01*
X176673929Y-111374402D02*
X176673929Y-112041069D01*
X176673929Y-111469640D02*
X176626310Y-111422021D01*
X176626310Y-111422021D02*
X176531072Y-111374402D01*
X176531072Y-111374402D02*
X176388215Y-111374402D01*
X176388215Y-111374402D02*
X176292977Y-111422021D01*
X176292977Y-111422021D02*
X176245358Y-111517259D01*
X176245358Y-111517259D02*
X176245358Y-112041069D01*
X176007263Y-112136307D02*
X175245358Y-112136307D01*
X174816786Y-111041069D02*
X174721548Y-111041069D01*
X174721548Y-111041069D02*
X174626310Y-111088688D01*
X174626310Y-111088688D02*
X174578691Y-111136307D01*
X174578691Y-111136307D02*
X174531072Y-111231545D01*
X174531072Y-111231545D02*
X174483453Y-111422021D01*
X174483453Y-111422021D02*
X174483453Y-111660116D01*
X174483453Y-111660116D02*
X174531072Y-111850592D01*
X174531072Y-111850592D02*
X174578691Y-111945830D01*
X174578691Y-111945830D02*
X174626310Y-111993450D01*
X174626310Y-111993450D02*
X174721548Y-112041069D01*
X174721548Y-112041069D02*
X174816786Y-112041069D01*
X174816786Y-112041069D02*
X174912024Y-111993450D01*
X174912024Y-111993450D02*
X174959643Y-111945830D01*
X174959643Y-111945830D02*
X175007262Y-111850592D01*
X175007262Y-111850592D02*
X175054881Y-111660116D01*
X175054881Y-111660116D02*
X175054881Y-111422021D01*
X175054881Y-111422021D02*
X175007262Y-111231545D01*
X175007262Y-111231545D02*
X174959643Y-111136307D01*
X174959643Y-111136307D02*
X174912024Y-111088688D01*
X174912024Y-111088688D02*
X174816786Y-111041069D01*
X173531072Y-112041069D02*
X174102500Y-112041069D01*
X173816786Y-112041069D02*
X173816786Y-111041069D01*
X173816786Y-111041069D02*
X173912024Y-111183926D01*
X173912024Y-111183926D02*
X174007262Y-111279164D01*
X174007262Y-111279164D02*
X174102500Y-111326783D01*
X173197738Y-112041069D02*
X172673929Y-111374402D01*
X173197738Y-111374402D02*
X172673929Y-112041069D01*
X172102500Y-111041069D02*
X172007262Y-111041069D01*
X172007262Y-111041069D02*
X171912024Y-111088688D01*
X171912024Y-111088688D02*
X171864405Y-111136307D01*
X171864405Y-111136307D02*
X171816786Y-111231545D01*
X171816786Y-111231545D02*
X171769167Y-111422021D01*
X171769167Y-111422021D02*
X171769167Y-111660116D01*
X171769167Y-111660116D02*
X171816786Y-111850592D01*
X171816786Y-111850592D02*
X171864405Y-111945830D01*
X171864405Y-111945830D02*
X171912024Y-111993450D01*
X171912024Y-111993450D02*
X172007262Y-112041069D01*
X172007262Y-112041069D02*
X172102500Y-112041069D01*
X172102500Y-112041069D02*
X172197738Y-111993450D01*
X172197738Y-111993450D02*
X172245357Y-111945830D01*
X172245357Y-111945830D02*
X172292976Y-111850592D01*
X172292976Y-111850592D02*
X172340595Y-111660116D01*
X172340595Y-111660116D02*
X172340595Y-111422021D01*
X172340595Y-111422021D02*
X172292976Y-111231545D01*
X172292976Y-111231545D02*
X172245357Y-111136307D01*
X172245357Y-111136307D02*
X172197738Y-111088688D01*
X172197738Y-111088688D02*
X172102500Y-111041069D01*
X171197738Y-111469640D02*
X171292976Y-111422021D01*
X171292976Y-111422021D02*
X171340595Y-111374402D01*
X171340595Y-111374402D02*
X171388214Y-111279164D01*
X171388214Y-111279164D02*
X171388214Y-111231545D01*
X171388214Y-111231545D02*
X171340595Y-111136307D01*
X171340595Y-111136307D02*
X171292976Y-111088688D01*
X171292976Y-111088688D02*
X171197738Y-111041069D01*
X171197738Y-111041069D02*
X171007262Y-111041069D01*
X171007262Y-111041069D02*
X170912024Y-111088688D01*
X170912024Y-111088688D02*
X170864405Y-111136307D01*
X170864405Y-111136307D02*
X170816786Y-111231545D01*
X170816786Y-111231545D02*
X170816786Y-111279164D01*
X170816786Y-111279164D02*
X170864405Y-111374402D01*
X170864405Y-111374402D02*
X170912024Y-111422021D01*
X170912024Y-111422021D02*
X171007262Y-111469640D01*
X171007262Y-111469640D02*
X171197738Y-111469640D01*
X171197738Y-111469640D02*
X171292976Y-111517259D01*
X171292976Y-111517259D02*
X171340595Y-111564878D01*
X171340595Y-111564878D02*
X171388214Y-111660116D01*
X171388214Y-111660116D02*
X171388214Y-111850592D01*
X171388214Y-111850592D02*
X171340595Y-111945830D01*
X171340595Y-111945830D02*
X171292976Y-111993450D01*
X171292976Y-111993450D02*
X171197738Y-112041069D01*
X171197738Y-112041069D02*
X171007262Y-112041069D01*
X171007262Y-112041069D02*
X170912024Y-111993450D01*
X170912024Y-111993450D02*
X170864405Y-111945830D01*
X170864405Y-111945830D02*
X170816786Y-111850592D01*
X170816786Y-111850592D02*
X170816786Y-111660116D01*
X170816786Y-111660116D02*
X170864405Y-111564878D01*
X170864405Y-111564878D02*
X170912024Y-111517259D01*
X170912024Y-111517259D02*
X171007262Y-111469640D01*
X170626310Y-112136307D02*
X169864405Y-112136307D01*
X169626309Y-112041069D02*
X169626309Y-111041069D01*
X169626309Y-111041069D02*
X169245357Y-111041069D01*
X169245357Y-111041069D02*
X169150119Y-111088688D01*
X169150119Y-111088688D02*
X169102500Y-111136307D01*
X169102500Y-111136307D02*
X169054881Y-111231545D01*
X169054881Y-111231545D02*
X169054881Y-111374402D01*
X169054881Y-111374402D02*
X169102500Y-111469640D01*
X169102500Y-111469640D02*
X169150119Y-111517259D01*
X169150119Y-111517259D02*
X169245357Y-111564878D01*
X169245357Y-111564878D02*
X169626309Y-111564878D01*
X168626309Y-112041069D02*
X168626309Y-111374402D01*
X168626309Y-111041069D02*
X168673928Y-111088688D01*
X168673928Y-111088688D02*
X168626309Y-111136307D01*
X168626309Y-111136307D02*
X168578690Y-111088688D01*
X168578690Y-111088688D02*
X168626309Y-111041069D01*
X168626309Y-111041069D02*
X168626309Y-111136307D01*
X168150119Y-111374402D02*
X168150119Y-112041069D01*
X168150119Y-111469640D02*
X168102500Y-111422021D01*
X168102500Y-111422021D02*
X168007262Y-111374402D01*
X168007262Y-111374402D02*
X167864405Y-111374402D01*
X167864405Y-111374402D02*
X167769167Y-111422021D01*
X167769167Y-111422021D02*
X167721548Y-111517259D01*
X167721548Y-111517259D02*
X167721548Y-112041069D01*
X173057320Y-100032916D02*
X173771605Y-100032916D01*
X173771605Y-100032916D02*
X173914462Y-99985297D01*
X173914462Y-99985297D02*
X174009701Y-99890059D01*
X174009701Y-99890059D02*
X174057320Y-99747202D01*
X174057320Y-99747202D02*
X174057320Y-99651964D01*
X173057320Y-100413869D02*
X173057320Y-101032916D01*
X173057320Y-101032916D02*
X173438272Y-100699583D01*
X173438272Y-100699583D02*
X173438272Y-100842440D01*
X173438272Y-100842440D02*
X173485891Y-100937678D01*
X173485891Y-100937678D02*
X173533510Y-100985297D01*
X173533510Y-100985297D02*
X173628748Y-101032916D01*
X173628748Y-101032916D02*
X173866843Y-101032916D01*
X173866843Y-101032916D02*
X173962081Y-100985297D01*
X173962081Y-100985297D02*
X174009701Y-100937678D01*
X174009701Y-100937678D02*
X174057320Y-100842440D01*
X174057320Y-100842440D02*
X174057320Y-100556726D01*
X174057320Y-100556726D02*
X174009701Y-100461488D01*
X174009701Y-100461488D02*
X173962081Y-100413869D01*
X113935834Y-87624819D02*
X113935834Y-88339104D01*
X113935834Y-88339104D02*
X113983453Y-88481961D01*
X113983453Y-88481961D02*
X114078691Y-88577200D01*
X114078691Y-88577200D02*
X114221548Y-88624819D01*
X114221548Y-88624819D02*
X114316786Y-88624819D01*
X113507262Y-87720057D02*
X113459643Y-87672438D01*
X113459643Y-87672438D02*
X113364405Y-87624819D01*
X113364405Y-87624819D02*
X113126310Y-87624819D01*
X113126310Y-87624819D02*
X113031072Y-87672438D01*
X113031072Y-87672438D02*
X112983453Y-87720057D01*
X112983453Y-87720057D02*
X112935834Y-87815295D01*
X112935834Y-87815295D02*
X112935834Y-87910533D01*
X112935834Y-87910533D02*
X112983453Y-88053390D01*
X112983453Y-88053390D02*
X113554881Y-88624819D01*
X113554881Y-88624819D02*
X112935834Y-88624819D01*
X118912025Y-110969580D02*
X118959644Y-111017200D01*
X118959644Y-111017200D02*
X119102501Y-111064819D01*
X119102501Y-111064819D02*
X119197739Y-111064819D01*
X119197739Y-111064819D02*
X119340596Y-111017200D01*
X119340596Y-111017200D02*
X119435834Y-110921961D01*
X119435834Y-110921961D02*
X119483453Y-110826723D01*
X119483453Y-110826723D02*
X119531072Y-110636247D01*
X119531072Y-110636247D02*
X119531072Y-110493390D01*
X119531072Y-110493390D02*
X119483453Y-110302914D01*
X119483453Y-110302914D02*
X119435834Y-110207676D01*
X119435834Y-110207676D02*
X119340596Y-110112438D01*
X119340596Y-110112438D02*
X119197739Y-110064819D01*
X119197739Y-110064819D02*
X119102501Y-110064819D01*
X119102501Y-110064819D02*
X118959644Y-110112438D01*
X118959644Y-110112438D02*
X118912025Y-110160057D01*
X118340596Y-111064819D02*
X118435834Y-111017200D01*
X118435834Y-111017200D02*
X118483453Y-110969580D01*
X118483453Y-110969580D02*
X118531072Y-110874342D01*
X118531072Y-110874342D02*
X118531072Y-110588628D01*
X118531072Y-110588628D02*
X118483453Y-110493390D01*
X118483453Y-110493390D02*
X118435834Y-110445771D01*
X118435834Y-110445771D02*
X118340596Y-110398152D01*
X118340596Y-110398152D02*
X118197739Y-110398152D01*
X118197739Y-110398152D02*
X118102501Y-110445771D01*
X118102501Y-110445771D02*
X118054882Y-110493390D01*
X118054882Y-110493390D02*
X118007263Y-110588628D01*
X118007263Y-110588628D02*
X118007263Y-110874342D01*
X118007263Y-110874342D02*
X118054882Y-110969580D01*
X118054882Y-110969580D02*
X118102501Y-111017200D01*
X118102501Y-111017200D02*
X118197739Y-111064819D01*
X118197739Y-111064819D02*
X118340596Y-111064819D01*
X117578691Y-110398152D02*
X117578691Y-111064819D01*
X117578691Y-110493390D02*
X117531072Y-110445771D01*
X117531072Y-110445771D02*
X117435834Y-110398152D01*
X117435834Y-110398152D02*
X117292977Y-110398152D01*
X117292977Y-110398152D02*
X117197739Y-110445771D01*
X117197739Y-110445771D02*
X117150120Y-110541009D01*
X117150120Y-110541009D02*
X117150120Y-111064819D01*
X116673929Y-110398152D02*
X116673929Y-111064819D01*
X116673929Y-110493390D02*
X116626310Y-110445771D01*
X116626310Y-110445771D02*
X116531072Y-110398152D01*
X116531072Y-110398152D02*
X116388215Y-110398152D01*
X116388215Y-110398152D02*
X116292977Y-110445771D01*
X116292977Y-110445771D02*
X116245358Y-110541009D01*
X116245358Y-110541009D02*
X116245358Y-111064819D01*
X116007263Y-111160057D02*
X115245358Y-111160057D01*
X114816786Y-110064819D02*
X114721548Y-110064819D01*
X114721548Y-110064819D02*
X114626310Y-110112438D01*
X114626310Y-110112438D02*
X114578691Y-110160057D01*
X114578691Y-110160057D02*
X114531072Y-110255295D01*
X114531072Y-110255295D02*
X114483453Y-110445771D01*
X114483453Y-110445771D02*
X114483453Y-110683866D01*
X114483453Y-110683866D02*
X114531072Y-110874342D01*
X114531072Y-110874342D02*
X114578691Y-110969580D01*
X114578691Y-110969580D02*
X114626310Y-111017200D01*
X114626310Y-111017200D02*
X114721548Y-111064819D01*
X114721548Y-111064819D02*
X114816786Y-111064819D01*
X114816786Y-111064819D02*
X114912024Y-111017200D01*
X114912024Y-111017200D02*
X114959643Y-110969580D01*
X114959643Y-110969580D02*
X115007262Y-110874342D01*
X115007262Y-110874342D02*
X115054881Y-110683866D01*
X115054881Y-110683866D02*
X115054881Y-110445771D01*
X115054881Y-110445771D02*
X115007262Y-110255295D01*
X115007262Y-110255295D02*
X114959643Y-110160057D01*
X114959643Y-110160057D02*
X114912024Y-110112438D01*
X114912024Y-110112438D02*
X114816786Y-110064819D01*
X113531072Y-111064819D02*
X114102500Y-111064819D01*
X113816786Y-111064819D02*
X113816786Y-110064819D01*
X113816786Y-110064819D02*
X113912024Y-110207676D01*
X113912024Y-110207676D02*
X114007262Y-110302914D01*
X114007262Y-110302914D02*
X114102500Y-110350533D01*
X113197738Y-111064819D02*
X112673929Y-110398152D01*
X113197738Y-110398152D02*
X112673929Y-111064819D01*
X112102500Y-110064819D02*
X112007262Y-110064819D01*
X112007262Y-110064819D02*
X111912024Y-110112438D01*
X111912024Y-110112438D02*
X111864405Y-110160057D01*
X111864405Y-110160057D02*
X111816786Y-110255295D01*
X111816786Y-110255295D02*
X111769167Y-110445771D01*
X111769167Y-110445771D02*
X111769167Y-110683866D01*
X111769167Y-110683866D02*
X111816786Y-110874342D01*
X111816786Y-110874342D02*
X111864405Y-110969580D01*
X111864405Y-110969580D02*
X111912024Y-111017200D01*
X111912024Y-111017200D02*
X112007262Y-111064819D01*
X112007262Y-111064819D02*
X112102500Y-111064819D01*
X112102500Y-111064819D02*
X112197738Y-111017200D01*
X112197738Y-111017200D02*
X112245357Y-110969580D01*
X112245357Y-110969580D02*
X112292976Y-110874342D01*
X112292976Y-110874342D02*
X112340595Y-110683866D01*
X112340595Y-110683866D02*
X112340595Y-110445771D01*
X112340595Y-110445771D02*
X112292976Y-110255295D01*
X112292976Y-110255295D02*
X112245357Y-110160057D01*
X112245357Y-110160057D02*
X112197738Y-110112438D01*
X112197738Y-110112438D02*
X112102500Y-110064819D01*
X111197738Y-110493390D02*
X111292976Y-110445771D01*
X111292976Y-110445771D02*
X111340595Y-110398152D01*
X111340595Y-110398152D02*
X111388214Y-110302914D01*
X111388214Y-110302914D02*
X111388214Y-110255295D01*
X111388214Y-110255295D02*
X111340595Y-110160057D01*
X111340595Y-110160057D02*
X111292976Y-110112438D01*
X111292976Y-110112438D02*
X111197738Y-110064819D01*
X111197738Y-110064819D02*
X111007262Y-110064819D01*
X111007262Y-110064819D02*
X110912024Y-110112438D01*
X110912024Y-110112438D02*
X110864405Y-110160057D01*
X110864405Y-110160057D02*
X110816786Y-110255295D01*
X110816786Y-110255295D02*
X110816786Y-110302914D01*
X110816786Y-110302914D02*
X110864405Y-110398152D01*
X110864405Y-110398152D02*
X110912024Y-110445771D01*
X110912024Y-110445771D02*
X111007262Y-110493390D01*
X111007262Y-110493390D02*
X111197738Y-110493390D01*
X111197738Y-110493390D02*
X111292976Y-110541009D01*
X111292976Y-110541009D02*
X111340595Y-110588628D01*
X111340595Y-110588628D02*
X111388214Y-110683866D01*
X111388214Y-110683866D02*
X111388214Y-110874342D01*
X111388214Y-110874342D02*
X111340595Y-110969580D01*
X111340595Y-110969580D02*
X111292976Y-111017200D01*
X111292976Y-111017200D02*
X111197738Y-111064819D01*
X111197738Y-111064819D02*
X111007262Y-111064819D01*
X111007262Y-111064819D02*
X110912024Y-111017200D01*
X110912024Y-111017200D02*
X110864405Y-110969580D01*
X110864405Y-110969580D02*
X110816786Y-110874342D01*
X110816786Y-110874342D02*
X110816786Y-110683866D01*
X110816786Y-110683866D02*
X110864405Y-110588628D01*
X110864405Y-110588628D02*
X110912024Y-110541009D01*
X110912024Y-110541009D02*
X111007262Y-110493390D01*
X110626310Y-111160057D02*
X109864405Y-111160057D01*
X109626309Y-111064819D02*
X109626309Y-110064819D01*
X109626309Y-110064819D02*
X109245357Y-110064819D01*
X109245357Y-110064819D02*
X109150119Y-110112438D01*
X109150119Y-110112438D02*
X109102500Y-110160057D01*
X109102500Y-110160057D02*
X109054881Y-110255295D01*
X109054881Y-110255295D02*
X109054881Y-110398152D01*
X109054881Y-110398152D02*
X109102500Y-110493390D01*
X109102500Y-110493390D02*
X109150119Y-110541009D01*
X109150119Y-110541009D02*
X109245357Y-110588628D01*
X109245357Y-110588628D02*
X109626309Y-110588628D01*
X108626309Y-111064819D02*
X108626309Y-110398152D01*
X108626309Y-110064819D02*
X108673928Y-110112438D01*
X108673928Y-110112438D02*
X108626309Y-110160057D01*
X108626309Y-110160057D02*
X108578690Y-110112438D01*
X108578690Y-110112438D02*
X108626309Y-110064819D01*
X108626309Y-110064819D02*
X108626309Y-110160057D01*
X108150119Y-110398152D02*
X108150119Y-111064819D01*
X108150119Y-110493390D02*
X108102500Y-110445771D01*
X108102500Y-110445771D02*
X108007262Y-110398152D01*
X108007262Y-110398152D02*
X107864405Y-110398152D01*
X107864405Y-110398152D02*
X107769167Y-110445771D01*
X107769167Y-110445771D02*
X107721548Y-110541009D01*
X107721548Y-110541009D02*
X107721548Y-111064819D01*
X113057320Y-99056666D02*
X113771605Y-99056666D01*
X113771605Y-99056666D02*
X113914462Y-99009047D01*
X113914462Y-99009047D02*
X114009701Y-98913809D01*
X114009701Y-98913809D02*
X114057320Y-98770952D01*
X114057320Y-98770952D02*
X114057320Y-98675714D01*
X113152558Y-99485238D02*
X113104939Y-99532857D01*
X113104939Y-99532857D02*
X113057320Y-99628095D01*
X113057320Y-99628095D02*
X113057320Y-99866190D01*
X113057320Y-99866190D02*
X113104939Y-99961428D01*
X113104939Y-99961428D02*
X113152558Y-100009047D01*
X113152558Y-100009047D02*
X113247796Y-100056666D01*
X113247796Y-100056666D02*
X113343034Y-100056666D01*
X113343034Y-100056666D02*
X113485891Y-100009047D01*
X113485891Y-100009047D02*
X114057320Y-99437619D01*
X114057320Y-99437619D02*
X114057320Y-100056666D01*
X87435834Y-88681069D02*
X87435834Y-89395354D01*
X87435834Y-89395354D02*
X87483453Y-89538211D01*
X87483453Y-89538211D02*
X87578691Y-89633450D01*
X87578691Y-89633450D02*
X87721548Y-89681069D01*
X87721548Y-89681069D02*
X87816786Y-89681069D01*
X86435834Y-89681069D02*
X87007262Y-89681069D01*
X86721548Y-89681069D02*
X86721548Y-88681069D01*
X86721548Y-88681069D02*
X86816786Y-88823926D01*
X86816786Y-88823926D02*
X86912024Y-88919164D01*
X86912024Y-88919164D02*
X87007262Y-88966783D01*
X92412025Y-112025830D02*
X92459644Y-112073450D01*
X92459644Y-112073450D02*
X92602501Y-112121069D01*
X92602501Y-112121069D02*
X92697739Y-112121069D01*
X92697739Y-112121069D02*
X92840596Y-112073450D01*
X92840596Y-112073450D02*
X92935834Y-111978211D01*
X92935834Y-111978211D02*
X92983453Y-111882973D01*
X92983453Y-111882973D02*
X93031072Y-111692497D01*
X93031072Y-111692497D02*
X93031072Y-111549640D01*
X93031072Y-111549640D02*
X92983453Y-111359164D01*
X92983453Y-111359164D02*
X92935834Y-111263926D01*
X92935834Y-111263926D02*
X92840596Y-111168688D01*
X92840596Y-111168688D02*
X92697739Y-111121069D01*
X92697739Y-111121069D02*
X92602501Y-111121069D01*
X92602501Y-111121069D02*
X92459644Y-111168688D01*
X92459644Y-111168688D02*
X92412025Y-111216307D01*
X91840596Y-112121069D02*
X91935834Y-112073450D01*
X91935834Y-112073450D02*
X91983453Y-112025830D01*
X91983453Y-112025830D02*
X92031072Y-111930592D01*
X92031072Y-111930592D02*
X92031072Y-111644878D01*
X92031072Y-111644878D02*
X91983453Y-111549640D01*
X91983453Y-111549640D02*
X91935834Y-111502021D01*
X91935834Y-111502021D02*
X91840596Y-111454402D01*
X91840596Y-111454402D02*
X91697739Y-111454402D01*
X91697739Y-111454402D02*
X91602501Y-111502021D01*
X91602501Y-111502021D02*
X91554882Y-111549640D01*
X91554882Y-111549640D02*
X91507263Y-111644878D01*
X91507263Y-111644878D02*
X91507263Y-111930592D01*
X91507263Y-111930592D02*
X91554882Y-112025830D01*
X91554882Y-112025830D02*
X91602501Y-112073450D01*
X91602501Y-112073450D02*
X91697739Y-112121069D01*
X91697739Y-112121069D02*
X91840596Y-112121069D01*
X91078691Y-111454402D02*
X91078691Y-112121069D01*
X91078691Y-111549640D02*
X91031072Y-111502021D01*
X91031072Y-111502021D02*
X90935834Y-111454402D01*
X90935834Y-111454402D02*
X90792977Y-111454402D01*
X90792977Y-111454402D02*
X90697739Y-111502021D01*
X90697739Y-111502021D02*
X90650120Y-111597259D01*
X90650120Y-111597259D02*
X90650120Y-112121069D01*
X90173929Y-111454402D02*
X90173929Y-112121069D01*
X90173929Y-111549640D02*
X90126310Y-111502021D01*
X90126310Y-111502021D02*
X90031072Y-111454402D01*
X90031072Y-111454402D02*
X89888215Y-111454402D01*
X89888215Y-111454402D02*
X89792977Y-111502021D01*
X89792977Y-111502021D02*
X89745358Y-111597259D01*
X89745358Y-111597259D02*
X89745358Y-112121069D01*
X89507263Y-112216307D02*
X88745358Y-112216307D01*
X88316786Y-111121069D02*
X88221548Y-111121069D01*
X88221548Y-111121069D02*
X88126310Y-111168688D01*
X88126310Y-111168688D02*
X88078691Y-111216307D01*
X88078691Y-111216307D02*
X88031072Y-111311545D01*
X88031072Y-111311545D02*
X87983453Y-111502021D01*
X87983453Y-111502021D02*
X87983453Y-111740116D01*
X87983453Y-111740116D02*
X88031072Y-111930592D01*
X88031072Y-111930592D02*
X88078691Y-112025830D01*
X88078691Y-112025830D02*
X88126310Y-112073450D01*
X88126310Y-112073450D02*
X88221548Y-112121069D01*
X88221548Y-112121069D02*
X88316786Y-112121069D01*
X88316786Y-112121069D02*
X88412024Y-112073450D01*
X88412024Y-112073450D02*
X88459643Y-112025830D01*
X88459643Y-112025830D02*
X88507262Y-111930592D01*
X88507262Y-111930592D02*
X88554881Y-111740116D01*
X88554881Y-111740116D02*
X88554881Y-111502021D01*
X88554881Y-111502021D02*
X88507262Y-111311545D01*
X88507262Y-111311545D02*
X88459643Y-111216307D01*
X88459643Y-111216307D02*
X88412024Y-111168688D01*
X88412024Y-111168688D02*
X88316786Y-111121069D01*
X87031072Y-112121069D02*
X87602500Y-112121069D01*
X87316786Y-112121069D02*
X87316786Y-111121069D01*
X87316786Y-111121069D02*
X87412024Y-111263926D01*
X87412024Y-111263926D02*
X87507262Y-111359164D01*
X87507262Y-111359164D02*
X87602500Y-111406783D01*
X86697738Y-112121069D02*
X86173929Y-111454402D01*
X86697738Y-111454402D02*
X86173929Y-112121069D01*
X85602500Y-111121069D02*
X85507262Y-111121069D01*
X85507262Y-111121069D02*
X85412024Y-111168688D01*
X85412024Y-111168688D02*
X85364405Y-111216307D01*
X85364405Y-111216307D02*
X85316786Y-111311545D01*
X85316786Y-111311545D02*
X85269167Y-111502021D01*
X85269167Y-111502021D02*
X85269167Y-111740116D01*
X85269167Y-111740116D02*
X85316786Y-111930592D01*
X85316786Y-111930592D02*
X85364405Y-112025830D01*
X85364405Y-112025830D02*
X85412024Y-112073450D01*
X85412024Y-112073450D02*
X85507262Y-112121069D01*
X85507262Y-112121069D02*
X85602500Y-112121069D01*
X85602500Y-112121069D02*
X85697738Y-112073450D01*
X85697738Y-112073450D02*
X85745357Y-112025830D01*
X85745357Y-112025830D02*
X85792976Y-111930592D01*
X85792976Y-111930592D02*
X85840595Y-111740116D01*
X85840595Y-111740116D02*
X85840595Y-111502021D01*
X85840595Y-111502021D02*
X85792976Y-111311545D01*
X85792976Y-111311545D02*
X85745357Y-111216307D01*
X85745357Y-111216307D02*
X85697738Y-111168688D01*
X85697738Y-111168688D02*
X85602500Y-111121069D01*
X84697738Y-111549640D02*
X84792976Y-111502021D01*
X84792976Y-111502021D02*
X84840595Y-111454402D01*
X84840595Y-111454402D02*
X84888214Y-111359164D01*
X84888214Y-111359164D02*
X84888214Y-111311545D01*
X84888214Y-111311545D02*
X84840595Y-111216307D01*
X84840595Y-111216307D02*
X84792976Y-111168688D01*
X84792976Y-111168688D02*
X84697738Y-111121069D01*
X84697738Y-111121069D02*
X84507262Y-111121069D01*
X84507262Y-111121069D02*
X84412024Y-111168688D01*
X84412024Y-111168688D02*
X84364405Y-111216307D01*
X84364405Y-111216307D02*
X84316786Y-111311545D01*
X84316786Y-111311545D02*
X84316786Y-111359164D01*
X84316786Y-111359164D02*
X84364405Y-111454402D01*
X84364405Y-111454402D02*
X84412024Y-111502021D01*
X84412024Y-111502021D02*
X84507262Y-111549640D01*
X84507262Y-111549640D02*
X84697738Y-111549640D01*
X84697738Y-111549640D02*
X84792976Y-111597259D01*
X84792976Y-111597259D02*
X84840595Y-111644878D01*
X84840595Y-111644878D02*
X84888214Y-111740116D01*
X84888214Y-111740116D02*
X84888214Y-111930592D01*
X84888214Y-111930592D02*
X84840595Y-112025830D01*
X84840595Y-112025830D02*
X84792976Y-112073450D01*
X84792976Y-112073450D02*
X84697738Y-112121069D01*
X84697738Y-112121069D02*
X84507262Y-112121069D01*
X84507262Y-112121069D02*
X84412024Y-112073450D01*
X84412024Y-112073450D02*
X84364405Y-112025830D01*
X84364405Y-112025830D02*
X84316786Y-111930592D01*
X84316786Y-111930592D02*
X84316786Y-111740116D01*
X84316786Y-111740116D02*
X84364405Y-111644878D01*
X84364405Y-111644878D02*
X84412024Y-111597259D01*
X84412024Y-111597259D02*
X84507262Y-111549640D01*
X84126310Y-112216307D02*
X83364405Y-112216307D01*
X83126309Y-112121069D02*
X83126309Y-111121069D01*
X83126309Y-111121069D02*
X82745357Y-111121069D01*
X82745357Y-111121069D02*
X82650119Y-111168688D01*
X82650119Y-111168688D02*
X82602500Y-111216307D01*
X82602500Y-111216307D02*
X82554881Y-111311545D01*
X82554881Y-111311545D02*
X82554881Y-111454402D01*
X82554881Y-111454402D02*
X82602500Y-111549640D01*
X82602500Y-111549640D02*
X82650119Y-111597259D01*
X82650119Y-111597259D02*
X82745357Y-111644878D01*
X82745357Y-111644878D02*
X83126309Y-111644878D01*
X82126309Y-112121069D02*
X82126309Y-111454402D01*
X82126309Y-111121069D02*
X82173928Y-111168688D01*
X82173928Y-111168688D02*
X82126309Y-111216307D01*
X82126309Y-111216307D02*
X82078690Y-111168688D01*
X82078690Y-111168688D02*
X82126309Y-111121069D01*
X82126309Y-111121069D02*
X82126309Y-111216307D01*
X81650119Y-111454402D02*
X81650119Y-112121069D01*
X81650119Y-111549640D02*
X81602500Y-111502021D01*
X81602500Y-111502021D02*
X81507262Y-111454402D01*
X81507262Y-111454402D02*
X81364405Y-111454402D01*
X81364405Y-111454402D02*
X81269167Y-111502021D01*
X81269167Y-111502021D02*
X81221548Y-111597259D01*
X81221548Y-111597259D02*
X81221548Y-112121069D01*
X86557320Y-100112916D02*
X87271605Y-100112916D01*
X87271605Y-100112916D02*
X87414462Y-100065297D01*
X87414462Y-100065297D02*
X87509701Y-99970059D01*
X87509701Y-99970059D02*
X87557320Y-99827202D01*
X87557320Y-99827202D02*
X87557320Y-99731964D01*
X87557320Y-101112916D02*
X87557320Y-100541488D01*
X87557320Y-100827202D02*
X86557320Y-100827202D01*
X86557320Y-100827202D02*
X86700177Y-100731964D01*
X86700177Y-100731964D02*
X86795415Y-100636726D01*
X86795415Y-100636726D02*
X86843034Y-100541488D01*
X175164405Y-68511069D02*
X174592977Y-68511069D01*
X174878691Y-69511069D02*
X174878691Y-68511069D01*
X173688215Y-69511069D02*
X174021548Y-69034878D01*
X174259643Y-69511069D02*
X174259643Y-68511069D01*
X174259643Y-68511069D02*
X173878691Y-68511069D01*
X173878691Y-68511069D02*
X173783453Y-68558688D01*
X173783453Y-68558688D02*
X173735834Y-68606307D01*
X173735834Y-68606307D02*
X173688215Y-68701545D01*
X173688215Y-68701545D02*
X173688215Y-68844402D01*
X173688215Y-68844402D02*
X173735834Y-68939640D01*
X173735834Y-68939640D02*
X173783453Y-68987259D01*
X173783453Y-68987259D02*
X173878691Y-69034878D01*
X173878691Y-69034878D02*
X174259643Y-69034878D01*
X172688215Y-69511069D02*
X173021548Y-69034878D01*
X173259643Y-69511069D02*
X173259643Y-68511069D01*
X173259643Y-68511069D02*
X172878691Y-68511069D01*
X172878691Y-68511069D02*
X172783453Y-68558688D01*
X172783453Y-68558688D02*
X172735834Y-68606307D01*
X172735834Y-68606307D02*
X172688215Y-68701545D01*
X172688215Y-68701545D02*
X172688215Y-68844402D01*
X172688215Y-68844402D02*
X172735834Y-68939640D01*
X172735834Y-68939640D02*
X172783453Y-68987259D01*
X172783453Y-68987259D02*
X172878691Y-69034878D01*
X172878691Y-69034878D02*
X173259643Y-69034878D01*
X172307262Y-69463450D02*
X172164405Y-69511069D01*
X172164405Y-69511069D02*
X171926310Y-69511069D01*
X171926310Y-69511069D02*
X171831072Y-69463450D01*
X171831072Y-69463450D02*
X171783453Y-69415830D01*
X171783453Y-69415830D02*
X171735834Y-69320592D01*
X171735834Y-69320592D02*
X171735834Y-69225354D01*
X171735834Y-69225354D02*
X171783453Y-69130116D01*
X171783453Y-69130116D02*
X171831072Y-69082497D01*
X171831072Y-69082497D02*
X171926310Y-69034878D01*
X171926310Y-69034878D02*
X172116786Y-68987259D01*
X172116786Y-68987259D02*
X172212024Y-68939640D01*
X172212024Y-68939640D02*
X172259643Y-68892021D01*
X172259643Y-68892021D02*
X172307262Y-68796783D01*
X172307262Y-68796783D02*
X172307262Y-68701545D01*
X172307262Y-68701545D02*
X172259643Y-68606307D01*
X172259643Y-68606307D02*
X172212024Y-68558688D01*
X172212024Y-68558688D02*
X172116786Y-68511069D01*
X172116786Y-68511069D02*
X171878691Y-68511069D01*
X171878691Y-68511069D02*
X171735834Y-68558688D01*
D11*
X174319167Y-81224883D02*
X174552500Y-80891550D01*
X174719167Y-81224883D02*
X174719167Y-80524883D01*
X174719167Y-80524883D02*
X174452500Y-80524883D01*
X174452500Y-80524883D02*
X174385834Y-80558216D01*
X174385834Y-80558216D02*
X174352500Y-80591550D01*
X174352500Y-80591550D02*
X174319167Y-80658216D01*
X174319167Y-80658216D02*
X174319167Y-80758216D01*
X174319167Y-80758216D02*
X174352500Y-80824883D01*
X174352500Y-80824883D02*
X174385834Y-80858216D01*
X174385834Y-80858216D02*
X174452500Y-80891550D01*
X174452500Y-80891550D02*
X174719167Y-80891550D01*
X174019167Y-81224883D02*
X174019167Y-80758216D01*
X174019167Y-80524883D02*
X174052500Y-80558216D01*
X174052500Y-80558216D02*
X174019167Y-80591550D01*
X174019167Y-80591550D02*
X173985834Y-80558216D01*
X173985834Y-80558216D02*
X174019167Y-80524883D01*
X174019167Y-80524883D02*
X174019167Y-80591550D01*
X173685834Y-80758216D02*
X173685834Y-81224883D01*
X173685834Y-80824883D02*
X173652501Y-80791550D01*
X173652501Y-80791550D02*
X173585834Y-80758216D01*
X173585834Y-80758216D02*
X173485834Y-80758216D01*
X173485834Y-80758216D02*
X173419167Y-80791550D01*
X173419167Y-80791550D02*
X173385834Y-80858216D01*
X173385834Y-80858216D02*
X173385834Y-81224883D01*
X172752501Y-80758216D02*
X172752501Y-81324883D01*
X172752501Y-81324883D02*
X172785834Y-81391550D01*
X172785834Y-81391550D02*
X172819168Y-81424883D01*
X172819168Y-81424883D02*
X172885834Y-81458216D01*
X172885834Y-81458216D02*
X172985834Y-81458216D01*
X172985834Y-81458216D02*
X173052501Y-81424883D01*
X172752501Y-81191550D02*
X172819168Y-81224883D01*
X172819168Y-81224883D02*
X172952501Y-81224883D01*
X172952501Y-81224883D02*
X173019168Y-81191550D01*
X173019168Y-81191550D02*
X173052501Y-81158216D01*
X173052501Y-81158216D02*
X173085834Y-81091550D01*
X173085834Y-81091550D02*
X173085834Y-80891550D01*
X173085834Y-80891550D02*
X173052501Y-80824883D01*
X173052501Y-80824883D02*
X173019168Y-80791550D01*
X173019168Y-80791550D02*
X172952501Y-80758216D01*
X172952501Y-80758216D02*
X172819168Y-80758216D01*
X172819168Y-80758216D02*
X172752501Y-80791550D01*
X172052501Y-81224883D02*
X172452501Y-81224883D01*
X172252501Y-81224883D02*
X172252501Y-80524883D01*
X172252501Y-80524883D02*
X172319168Y-80624883D01*
X172319168Y-80624883D02*
X172385835Y-80691550D01*
X172385835Y-80691550D02*
X172452501Y-80724883D01*
X174702500Y-86341550D02*
X174602500Y-86374883D01*
X174602500Y-86374883D02*
X174435834Y-86374883D01*
X174435834Y-86374883D02*
X174369167Y-86341550D01*
X174369167Y-86341550D02*
X174335834Y-86308216D01*
X174335834Y-86308216D02*
X174302500Y-86241550D01*
X174302500Y-86241550D02*
X174302500Y-86174883D01*
X174302500Y-86174883D02*
X174335834Y-86108216D01*
X174335834Y-86108216D02*
X174369167Y-86074883D01*
X174369167Y-86074883D02*
X174435834Y-86041550D01*
X174435834Y-86041550D02*
X174569167Y-86008216D01*
X174569167Y-86008216D02*
X174635834Y-85974883D01*
X174635834Y-85974883D02*
X174669167Y-85941550D01*
X174669167Y-85941550D02*
X174702500Y-85874883D01*
X174702500Y-85874883D02*
X174702500Y-85808216D01*
X174702500Y-85808216D02*
X174669167Y-85741550D01*
X174669167Y-85741550D02*
X174635834Y-85708216D01*
X174635834Y-85708216D02*
X174569167Y-85674883D01*
X174569167Y-85674883D02*
X174402500Y-85674883D01*
X174402500Y-85674883D02*
X174302500Y-85708216D01*
X173902500Y-86374883D02*
X173969167Y-86341550D01*
X173969167Y-86341550D02*
X174002500Y-86274883D01*
X174002500Y-86274883D02*
X174002500Y-85674883D01*
X173369166Y-86341550D02*
X173435833Y-86374883D01*
X173435833Y-86374883D02*
X173569166Y-86374883D01*
X173569166Y-86374883D02*
X173635833Y-86341550D01*
X173635833Y-86341550D02*
X173669166Y-86274883D01*
X173669166Y-86274883D02*
X173669166Y-86008216D01*
X173669166Y-86008216D02*
X173635833Y-85941550D01*
X173635833Y-85941550D02*
X173569166Y-85908216D01*
X173569166Y-85908216D02*
X173435833Y-85908216D01*
X173435833Y-85908216D02*
X173369166Y-85941550D01*
X173369166Y-85941550D02*
X173335833Y-86008216D01*
X173335833Y-86008216D02*
X173335833Y-86074883D01*
X173335833Y-86074883D02*
X173669166Y-86141550D01*
X172769166Y-86341550D02*
X172835833Y-86374883D01*
X172835833Y-86374883D02*
X172969166Y-86374883D01*
X172969166Y-86374883D02*
X173035833Y-86341550D01*
X173035833Y-86341550D02*
X173069166Y-86274883D01*
X173069166Y-86274883D02*
X173069166Y-86008216D01*
X173069166Y-86008216D02*
X173035833Y-85941550D01*
X173035833Y-85941550D02*
X172969166Y-85908216D01*
X172969166Y-85908216D02*
X172835833Y-85908216D01*
X172835833Y-85908216D02*
X172769166Y-85941550D01*
X172769166Y-85941550D02*
X172735833Y-86008216D01*
X172735833Y-86008216D02*
X172735833Y-86074883D01*
X172735833Y-86074883D02*
X173069166Y-86141550D01*
X172502500Y-85908216D02*
X172335833Y-86374883D01*
X172335833Y-86374883D02*
X172169166Y-85908216D01*
X171635833Y-86341550D02*
X171702500Y-86374883D01*
X171702500Y-86374883D02*
X171835833Y-86374883D01*
X171835833Y-86374883D02*
X171902500Y-86341550D01*
X171902500Y-86341550D02*
X171935833Y-86274883D01*
X171935833Y-86274883D02*
X171935833Y-86008216D01*
X171935833Y-86008216D02*
X171902500Y-85941550D01*
X171902500Y-85941550D02*
X171835833Y-85908216D01*
X171835833Y-85908216D02*
X171702500Y-85908216D01*
X171702500Y-85908216D02*
X171635833Y-85941550D01*
X171635833Y-85941550D02*
X171602500Y-86008216D01*
X171602500Y-86008216D02*
X171602500Y-86074883D01*
X171602500Y-86074883D02*
X171935833Y-86141550D01*
X174085833Y-84274883D02*
X173685833Y-84274883D01*
X173885833Y-84974883D02*
X173885833Y-84274883D01*
X173452500Y-84974883D02*
X173452500Y-84508216D01*
X173452500Y-84274883D02*
X173485833Y-84308216D01*
X173485833Y-84308216D02*
X173452500Y-84341550D01*
X173452500Y-84341550D02*
X173419167Y-84308216D01*
X173419167Y-84308216D02*
X173452500Y-84274883D01*
X173452500Y-84274883D02*
X173452500Y-84341550D01*
X173119167Y-84508216D02*
X173119167Y-85208216D01*
X173119167Y-84541550D02*
X173052500Y-84508216D01*
X173052500Y-84508216D02*
X172919167Y-84508216D01*
X172919167Y-84508216D02*
X172852500Y-84541550D01*
X172852500Y-84541550D02*
X172819167Y-84574883D01*
X172819167Y-84574883D02*
X172785834Y-84641550D01*
X172785834Y-84641550D02*
X172785834Y-84841550D01*
X172785834Y-84841550D02*
X172819167Y-84908216D01*
X172819167Y-84908216D02*
X172852500Y-84941550D01*
X172852500Y-84941550D02*
X172919167Y-84974883D01*
X172919167Y-84974883D02*
X173052500Y-84974883D01*
X173052500Y-84974883D02*
X173119167Y-84941550D01*
D10*
X115364405Y-67661069D02*
X114792977Y-67661069D01*
X115078691Y-68661069D02*
X115078691Y-67661069D01*
X113888215Y-68661069D02*
X114221548Y-68184878D01*
X114459643Y-68661069D02*
X114459643Y-67661069D01*
X114459643Y-67661069D02*
X114078691Y-67661069D01*
X114078691Y-67661069D02*
X113983453Y-67708688D01*
X113983453Y-67708688D02*
X113935834Y-67756307D01*
X113935834Y-67756307D02*
X113888215Y-67851545D01*
X113888215Y-67851545D02*
X113888215Y-67994402D01*
X113888215Y-67994402D02*
X113935834Y-68089640D01*
X113935834Y-68089640D02*
X113983453Y-68137259D01*
X113983453Y-68137259D02*
X114078691Y-68184878D01*
X114078691Y-68184878D02*
X114459643Y-68184878D01*
X112888215Y-68661069D02*
X113221548Y-68184878D01*
X113459643Y-68661069D02*
X113459643Y-67661069D01*
X113459643Y-67661069D02*
X113078691Y-67661069D01*
X113078691Y-67661069D02*
X112983453Y-67708688D01*
X112983453Y-67708688D02*
X112935834Y-67756307D01*
X112935834Y-67756307D02*
X112888215Y-67851545D01*
X112888215Y-67851545D02*
X112888215Y-67994402D01*
X112888215Y-67994402D02*
X112935834Y-68089640D01*
X112935834Y-68089640D02*
X112983453Y-68137259D01*
X112983453Y-68137259D02*
X113078691Y-68184878D01*
X113078691Y-68184878D02*
X113459643Y-68184878D01*
X112507262Y-68613450D02*
X112364405Y-68661069D01*
X112364405Y-68661069D02*
X112126310Y-68661069D01*
X112126310Y-68661069D02*
X112031072Y-68613450D01*
X112031072Y-68613450D02*
X111983453Y-68565830D01*
X111983453Y-68565830D02*
X111935834Y-68470592D01*
X111935834Y-68470592D02*
X111935834Y-68375354D01*
X111935834Y-68375354D02*
X111983453Y-68280116D01*
X111983453Y-68280116D02*
X112031072Y-68232497D01*
X112031072Y-68232497D02*
X112126310Y-68184878D01*
X112126310Y-68184878D02*
X112316786Y-68137259D01*
X112316786Y-68137259D02*
X112412024Y-68089640D01*
X112412024Y-68089640D02*
X112459643Y-68042021D01*
X112459643Y-68042021D02*
X112507262Y-67946783D01*
X112507262Y-67946783D02*
X112507262Y-67851545D01*
X112507262Y-67851545D02*
X112459643Y-67756307D01*
X112459643Y-67756307D02*
X112412024Y-67708688D01*
X112412024Y-67708688D02*
X112316786Y-67661069D01*
X112316786Y-67661069D02*
X112078691Y-67661069D01*
X112078691Y-67661069D02*
X111935834Y-67708688D01*
D11*
X114902500Y-85491550D02*
X114802500Y-85524883D01*
X114802500Y-85524883D02*
X114635834Y-85524883D01*
X114635834Y-85524883D02*
X114569167Y-85491550D01*
X114569167Y-85491550D02*
X114535834Y-85458216D01*
X114535834Y-85458216D02*
X114502500Y-85391550D01*
X114502500Y-85391550D02*
X114502500Y-85324883D01*
X114502500Y-85324883D02*
X114535834Y-85258216D01*
X114535834Y-85258216D02*
X114569167Y-85224883D01*
X114569167Y-85224883D02*
X114635834Y-85191550D01*
X114635834Y-85191550D02*
X114769167Y-85158216D01*
X114769167Y-85158216D02*
X114835834Y-85124883D01*
X114835834Y-85124883D02*
X114869167Y-85091550D01*
X114869167Y-85091550D02*
X114902500Y-85024883D01*
X114902500Y-85024883D02*
X114902500Y-84958216D01*
X114902500Y-84958216D02*
X114869167Y-84891550D01*
X114869167Y-84891550D02*
X114835834Y-84858216D01*
X114835834Y-84858216D02*
X114769167Y-84824883D01*
X114769167Y-84824883D02*
X114602500Y-84824883D01*
X114602500Y-84824883D02*
X114502500Y-84858216D01*
X114102500Y-85524883D02*
X114169167Y-85491550D01*
X114169167Y-85491550D02*
X114202500Y-85424883D01*
X114202500Y-85424883D02*
X114202500Y-84824883D01*
X113569166Y-85491550D02*
X113635833Y-85524883D01*
X113635833Y-85524883D02*
X113769166Y-85524883D01*
X113769166Y-85524883D02*
X113835833Y-85491550D01*
X113835833Y-85491550D02*
X113869166Y-85424883D01*
X113869166Y-85424883D02*
X113869166Y-85158216D01*
X113869166Y-85158216D02*
X113835833Y-85091550D01*
X113835833Y-85091550D02*
X113769166Y-85058216D01*
X113769166Y-85058216D02*
X113635833Y-85058216D01*
X113635833Y-85058216D02*
X113569166Y-85091550D01*
X113569166Y-85091550D02*
X113535833Y-85158216D01*
X113535833Y-85158216D02*
X113535833Y-85224883D01*
X113535833Y-85224883D02*
X113869166Y-85291550D01*
X112969166Y-85491550D02*
X113035833Y-85524883D01*
X113035833Y-85524883D02*
X113169166Y-85524883D01*
X113169166Y-85524883D02*
X113235833Y-85491550D01*
X113235833Y-85491550D02*
X113269166Y-85424883D01*
X113269166Y-85424883D02*
X113269166Y-85158216D01*
X113269166Y-85158216D02*
X113235833Y-85091550D01*
X113235833Y-85091550D02*
X113169166Y-85058216D01*
X113169166Y-85058216D02*
X113035833Y-85058216D01*
X113035833Y-85058216D02*
X112969166Y-85091550D01*
X112969166Y-85091550D02*
X112935833Y-85158216D01*
X112935833Y-85158216D02*
X112935833Y-85224883D01*
X112935833Y-85224883D02*
X113269166Y-85291550D01*
X112702500Y-85058216D02*
X112535833Y-85524883D01*
X112535833Y-85524883D02*
X112369166Y-85058216D01*
X111835833Y-85491550D02*
X111902500Y-85524883D01*
X111902500Y-85524883D02*
X112035833Y-85524883D01*
X112035833Y-85524883D02*
X112102500Y-85491550D01*
X112102500Y-85491550D02*
X112135833Y-85424883D01*
X112135833Y-85424883D02*
X112135833Y-85158216D01*
X112135833Y-85158216D02*
X112102500Y-85091550D01*
X112102500Y-85091550D02*
X112035833Y-85058216D01*
X112035833Y-85058216D02*
X111902500Y-85058216D01*
X111902500Y-85058216D02*
X111835833Y-85091550D01*
X111835833Y-85091550D02*
X111802500Y-85158216D01*
X111802500Y-85158216D02*
X111802500Y-85224883D01*
X111802500Y-85224883D02*
X112135833Y-85291550D01*
X114519167Y-77374883D02*
X114752500Y-77041550D01*
X114919167Y-77374883D02*
X114919167Y-76674883D01*
X114919167Y-76674883D02*
X114652500Y-76674883D01*
X114652500Y-76674883D02*
X114585834Y-76708216D01*
X114585834Y-76708216D02*
X114552500Y-76741550D01*
X114552500Y-76741550D02*
X114519167Y-76808216D01*
X114519167Y-76808216D02*
X114519167Y-76908216D01*
X114519167Y-76908216D02*
X114552500Y-76974883D01*
X114552500Y-76974883D02*
X114585834Y-77008216D01*
X114585834Y-77008216D02*
X114652500Y-77041550D01*
X114652500Y-77041550D02*
X114919167Y-77041550D01*
X114219167Y-77374883D02*
X114219167Y-76908216D01*
X114219167Y-76674883D02*
X114252500Y-76708216D01*
X114252500Y-76708216D02*
X114219167Y-76741550D01*
X114219167Y-76741550D02*
X114185834Y-76708216D01*
X114185834Y-76708216D02*
X114219167Y-76674883D01*
X114219167Y-76674883D02*
X114219167Y-76741550D01*
X113885834Y-76908216D02*
X113885834Y-77374883D01*
X113885834Y-76974883D02*
X113852501Y-76941550D01*
X113852501Y-76941550D02*
X113785834Y-76908216D01*
X113785834Y-76908216D02*
X113685834Y-76908216D01*
X113685834Y-76908216D02*
X113619167Y-76941550D01*
X113619167Y-76941550D02*
X113585834Y-77008216D01*
X113585834Y-77008216D02*
X113585834Y-77374883D01*
X112952501Y-76908216D02*
X112952501Y-77474883D01*
X112952501Y-77474883D02*
X112985834Y-77541550D01*
X112985834Y-77541550D02*
X113019168Y-77574883D01*
X113019168Y-77574883D02*
X113085834Y-77608216D01*
X113085834Y-77608216D02*
X113185834Y-77608216D01*
X113185834Y-77608216D02*
X113252501Y-77574883D01*
X112952501Y-77341550D02*
X113019168Y-77374883D01*
X113019168Y-77374883D02*
X113152501Y-77374883D01*
X113152501Y-77374883D02*
X113219168Y-77341550D01*
X113219168Y-77341550D02*
X113252501Y-77308216D01*
X113252501Y-77308216D02*
X113285834Y-77241550D01*
X113285834Y-77241550D02*
X113285834Y-77041550D01*
X113285834Y-77041550D02*
X113252501Y-76974883D01*
X113252501Y-76974883D02*
X113219168Y-76941550D01*
X113219168Y-76941550D02*
X113152501Y-76908216D01*
X113152501Y-76908216D02*
X113019168Y-76908216D01*
X113019168Y-76908216D02*
X112952501Y-76941550D01*
X112652501Y-76741550D02*
X112619168Y-76708216D01*
X112619168Y-76708216D02*
X112552501Y-76674883D01*
X112552501Y-76674883D02*
X112385835Y-76674883D01*
X112385835Y-76674883D02*
X112319168Y-76708216D01*
X112319168Y-76708216D02*
X112285835Y-76741550D01*
X112285835Y-76741550D02*
X112252501Y-76808216D01*
X112252501Y-76808216D02*
X112252501Y-76874883D01*
X112252501Y-76874883D02*
X112285835Y-76974883D01*
X112285835Y-76974883D02*
X112685835Y-77374883D01*
X112685835Y-77374883D02*
X112252501Y-77374883D01*
X114285833Y-83424883D02*
X113885833Y-83424883D01*
X114085833Y-84124883D02*
X114085833Y-83424883D01*
X113652500Y-84124883D02*
X113652500Y-83658216D01*
X113652500Y-83424883D02*
X113685833Y-83458216D01*
X113685833Y-83458216D02*
X113652500Y-83491550D01*
X113652500Y-83491550D02*
X113619167Y-83458216D01*
X113619167Y-83458216D02*
X113652500Y-83424883D01*
X113652500Y-83424883D02*
X113652500Y-83491550D01*
X113319167Y-83658216D02*
X113319167Y-84358216D01*
X113319167Y-83691550D02*
X113252500Y-83658216D01*
X113252500Y-83658216D02*
X113119167Y-83658216D01*
X113119167Y-83658216D02*
X113052500Y-83691550D01*
X113052500Y-83691550D02*
X113019167Y-83724883D01*
X113019167Y-83724883D02*
X112985834Y-83791550D01*
X112985834Y-83791550D02*
X112985834Y-83991550D01*
X112985834Y-83991550D02*
X113019167Y-84058216D01*
X113019167Y-84058216D02*
X113052500Y-84091550D01*
X113052500Y-84091550D02*
X113119167Y-84124883D01*
X113119167Y-84124883D02*
X113252500Y-84124883D01*
X113252500Y-84124883D02*
X113319167Y-84091550D01*
X114519167Y-80374883D02*
X114752500Y-80041550D01*
X114919167Y-80374883D02*
X114919167Y-79674883D01*
X114919167Y-79674883D02*
X114652500Y-79674883D01*
X114652500Y-79674883D02*
X114585834Y-79708216D01*
X114585834Y-79708216D02*
X114552500Y-79741550D01*
X114552500Y-79741550D02*
X114519167Y-79808216D01*
X114519167Y-79808216D02*
X114519167Y-79908216D01*
X114519167Y-79908216D02*
X114552500Y-79974883D01*
X114552500Y-79974883D02*
X114585834Y-80008216D01*
X114585834Y-80008216D02*
X114652500Y-80041550D01*
X114652500Y-80041550D02*
X114919167Y-80041550D01*
X114219167Y-80374883D02*
X114219167Y-79908216D01*
X114219167Y-79674883D02*
X114252500Y-79708216D01*
X114252500Y-79708216D02*
X114219167Y-79741550D01*
X114219167Y-79741550D02*
X114185834Y-79708216D01*
X114185834Y-79708216D02*
X114219167Y-79674883D01*
X114219167Y-79674883D02*
X114219167Y-79741550D01*
X113885834Y-79908216D02*
X113885834Y-80374883D01*
X113885834Y-79974883D02*
X113852501Y-79941550D01*
X113852501Y-79941550D02*
X113785834Y-79908216D01*
X113785834Y-79908216D02*
X113685834Y-79908216D01*
X113685834Y-79908216D02*
X113619167Y-79941550D01*
X113619167Y-79941550D02*
X113585834Y-80008216D01*
X113585834Y-80008216D02*
X113585834Y-80374883D01*
X112952501Y-79908216D02*
X112952501Y-80474883D01*
X112952501Y-80474883D02*
X112985834Y-80541550D01*
X112985834Y-80541550D02*
X113019168Y-80574883D01*
X113019168Y-80574883D02*
X113085834Y-80608216D01*
X113085834Y-80608216D02*
X113185834Y-80608216D01*
X113185834Y-80608216D02*
X113252501Y-80574883D01*
X112952501Y-80341550D02*
X113019168Y-80374883D01*
X113019168Y-80374883D02*
X113152501Y-80374883D01*
X113152501Y-80374883D02*
X113219168Y-80341550D01*
X113219168Y-80341550D02*
X113252501Y-80308216D01*
X113252501Y-80308216D02*
X113285834Y-80241550D01*
X113285834Y-80241550D02*
X113285834Y-80041550D01*
X113285834Y-80041550D02*
X113252501Y-79974883D01*
X113252501Y-79974883D02*
X113219168Y-79941550D01*
X113219168Y-79941550D02*
X113152501Y-79908216D01*
X113152501Y-79908216D02*
X113019168Y-79908216D01*
X113019168Y-79908216D02*
X112952501Y-79941550D01*
X112252501Y-80374883D02*
X112652501Y-80374883D01*
X112452501Y-80374883D02*
X112452501Y-79674883D01*
X112452501Y-79674883D02*
X112519168Y-79774883D01*
X112519168Y-79774883D02*
X112585835Y-79841550D01*
X112585835Y-79841550D02*
X112652501Y-79874883D01*
G04 #@! TO.C,J4*
X200487501Y-91036250D02*
X201122501Y-91671250D01*
X201122501Y-91671250D02*
X201122501Y-111356250D01*
X201122501Y-111356250D02*
X198582501Y-111356250D01*
X198582501Y-111356250D02*
X198582501Y-91036250D01*
X198582501Y-91036250D02*
X200487501Y-91036250D01*
G04 #@! TO.C,J3*
X174237501Y-90206250D02*
X174872501Y-90841250D01*
X174872501Y-90841250D02*
X174872501Y-110526250D01*
X174872501Y-110526250D02*
X172332501Y-110526250D01*
X172332501Y-110526250D02*
X172332501Y-90206250D01*
X172332501Y-90206250D02*
X174237501Y-90206250D01*
G04 #@! TO.C,J2*
X114237501Y-89230000D02*
X114872501Y-89865000D01*
X114872501Y-89865000D02*
X114872501Y-109550000D01*
X114872501Y-109550000D02*
X112332501Y-109550000D01*
X112332501Y-109550000D02*
X112332501Y-89230000D01*
X112332501Y-89230000D02*
X114237501Y-89230000D01*
G04 #@! TO.C,J1*
X87737501Y-90286250D02*
X88372501Y-90921250D01*
X88372501Y-90921250D02*
X88372501Y-110606250D01*
X88372501Y-110606250D02*
X85832501Y-110606250D01*
X85832501Y-110606250D02*
X85832501Y-90286250D01*
X85832501Y-90286250D02*
X87737501Y-90286250D01*
G04 #@! TD*
M02*
